<svg width="250" height="250" viewBox="0 0 250 250" fill="none" xmlns="http://www.w3.org/2000/svg">
<circle cx="125" cy="125" r="125" fill="#F1F3F9"/>
<mask id="mask0_485_387" style="mask-type:alpha" maskUnits="userSpaceOnUse" x="0" y="0" width="250" height="250">
<circle cx="125" cy="125" r="125" fill="#F1F3F9"/>
</mask>
<g mask="url(#mask0_485_387)">
<path d="M210.843 213.203C210.843 254.652 172.073 288.253 124.247 288.253C76.4209 288.253 37.6504 254.652 37.6504 213.203C37.6504 171.753 76.4209 138.152 124.247 138.152C172.073 138.152 210.843 171.753 210.843 213.203Z" fill="#A0A3BD"/>
<mask id="mask1_485_387" style="mask-type:alpha" maskUnits="userSpaceOnUse" x="39" y="135" width="170" height="151">
<path d="M208.533 210.895C208.533 252.344 170.797 285.945 124.246 285.945C77.6956 285.945 39.959 252.344 39.959 210.895C39.959 169.446 77.6956 135.845 124.246 135.845C170.797 135.845 208.533 169.446 208.533 210.895Z" fill="#F1F3F9"/>
</mask>
<g mask="url(#mask1_485_387)">
<ellipse cx="124.247" cy="115.061" rx="49.6486" ry="50.8032" fill="#F1F3F9"/>
</g>
<ellipse cx="124.248" cy="103.514" rx="49.6486" ry="50.8032" fill="#A0A3BD"/>
</g>
</svg>
