<svg width="381" height="361" viewBox="0 0 381 361" fill="none" xmlns="http://www.w3.org/2000/svg">
<path d="M339.925 107.855C339.925 107.855 325.921 51.0556 241.145 15.2351C156.369 -20.5854 80.5246 12.5907 63.234 54.5646C45.9435 96.5385 64.0641 119.204 52.526 155.05C40.9879 190.896 -18.2881 236.295 5.63477 291.348C29.5577 346.4 141.502 362.124 232.089 350.766C322.676 339.408 393.448 213.578 339.925 107.855Z" fill="white"/>
<path opacity="0.7" d="M339.925 107.855C339.925 107.855 325.921 51.0556 241.145 15.2351C156.369 -20.5854 80.5246 12.5907 63.234 54.5646C45.9435 96.5385 64.0641 119.204 52.526 155.05C40.9879 190.896 -18.2881 236.295 5.63477 291.348C29.5577 346.4 141.502 362.124 232.089 350.766C322.676 339.408 393.448 213.578 339.925 107.855Z" fill="white"/>
<path d="M235.565 63.4461C235.565 63.4461 232.493 62.3464 231.796 65.1251C231.099 67.9037 235.166 68.9363 235.664 68.9363C236.162 68.9363 236.951 68.2395 236.453 66.6361C235.955 65.0327 235.565 63.4461 235.565 63.4461Z" fill="#263238" stroke="#263238" stroke-linecap="round" stroke-linejoin="round"/>
<path d="M252.997 56.6299C252.997 56.6299 252.698 60.6426 252.698 62.246C252.698 63.8494 254.358 64.4538 255.188 64.4538C256.018 64.4538 256.383 66.3594 255.885 68.3658C255.387 70.3721 253.702 71.5726 249.635 71.5726C245.567 71.5726 243.094 69.7677 242.994 68.4665C242.895 67.1653 243.882 61.5408 245.576 60.0717C247.269 58.6027 252.997 56.6299 252.997 56.6299Z" fill="#263238" stroke="#263238" stroke-linecap="round" stroke-linejoin="round"/>
<path d="M238.147 68.9613V70.5143C238.148 70.7587 238.218 70.9978 238.349 71.2031C238.48 71.4085 238.666 71.5715 238.886 71.6728C239.599 71.9776 240.356 72.1619 241.127 72.2184C242.682 72.2187 244.217 71.8749 245.626 71.2111C245.822 71.1269 245.988 70.9865 246.104 70.8073C246.221 70.6282 246.283 70.4182 246.282 70.2037V68.5835C246.28 68.4847 246.255 68.3879 246.207 68.3015C246.16 68.2151 246.092 68.1417 246.01 68.0879C245.929 68.034 245.835 68.0013 245.737 67.9926C245.64 67.9839 245.542 67.9994 245.452 68.0379L245.128 68.2057C245.128 68.2057 240.231 68.8354 238.147 68.9613Z" fill="white" stroke="#263238" stroke-linecap="round" stroke-linejoin="round"/>
<path d="M235.972 55.8241C235.43 58.0294 235.063 60.2752 234.877 62.5399C234.578 66.2504 234.877 69.6587 236.363 69.7595C237.382 69.7613 238.381 69.4702 239.243 68.92C239.243 68.92 242.713 69.3229 243.9 68.7269L245.095 68.1225L245.983 62.2461C245.983 62.2461 246.083 53.121 244.398 52.5166C242.713 51.9122 235.972 55.8241 235.972 55.8241Z" fill="white" stroke="#263238" stroke-linecap="round" stroke-linejoin="round"/>
<path d="M238.646 59.9385L237.857 62.0456C237.857 62.0456 236.263 62.4485 236.463 63.246C236.662 64.0435 237.716 63.926 237.716 63.926" stroke="#263238" stroke-linecap="round" stroke-linejoin="round"/>
<path d="M241.193 60.8523C241.036 61.2888 240.712 61.5742 240.488 61.4903C240.264 61.4063 240.197 60.9782 240.363 60.5333C240.529 60.0884 240.845 59.8029 241.077 59.8953C241.309 59.9876 241.376 60.4409 241.193 60.8523Z" fill="#263238"/>
<path d="M237.459 59.8366C237.293 60.2815 236.978 60.5669 236.745 60.483C236.513 60.399 236.463 59.9625 236.621 59.526C236.778 59.0894 237.102 58.7956 237.334 58.8796C237.567 58.9635 237.617 59.4 237.459 59.8366Z" fill="#263238"/>
<path d="M240.43 58.032C240.43 58.032 242.314 57.5283 242.513 59.3416" stroke="#263238" stroke-linecap="round" stroke-linejoin="round"/>
<path d="M237.956 57.5289C237.956 57.5289 236.295 56.9329 235.772 58.3684" stroke="#263238" stroke-linecap="round" stroke-linejoin="round"/>
<path d="M239.242 68.962L241.915 67.8623" stroke="#263238" stroke-linecap="round" stroke-linejoin="round"/>
<path d="M237.225 51.2073C237.225 51.2073 234.054 47.3961 231.672 50.2C229.289 53.0038 230.012 57.2264 234.253 57.4279C238.495 57.6293 243.276 53.4152 243.276 53.4152C243.276 53.4152 242.778 58.9305 243.965 60.8361C245.152 62.7418 246.049 64.0429 246.049 64.0429C246.049 64.0429 247.709 65.1427 250.515 62.9432C253.32 60.7438 253.984 55.3879 252 51.8034C250.017 48.2188 246.547 46.1873 242.38 47.606C238.213 49.0247 237.225 51.2073 237.225 51.2073Z" fill="#263238" stroke="#263238" stroke-linecap="round" stroke-linejoin="round"/>
<path d="M244.099 63.9506C244.099 63.9506 247.668 60.643 247.668 62.5486C247.668 64.4543 246.008 66.1584 244.696 65.7554" fill="white"/>
<path d="M244.099 63.9506C244.099 63.9506 247.668 60.643 247.668 62.5486C247.668 64.4543 246.008 66.1584 244.696 65.7554" stroke="#263238" stroke-linecap="round" stroke-linejoin="round"/>
<path d="M236.461 65.4785C236.93 65.8201 237.493 66.0038 238.071 66.0038C238.649 66.0038 239.213 65.8201 239.682 65.4785" stroke="#263238" stroke-linecap="round" stroke-linejoin="round"/>
<path d="M254.882 71.8173C261.221 64.9958 260.891 54.2695 254.146 47.8593C247.401 41.449 236.795 41.7824 230.456 48.6038C224.118 55.4252 224.447 66.1516 231.193 72.5618C237.938 78.972 248.544 78.6387 254.882 71.8173Z" stroke="#263238" stroke-linecap="round" stroke-linejoin="round"/>
<path d="M356.72 198.088C366.246 195.835 372.163 186.199 369.936 176.565C367.708 166.931 358.18 160.947 348.654 163.2C339.128 165.452 333.211 175.088 335.438 184.722C337.666 194.356 347.194 200.34 356.72 198.088Z" stroke="#263238" stroke-linecap="round" stroke-linejoin="round"/>
<path d="M358.732 185.926C358.732 187.105 358.387 188.257 357.739 189.237C357.092 190.218 356.171 190.982 355.094 191.433C354.017 191.884 352.832 192.002 351.689 191.772C350.546 191.542 349.496 190.974 348.672 190.141C347.847 189.307 347.286 188.245 347.059 187.089C346.831 185.933 346.948 184.734 347.394 183.645C347.84 182.556 348.595 181.625 349.565 180.97C350.534 180.315 351.673 179.966 352.839 179.966C354.402 179.966 355.901 180.594 357.006 181.712C358.112 182.829 358.732 184.345 358.732 185.926Z" fill="white" stroke="#263238" stroke-linecap="round" stroke-linejoin="round"/>
<path d="M361.264 189.896C362.535 188.292 363.333 186.356 363.564 184.313C363.795 182.27 363.451 180.203 362.571 178.349C361.69 176.495 360.31 174.93 358.589 173.835C356.868 172.74 354.876 172.159 352.843 172.159C350.809 172.159 348.817 172.74 347.096 173.835C345.375 174.93 343.995 176.495 343.115 178.349C342.235 180.203 341.891 182.27 342.122 184.313C342.353 186.356 343.15 188.292 344.422 189.896H361.264Z" fill="white" stroke="#263238" stroke-linecap="round" stroke-linejoin="round"/>
<path d="M357.048 186.808H348.365C347.857 186.808 347.354 186.707 346.885 186.511C346.416 186.314 345.989 186.026 345.63 185.663C345.271 185.299 344.986 184.868 344.792 184.393C344.597 183.919 344.497 183.41 344.497 182.896C344.496 182.382 344.595 181.873 344.789 181.398C344.983 180.923 345.268 180.491 345.628 180.128C345.987 179.764 346.414 179.476 346.884 179.28C347.353 179.084 347.857 178.983 348.365 178.984H357.048C357.556 178.983 358.06 179.084 358.529 179.28C358.999 179.476 359.426 179.764 359.786 180.128C360.145 180.491 360.43 180.923 360.624 181.398C360.818 181.873 360.917 182.382 360.916 182.896C360.916 183.934 360.509 184.929 359.783 185.663C359.058 186.396 358.074 186.808 357.048 186.808Z" fill="white" stroke="#263238" stroke-linecap="round" stroke-linejoin="round"/>
<path d="M346.272 182.577C346.45 182.073 346.775 181.636 347.203 181.322C347.631 181.008 348.143 180.832 348.672 180.817C349.2 180.803 349.721 180.95 350.165 181.24C350.61 181.53 350.957 181.95 351.162 182.443" stroke="#263238" stroke-width="2" stroke-linecap="round" stroke-linejoin="round"/>
<path d="M354.391 182.577C354.568 182.073 354.893 181.636 355.321 181.322C355.749 181.008 356.261 180.832 356.79 180.817C357.318 180.803 357.839 180.95 358.284 181.24C358.728 181.53 359.075 181.95 359.28 182.443" stroke="#263238" stroke-width="2" stroke-linecap="round" stroke-linejoin="round"/>
<path d="M351.42 184.39C351.459 184.759 351.631 185.1 351.904 185.348C352.177 185.596 352.531 185.734 352.897 185.734C353.264 185.734 353.618 185.596 353.891 185.348C354.164 185.1 354.336 184.759 354.375 184.39H351.42Z" fill="white" stroke="#263238" stroke-linecap="round" stroke-linejoin="round"/>
<path d="M366.794 185.012C366.646 185.012 366.499 184.983 366.362 184.925C366.225 184.868 366.101 184.784 365.996 184.678C365.891 184.572 365.808 184.446 365.751 184.307C365.694 184.169 365.665 184.02 365.665 183.87V181.276C365.665 181.127 365.694 180.978 365.751 180.84C365.808 180.701 365.891 180.575 365.996 180.469C366.101 180.363 366.225 180.279 366.362 180.222C366.499 180.164 366.646 180.135 366.794 180.135C366.942 180.135 367.089 180.164 367.226 180.222C367.363 180.279 367.487 180.363 367.592 180.469C367.697 180.575 367.78 180.701 367.837 180.84C367.894 180.978 367.923 181.127 367.923 181.276V183.845C367.926 183.997 367.899 184.148 367.844 184.29C367.789 184.431 367.706 184.56 367.601 184.669C367.496 184.778 367.37 184.864 367.232 184.923C367.093 184.982 366.944 185.012 366.794 185.012Z" fill="#263238" stroke="#263238" stroke-linecap="round" stroke-linejoin="round"/>
<path d="M338.587 185.012C338.439 185.012 338.292 184.983 338.155 184.925C338.018 184.868 337.893 184.784 337.789 184.678C337.684 184.572 337.601 184.446 337.544 184.307C337.487 184.169 337.458 184.02 337.458 183.87V181.276C337.458 181.127 337.487 180.978 337.544 180.84C337.601 180.701 337.684 180.575 337.789 180.469C337.893 180.363 338.018 180.279 338.155 180.222C338.292 180.164 338.439 180.135 338.587 180.135C338.735 180.135 338.882 180.164 339.019 180.222C339.156 180.279 339.28 180.363 339.385 180.469C339.49 180.575 339.573 180.701 339.63 180.84C339.687 180.978 339.716 181.127 339.716 181.276V183.845C339.719 183.997 339.692 184.148 339.637 184.29C339.582 184.431 339.499 184.56 339.394 184.669C339.289 184.778 339.163 184.864 339.025 184.923C338.886 184.982 338.737 185.012 338.587 185.012Z" fill="#263238" stroke="#263238" stroke-linecap="round" stroke-linejoin="round"/>
<path d="M340.671 181.436C340.358 181.433 340.058 181.306 339.837 181.081C339.616 180.856 339.492 180.552 339.492 180.235V178.355C339.489 176.317 340.09 174.326 341.219 172.638C341.3 172.494 341.409 172.369 341.541 172.27C341.672 172.171 341.822 172.1 341.981 172.063C342.141 172.025 342.306 172.021 342.467 172.051C342.628 172.082 342.781 172.145 342.916 172.238C343.052 172.331 343.167 172.451 343.254 172.591C343.342 172.731 343.399 172.888 343.424 173.052C343.448 173.215 343.439 173.382 343.397 173.542C343.355 173.702 343.28 173.852 343.178 173.981C342.315 175.272 341.855 176.796 341.858 178.355V180.235C341.858 180.553 341.733 180.859 341.51 181.084C341.288 181.309 340.986 181.436 340.671 181.436Z" fill="#263238"/>
<path d="M363.597 173.913C363.5 173.913 363.404 173.889 363.318 173.842C363.233 173.795 363.16 173.727 363.107 173.645C362.346 172.497 361.317 171.557 360.111 170.909C358.905 170.26 357.559 169.922 356.193 169.926H349.602C348.236 169.922 346.89 170.26 345.684 170.909C344.478 171.557 343.448 172.497 342.687 173.645C342.598 173.777 342.461 173.868 342.305 173.898C342.149 173.928 341.988 173.894 341.857 173.804C341.792 173.76 341.735 173.703 341.692 173.637C341.648 173.571 341.618 173.496 341.603 173.418C341.588 173.34 341.589 173.259 341.606 173.181C341.623 173.104 341.654 173.03 341.7 172.965C342.57 171.656 343.745 170.584 345.122 169.843C346.498 169.102 348.034 168.716 349.594 168.717H356.184C357.746 168.716 359.284 169.104 360.662 169.846C362.04 170.588 363.216 171.662 364.087 172.973C364.132 173.039 364.163 173.113 364.179 173.191C364.195 173.269 364.195 173.35 364.18 173.428C364.164 173.507 364.133 173.581 364.089 173.647C364.044 173.713 363.987 173.769 363.921 173.812C363.825 173.877 363.712 173.912 363.597 173.913Z" fill="#263238"/>
<path d="M365.124 181.435C364.809 181.435 364.508 181.309 364.285 181.083C364.062 180.858 363.937 180.553 363.937 180.235V178.354C363.94 176.796 363.481 175.272 362.617 173.981C362.518 173.85 362.447 173.701 362.407 173.542C362.367 173.383 362.36 173.217 362.387 173.055C362.413 172.893 362.472 172.738 362.559 172.6C362.647 172.461 362.762 172.343 362.897 172.251C363.032 172.16 363.184 172.097 363.343 172.068C363.503 172.038 363.667 172.042 363.825 172.079C363.983 172.116 364.133 172.185 364.263 172.283C364.394 172.38 364.503 172.504 364.585 172.646C365.711 174.331 366.309 176.32 366.303 178.354V180.235C366.303 180.552 366.179 180.856 365.958 181.081C365.737 181.305 365.438 181.433 365.124 181.435Z" fill="#263238"/>
<path d="M340.819 186.707C340.198 186.707 339.603 186.458 339.164 186.014C338.725 185.57 338.479 184.968 338.479 184.34V180.579C338.479 179.951 338.725 179.349 339.164 178.905C339.603 178.461 340.198 178.212 340.819 178.212C341.44 178.212 342.036 178.461 342.475 178.905C342.914 179.349 343.16 179.951 343.16 180.579V184.34C343.16 184.968 342.914 185.57 342.475 186.014C342.036 186.458 341.44 186.707 340.819 186.707Z" fill="white" stroke="#263238" stroke-linecap="round" stroke-linejoin="round"/>
<path d="M341.06 178.212H340.578V186.707H341.06V178.212Z" fill="white" stroke="#263238" stroke-linecap="round" stroke-linejoin="round"/>
<path d="M367.033 180.579C367.033 179.272 365.985 178.212 364.692 178.212C363.4 178.212 362.352 179.272 362.352 180.579V184.34C362.352 185.648 363.4 186.707 364.692 186.707C365.985 186.707 367.033 185.648 367.033 184.34V180.579Z" fill="white" stroke="#263238" stroke-linecap="round" stroke-linejoin="round"/>
<path d="M364.934 178.212H364.452V186.707H364.934V178.212Z" fill="white" stroke="#263238" stroke-linecap="round" stroke-linejoin="round"/>
<path d="M352.88 177.439C353.705 177.436 354.516 177.225 355.24 176.827C355.965 176.428 356.58 175.854 357.031 175.156L358.052 173.552C356.433 172.646 354.611 172.178 352.762 172.193C350.912 172.207 349.097 172.705 347.493 173.636L349.021 175.567C349.486 176.15 350.074 176.62 350.741 176.944C351.409 177.268 352.14 177.437 352.88 177.439Z" fill="white" stroke="#263238" stroke-linecap="round" stroke-linejoin="round"/>
<path d="M352.963 187.773C353.06 187.773 353.138 187.695 353.138 187.597C353.138 187.5 353.06 187.421 352.963 187.421C352.867 187.421 352.789 187.5 352.789 187.597C352.789 187.695 352.867 187.773 352.963 187.773Z" fill="#263238"/>
<path d="M353.138 188.21C353.136 188.165 353.116 188.122 353.084 188.091C353.051 188.06 353.008 188.042 352.963 188.042C352.941 188.041 352.918 188.045 352.897 188.053C352.876 188.06 352.857 188.073 352.841 188.088C352.824 188.104 352.811 188.123 352.802 188.144C352.794 188.165 352.789 188.187 352.789 188.21C352.789 188.257 352.807 188.302 352.84 188.335C352.873 188.368 352.917 188.386 352.963 188.386C353.01 188.386 353.054 188.368 353.087 188.335C353.119 188.302 353.138 188.257 353.138 188.21Z" fill="#263238"/>
<path d="M352.449 188.117C352.493 188.103 352.53 188.073 352.551 188.032C352.573 187.991 352.578 187.943 352.565 187.899C352.548 187.855 352.516 187.819 352.475 187.797C352.434 187.775 352.386 187.77 352.341 187.781C352.297 187.795 352.26 187.825 352.239 187.866C352.217 187.907 352.212 187.955 352.225 187.999C352.242 188.043 352.274 188.079 352.315 188.101C352.356 188.123 352.404 188.128 352.449 188.117Z" fill="#263238"/>
<path d="M353.537 188.118C353.581 188.104 353.618 188.074 353.64 188.033C353.662 187.992 353.667 187.944 353.654 187.899C353.638 187.854 353.607 187.817 353.565 187.795C353.523 187.773 353.475 187.768 353.429 187.782C353.408 187.788 353.388 187.799 353.371 187.814C353.353 187.829 353.339 187.847 353.329 187.867C353.319 187.888 353.313 187.91 353.312 187.933C353.311 187.956 353.314 187.979 353.322 188C353.335 188.044 353.365 188.082 353.406 188.104C353.446 188.126 353.493 188.131 353.537 188.118Z" fill="#263238"/>
<path d="M330.925 89.1095H264.876V59.3501V51.459L272.687 59.3501H330.925V89.1095Z" fill="#D6D6D6" stroke="#263238" stroke-linecap="round" stroke-linejoin="round"/>
<path d="M330.925 132.217H264.876V102.466V94.5752L272.687 102.466H330.925V132.217Z" fill="#D6D6D6" stroke="#263238" stroke-linecap="round" stroke-linejoin="round"/>
<path d="M308.978 69.5918H324.525" stroke="#263238" stroke-linecap="round" stroke-linejoin="round"/>
<path d="M287.221 69.5918H304.984" stroke="#263238" stroke-linecap="round" stroke-linejoin="round"/>
<path d="M273.898 69.5918H284.108" stroke="#263238" stroke-linecap="round" stroke-linejoin="round"/>
<path d="M301.873 74.5361H324.526" stroke="#263238" stroke-linecap="round" stroke-linejoin="round"/>
<path d="M273.898 74.5361H297.879" stroke="#263238" stroke-linecap="round" stroke-linejoin="round"/>
<path d="M320.084 79.4727H324.525" stroke="#263238" stroke-linecap="round" stroke-linejoin="round"/>
<path d="M295.215 79.4727H316.531" stroke="#263238" stroke-linecap="round" stroke-linejoin="round"/>
<path d="M273.898 79.4727H291.662" stroke="#263238" stroke-linecap="round" stroke-linejoin="round"/>
<path d="M308.978 111.355H324.525" stroke="#263238" stroke-linecap="round" stroke-linejoin="round"/>
<path d="M287.221 111.355H304.984" stroke="#263238" stroke-linecap="round" stroke-linejoin="round"/>
<path d="M273.898 111.355H284.108" stroke="#263238" stroke-linecap="round" stroke-linejoin="round"/>
<path d="M301.873 116.301H324.526" stroke="#263238" stroke-linecap="round" stroke-linejoin="round"/>
<path d="M273.898 116.301H297.879" stroke="#263238" stroke-linecap="round" stroke-linejoin="round"/>
<path d="M320.084 121.237H324.525" stroke="#263238" stroke-linecap="round" stroke-linejoin="round"/>
<path d="M295.215 121.237H316.531" stroke="#263238" stroke-linecap="round" stroke-linejoin="round"/>
<path d="M273.898 121.237H291.662" stroke="#263238" stroke-linecap="round" stroke-linejoin="round"/>
<path d="M264.876 253.445H330.925V181.477V173.586L323.114 181.477H264.876V253.445Z" fill="white" stroke="#263238" stroke-linecap="round" stroke-linejoin="round"/>
<path d="M308.978 191.299H324.525" stroke="#263238" stroke-linecap="round" stroke-linejoin="round"/>
<path d="M287.221 191.299H304.984" stroke="#263238" stroke-linecap="round" stroke-linejoin="round"/>
<path d="M273.898 191.299H284.108" stroke="#263238" stroke-linecap="round" stroke-linejoin="round"/>
<path d="M301.873 196.235H324.526" stroke="#263238" stroke-linecap="round" stroke-linejoin="round"/>
<path d="M273.898 196.235H297.879" stroke="#263238" stroke-linecap="round" stroke-linejoin="round"/>
<path d="M320.084 201.181H324.525" stroke="#263238" stroke-linecap="round" stroke-linejoin="round"/>
<path d="M295.215 201.181H316.531" stroke="#263238" stroke-linecap="round" stroke-linejoin="round"/>
<path d="M273.898 201.181H291.662" stroke="#263238" stroke-linecap="round" stroke-linejoin="round"/>
<path d="M308.978 205.217H324.525" stroke="#263238" stroke-linecap="round" stroke-linejoin="round"/>
<path d="M287.221 205.217H304.984" stroke="#263238" stroke-linecap="round" stroke-linejoin="round"/>
<path d="M273.898 205.217H284.108" stroke="#263238" stroke-linecap="round" stroke-linejoin="round"/>
<path d="M301.873 210.162H324.526" stroke="#263238" stroke-linecap="round" stroke-linejoin="round"/>
<path d="M273.898 210.162H297.879" stroke="#263238" stroke-linecap="round" stroke-linejoin="round"/>
<path d="M320.084 215.099H324.525" stroke="#263238" stroke-linecap="round" stroke-linejoin="round"/>
<path d="M295.215 215.099H316.531" stroke="#263238" stroke-linecap="round" stroke-linejoin="round"/>
<path d="M273.898 215.099H291.662" stroke="#263238" stroke-linecap="round" stroke-linejoin="round"/>
<path d="M308.978 219.145H324.525" stroke="#263238" stroke-linecap="round" stroke-linejoin="round"/>
<path d="M287.221 219.145H304.984" stroke="#263238" stroke-linecap="round" stroke-linejoin="round"/>
<path d="M273.898 219.145H284.108" stroke="#263238" stroke-linecap="round" stroke-linejoin="round"/>
<path d="M301.873 224.08H324.526" stroke="#263238" stroke-linecap="round" stroke-linejoin="round"/>
<path d="M273.898 224.08H297.879" stroke="#263238" stroke-linecap="round" stroke-linejoin="round"/>
<path d="M320.084 229.025H324.525" stroke="#263238" stroke-linecap="round" stroke-linejoin="round"/>
<path d="M295.215 229.025H316.531" stroke="#263238" stroke-linecap="round" stroke-linejoin="round"/>
<path d="M273.898 229.025H291.662" stroke="#263238" stroke-linecap="round" stroke-linejoin="round"/>
<path d="M308.978 233.063H324.525" stroke="#263238" stroke-linecap="round" stroke-linejoin="round"/>
<path d="M287.221 233.063H304.984" stroke="#263238" stroke-linecap="round" stroke-linejoin="round"/>
<path d="M273.898 233.063H284.108" stroke="#263238" stroke-linecap="round" stroke-linejoin="round"/>
<path d="M301.873 238.008H324.526" stroke="#263238" stroke-linecap="round" stroke-linejoin="round"/>
<path d="M273.898 238.008H297.879" stroke="#263238" stroke-linecap="round" stroke-linejoin="round"/>
<path d="M320.084 242.943H324.525" stroke="#263238" stroke-linecap="round" stroke-linejoin="round"/>
<path d="M295.215 242.943H316.531" stroke="#263238" stroke-linecap="round" stroke-linejoin="round"/>
<path d="M273.898 242.943H291.662" stroke="#263238" stroke-linecap="round" stroke-linejoin="round"/>
<path d="M352.689 293.464C362.473 293.464 370.403 285.443 370.403 275.549C370.403 265.655 362.473 257.635 352.689 257.635C342.906 257.635 334.976 265.655 334.976 275.549C334.976 285.443 342.906 293.464 352.689 293.464Z" stroke="#263238" stroke-linecap="round" stroke-linejoin="round"/>
<path d="M358.732 280.83C358.734 282.009 358.39 283.162 357.743 284.143C357.097 285.125 356.177 285.89 355.1 286.342C354.023 286.795 352.838 286.914 351.694 286.685C350.55 286.456 349.499 285.889 348.674 285.056C347.849 284.223 347.287 283.161 347.059 282.004C346.831 280.848 346.947 279.649 347.393 278.559C347.839 277.47 348.594 276.538 349.564 275.883C350.533 275.228 351.673 274.878 352.839 274.878C354.401 274.878 355.898 275.505 357.003 276.621C358.108 277.737 358.73 279.251 358.732 280.83Z" fill="white" stroke="#263238" stroke-linecap="round" stroke-linejoin="round"/>
<path d="M361.264 284.8C362.535 283.195 363.333 281.26 363.564 279.216C363.795 277.173 363.451 275.106 362.571 273.252C361.69 271.398 360.31 269.834 358.589 268.739C356.868 267.644 354.876 267.062 352.843 267.062C350.809 267.062 348.817 267.644 347.096 268.739C345.375 269.834 343.995 271.398 343.115 273.252C342.235 275.106 341.891 277.173 342.122 279.216C342.353 281.26 343.15 283.195 344.422 284.8H361.264Z" fill="white" stroke="#263238" stroke-linecap="round" stroke-linejoin="round"/>
<path d="M357.048 281.712H348.365C347.857 281.712 347.354 281.61 346.885 281.414C346.416 281.217 345.989 280.929 345.63 280.566C345.271 280.203 344.986 279.771 344.792 279.297C344.597 278.822 344.497 278.313 344.497 277.8C344.497 277.286 344.597 276.777 344.792 276.303C344.986 275.828 345.271 275.397 345.63 275.033C345.989 274.67 346.416 274.382 346.885 274.185C347.354 273.989 347.857 273.888 348.365 273.888H357.048C357.556 273.888 358.059 273.989 358.528 274.185C358.997 274.382 359.424 274.67 359.783 275.033C360.142 275.397 360.427 275.828 360.622 276.303C360.816 276.777 360.916 277.286 360.916 277.8C360.916 278.837 360.509 279.832 359.783 280.566C359.058 281.299 358.074 281.712 357.048 281.712Z" fill="white" stroke="#263238" stroke-linecap="round" stroke-linejoin="round"/>
<path d="M346.272 277.481C346.45 276.977 346.775 276.539 347.203 276.225C347.631 275.911 348.143 275.735 348.672 275.721C349.2 275.706 349.721 275.854 350.165 276.144C350.61 276.434 350.957 276.853 351.162 277.346" stroke="#263238" stroke-width="2" stroke-linecap="round" stroke-linejoin="round"/>
<path d="M354.391 277.481C354.568 276.977 354.893 276.539 355.321 276.225C355.749 275.911 356.261 275.735 356.79 275.721C357.318 275.706 357.839 275.854 358.284 276.144C358.728 276.434 359.075 276.853 359.28 277.346" stroke="#263238" stroke-width="2" stroke-linecap="round" stroke-linejoin="round"/>
<path d="M351.42 279.293C351.459 279.662 351.631 280.003 351.904 280.252C352.177 280.5 352.531 280.637 352.897 280.637C353.264 280.637 353.618 280.5 353.891 280.252C354.164 280.003 354.336 279.662 354.375 279.293H351.42Z" fill="white" stroke="#263238" stroke-linecap="round" stroke-linejoin="round"/>
<path d="M366.794 279.914C366.495 279.914 366.207 279.794 365.996 279.579C365.784 279.365 365.665 279.075 365.665 278.772V276.187C365.665 275.884 365.784 275.593 365.996 275.379C366.207 275.165 366.495 275.045 366.794 275.045C367.093 275.045 367.38 275.165 367.592 275.379C367.804 275.593 367.923 275.884 367.923 276.187V278.781C367.921 279.082 367.801 279.37 367.589 279.582C367.378 279.795 367.092 279.914 366.794 279.914Z" fill="#263238" stroke="#263238" stroke-linecap="round" stroke-linejoin="round"/>
<path d="M338.587 279.914C338.287 279.914 338 279.794 337.789 279.579C337.577 279.365 337.458 279.075 337.458 278.772V276.187C337.458 275.884 337.577 275.593 337.789 275.379C338 275.165 338.287 275.045 338.587 275.045C338.886 275.045 339.173 275.165 339.385 275.379C339.597 275.593 339.716 275.884 339.716 276.187V278.781C339.714 279.082 339.594 279.37 339.382 279.582C339.171 279.795 338.885 279.914 338.587 279.914Z" fill="#263238" stroke="#263238" stroke-linecap="round" stroke-linejoin="round"/>
<path d="M340.671 276.346C340.358 276.344 340.058 276.216 339.837 275.992C339.616 275.767 339.492 275.463 339.492 275.146V273.257C339.49 271.22 340.091 269.228 341.219 267.54C341.405 267.304 341.673 267.148 341.968 267.102C342.264 267.057 342.565 267.126 342.812 267.296C343.06 267.465 343.235 267.723 343.302 268.017C343.37 268.311 343.326 268.621 343.178 268.883C342.315 270.175 341.855 271.698 341.858 273.257V275.146C341.858 275.464 341.733 275.769 341.51 275.995C341.288 276.22 340.986 276.346 340.671 276.346Z" fill="#263238"/>
<path d="M363.597 268.817C363.5 268.817 363.405 268.793 363.32 268.748C363.235 268.702 363.162 268.637 363.107 268.557C362.347 267.408 361.318 266.466 360.112 265.816C358.906 265.166 357.559 264.827 356.192 264.829H349.601C348.236 264.83 346.892 265.17 345.686 265.818C344.481 266.467 343.451 267.404 342.687 268.548C342.643 268.613 342.587 268.669 342.523 268.712C342.458 268.755 342.385 268.785 342.309 268.8C342.232 268.815 342.154 268.814 342.078 268.799C342.002 268.783 341.929 268.752 341.865 268.708C341.801 268.664 341.746 268.607 341.703 268.542C341.66 268.476 341.631 268.402 341.616 268.325C341.601 268.248 341.602 268.169 341.618 268.092C341.633 268.015 341.664 267.942 341.707 267.877C342.578 266.568 343.753 265.496 345.13 264.755C346.506 264.015 348.042 263.628 349.601 263.629H356.192C357.753 263.629 359.291 264.018 360.669 264.76C362.046 265.502 363.223 266.575 364.095 267.885C364.139 267.951 364.171 268.025 364.187 268.103C364.203 268.181 364.203 268.262 364.187 268.34C364.172 268.419 364.141 268.493 364.097 268.559C364.052 268.625 363.995 268.681 363.929 268.725C363.829 268.788 363.714 268.82 363.597 268.817Z" fill="#263238"/>
<path d="M365.124 276.347C364.809 276.347 364.507 276.22 364.284 275.995C364.062 275.77 363.937 275.465 363.937 275.146V273.257C363.939 271.701 363.479 270.181 362.617 268.892C362.526 268.762 362.462 268.614 362.429 268.458C362.395 268.302 362.392 268.141 362.421 267.985C362.45 267.828 362.509 267.678 362.595 267.545C362.682 267.411 362.794 267.297 362.924 267.207C363.055 267.118 363.202 267.056 363.357 267.025C363.511 266.994 363.67 266.994 363.825 267.026C363.979 267.058 364.126 267.12 364.257 267.21C364.387 267.3 364.498 267.415 364.584 267.549C365.709 269.235 366.308 271.223 366.302 273.257V275.146C366.302 275.463 366.178 275.767 365.958 275.992C365.737 276.217 365.437 276.344 365.124 276.347Z" fill="#263238"/>
<path d="M340.819 281.618C340.198 281.618 339.603 281.369 339.164 280.925C338.725 280.481 338.479 279.879 338.479 279.251V275.482C338.479 274.854 338.725 274.252 339.164 273.808C339.603 273.364 340.198 273.114 340.819 273.114C341.44 273.114 342.036 273.364 342.475 273.808C342.914 274.252 343.16 274.854 343.16 275.482V279.251C343.158 279.878 342.911 280.479 342.472 280.922C342.034 281.366 341.439 281.616 340.819 281.618Z" fill="white" stroke="#263238" stroke-linecap="round" stroke-linejoin="round"/>
<path d="M341.06 273.114H340.578V281.61H341.06V273.114Z" fill="white" stroke="#263238" stroke-linecap="round" stroke-linejoin="round"/>
<path d="M367.033 275.482C367.033 274.174 365.985 273.114 364.692 273.114C363.4 273.114 362.352 274.174 362.352 275.482V279.242C362.352 280.55 363.4 281.61 364.692 281.61C365.985 281.61 367.033 280.55 367.033 279.242V275.482Z" fill="white" stroke="#263238" stroke-linecap="round" stroke-linejoin="round"/>
<path d="M364.934 273.114H364.452V281.61H364.934V273.114Z" fill="white" stroke="#263238" stroke-linecap="round" stroke-linejoin="round"/>
<path d="M352.88 272.342C353.705 272.338 354.516 272.128 355.24 271.729C355.965 271.331 356.58 270.757 357.031 270.058L358.052 268.463C356.433 267.56 354.612 267.093 352.763 267.106C350.914 267.119 349.099 267.612 347.493 268.539L349.021 270.47C349.486 271.052 350.074 271.523 350.741 271.846C351.409 272.17 352.14 272.339 352.88 272.342Z" fill="white" stroke="#263238" stroke-linecap="round" stroke-linejoin="round"/>
<path d="M352.963 282.677C353.06 282.677 353.138 282.598 353.138 282.501C353.138 282.403 353.06 282.324 352.963 282.324C352.867 282.324 352.789 282.403 352.789 282.501C352.789 282.598 352.867 282.677 352.963 282.677Z" fill="#263238"/>
<path d="M352.963 283.297C353.06 283.297 353.138 283.218 353.138 283.121C353.138 283.023 353.06 282.944 352.963 282.944C352.867 282.944 352.789 283.023 352.789 283.121C352.789 283.218 352.867 283.297 352.963 283.297Z" fill="#263238"/>
<path d="M352.449 283.02C352.493 283.007 352.53 282.976 352.552 282.935C352.573 282.894 352.578 282.846 352.565 282.802C352.549 282.758 352.517 282.722 352.475 282.7C352.434 282.679 352.386 282.673 352.341 282.684C352.299 282.7 352.263 282.731 352.242 282.771C352.22 282.811 352.214 282.858 352.225 282.903C352.232 282.926 352.243 282.947 352.258 282.965C352.273 282.984 352.291 282.999 352.312 283.01C352.333 283.021 352.356 283.028 352.38 283.029C352.403 283.031 352.427 283.028 352.449 283.02Z" fill="#263238"/>
<path d="M353.537 283.021C353.581 283.007 353.618 282.977 353.64 282.936C353.662 282.895 353.667 282.847 353.654 282.803C353.638 282.758 353.607 282.72 353.565 282.698C353.523 282.677 353.475 282.672 353.429 282.685C353.408 282.692 353.388 282.703 353.371 282.718C353.353 282.732 353.339 282.75 353.329 282.771C353.319 282.791 353.313 282.814 353.312 282.836C353.311 282.859 353.314 282.882 353.322 282.903C353.327 282.926 353.337 282.947 353.352 282.966C353.366 282.984 353.384 282.999 353.404 283.01C353.424 283.021 353.447 283.028 353.47 283.03C353.493 283.032 353.516 283.029 353.537 283.021Z" fill="#263238"/>
<path d="M264.876 318.857H330.925V276.379V268.488L323.114 276.379H264.876V318.857Z" fill="white" stroke="#263238" stroke-linecap="round" stroke-linejoin="round"/>
<path d="M308.978 286.202H324.525" stroke="#263238" stroke-linecap="round" stroke-linejoin="round"/>
<path d="M287.221 286.202H304.984" stroke="#263238" stroke-linecap="round" stroke-linejoin="round"/>
<path d="M273.898 286.202H284.108" stroke="#263238" stroke-linecap="round" stroke-linejoin="round"/>
<path d="M301.873 291.147H324.526" stroke="#263238" stroke-linecap="round" stroke-linejoin="round"/>
<path d="M273.898 291.147H297.879" stroke="#263238" stroke-linecap="round" stroke-linejoin="round"/>
<path d="M320.084 296.082H324.525" stroke="#263238" stroke-linecap="round" stroke-linejoin="round"/>
<path d="M295.215 296.082H316.531" stroke="#263238" stroke-linecap="round" stroke-linejoin="round"/>
<path d="M273.898 296.082H291.662" stroke="#263238" stroke-linecap="round" stroke-linejoin="round"/>
<path d="M308.978 300.129H324.525" stroke="#263238" stroke-linecap="round" stroke-linejoin="round"/>
<path d="M287.221 300.129H304.984" stroke="#263238" stroke-linecap="round" stroke-linejoin="round"/>
<path d="M273.898 300.129H284.108" stroke="#263238" stroke-linecap="round" stroke-linejoin="round"/>
<path d="M301.873 305.065H324.526" stroke="#263238" stroke-linecap="round" stroke-linejoin="round"/>
<path d="M273.898 305.065H297.879" stroke="#263238" stroke-linecap="round" stroke-linejoin="round"/>
<path d="M320.084 310.002H324.525" stroke="#263238" stroke-linecap="round" stroke-linejoin="round"/>
<path d="M295.215 310.002H316.531" stroke="#263238" stroke-linecap="round" stroke-linejoin="round"/>
<path d="M273.898 310.002H291.662" stroke="#263238" stroke-linecap="round" stroke-linejoin="round"/>
<path d="M364.228 19.7939H329.963C329.603 21.7132 328.594 23.4456 327.107 24.6929C325.621 25.9402 323.751 26.6243 321.82 26.6273H272.762C270.83 26.6243 268.961 25.9402 267.474 24.6929C265.988 23.4456 264.978 21.7132 264.619 19.7939H230.395C227.533 19.7939 224.788 20.9437 222.764 22.9903C220.74 25.037 219.604 27.8128 219.604 30.7071V323.685C219.604 326.579 220.74 329.355 222.764 331.402C224.788 333.448 227.533 334.598 230.395 334.598H364.228C367.09 334.598 369.835 333.448 371.859 331.402C373.883 329.355 375.019 326.579 375.019 323.685V30.7071C375.019 27.8128 373.883 25.037 371.859 22.9903C369.835 20.9437 367.09 19.7939 364.228 19.7939Z" stroke="#263238" stroke-width="2" stroke-linecap="round" stroke-linejoin="round"/>
<path d="M375.019 39.5636V30.7155C375.019 27.8212 373.883 25.0454 371.859 22.9987C369.835 20.9521 367.09 19.8023 364.228 19.8023H329.963C329.603 21.7215 328.594 23.454 327.107 24.7013C325.621 25.9486 323.751 26.6327 321.82 26.6357H272.762C270.829 26.6323 268.958 25.947 267.472 24.6981C265.985 23.4491 264.976 21.7147 264.619 19.7939H230.395C227.533 19.7939 224.788 20.9437 222.764 22.9903C220.74 25.037 219.604 27.8128 219.604 30.7071V39.5636H375.019Z" stroke="#263238" stroke-width="2" stroke-linecap="round" stroke-linejoin="round"/>
<path d="M233.839 27.7019C233.839 29.851 231.448 30.6233 231.44 32.2603V32.3694H233.756V33.0998H230.668V32.487C230.668 30.2204 233.075 29.7335 233.075 27.7019C233.075 26.9632 232.834 26.577 232.245 26.577C231.656 26.577 231.415 26.9968 231.415 27.6264V28.256H230.685V27.7019C230.685 26.6106 231.174 25.8887 232.262 25.8887C233.349 25.8887 233.839 26.6106 233.839 27.7019Z" fill="#263238"/>
<path d="M237.691 27.7018V27.8864C237.726 28.1878 237.665 28.4928 237.515 28.7559C237.366 29.0191 237.136 29.2264 236.861 29.3471C237.139 29.4687 237.371 29.6786 237.521 29.9452C237.67 30.2118 237.73 30.5206 237.691 30.8246V31.3703C237.691 32.4616 237.185 33.1751 236.105 33.1751C235.026 33.1751 234.52 32.4616 234.52 31.3703V30.8834H235.259V31.4206C235.259 32.067 235.516 32.4532 236.089 32.4532C236.662 32.4532 236.919 32.0754 236.919 31.3535V30.8078C236.919 30.1027 236.62 29.7669 236.031 29.7417H235.566V29.0365H236.031C236.153 29.0383 236.274 29.0129 236.385 28.9621C236.496 28.9113 236.595 28.8363 236.674 28.7426C236.753 28.6488 236.811 28.5385 236.843 28.4195C236.876 28.3006 236.882 28.1759 236.861 28.0543V27.7018C236.861 26.9714 236.604 26.5936 236.031 26.5936C235.458 26.5936 235.201 26.9882 235.201 27.6346V28.004H234.462V27.7018C234.462 26.6104 234.968 25.9053 236.047 25.9053C237.126 25.9053 237.691 26.602 237.691 27.7018Z" fill="#263238"/>
<path d="M239.209 28.2305V29.2211H238.454V28.2305H239.209ZM239.209 32.1089V33.0994H238.454V32.1089H239.209Z" fill="#263238"/>
<path d="M240.804 28.8689C240.907 28.6823 241.06 28.5285 241.245 28.4247C241.429 28.3209 241.639 28.2712 241.85 28.2812C242.755 28.2812 243.162 28.9528 243.162 29.9602V31.3537C243.162 32.445 242.647 33.1586 241.568 33.1586C240.489 33.1586 239.991 32.445 239.991 31.3537V30.8752H240.721V31.4041C240.721 32.0505 240.987 32.4366 241.551 32.4366C242.116 32.4366 242.381 32.0505 242.381 31.4041V30.0357C242.381 29.3893 242.124 29.0032 241.551 29.0032C241.446 28.9926 241.34 29.0045 241.239 29.0381C241.139 29.0717 241.046 29.1263 240.968 29.1983C240.89 29.2704 240.827 29.3582 240.785 29.4562C240.742 29.5542 240.721 29.6601 240.721 29.7671V29.9266H239.982L240.173 25.9727H242.954V26.6862H240.879L240.804 28.8689Z" fill="#263238"/>
<path d="M247.07 27.7017V27.8277H246.356V27.643C246.356 27.005 246.091 26.6272 245.526 26.6272C244.962 26.6272 244.696 27.0134 244.696 27.7773V29.3807C244.777 29.1452 244.932 28.9431 245.138 28.8052C245.343 28.6672 245.587 28.6011 245.833 28.6168C246.738 28.6168 247.145 29.2716 247.145 30.2957V31.3703C247.145 32.4616 246.614 33.1751 245.535 33.1751C244.456 33.1751 243.866 32.4532 243.866 31.3619V27.7017C243.866 26.5684 244.364 25.8633 245.485 25.8633C246.605 25.8633 247.07 26.5936 247.07 27.7017ZM244.646 30.3629V31.429C244.646 32.0754 244.912 32.4616 245.477 32.4616C246.041 32.4616 246.307 32.0754 246.307 31.429V30.3461C246.307 29.7081 246.033 29.3219 245.477 29.3219C244.92 29.3219 244.646 29.7081 244.646 30.3461V30.3629Z" fill="#263238"/>
<path d="M334.071 27.9951H332.079V33.0236H334.071V27.9951Z" fill="#263238"/>
<path d="M336.727 26.9883H334.734V33.0241H336.727V26.9883Z" fill="#263238"/>
<path d="M339.375 26.2754H337.383V33.0248H339.375V26.2754Z" fill="#263238"/>
<path d="M342.031 25.0244H340.039V33.0246H342.031V25.0244Z" fill="#263238"/>
<path d="M366.644 32.8814H354.707V25.5107H366.644V32.8814ZM355.371 32.2182H365.98V26.1823H355.371V32.2182Z" fill="#263238"/>
<path d="M362.667 26.9131H356.367V31.4882H362.667V26.9131Z" fill="#263238"/>
<path d="M367.73 28.3311H366.228V30.0688H367.73V28.3311Z" fill="#263238"/>
<path d="M350.332 31.2782C350.254 31.2796 350.176 31.2593 350.108 31.2194C347.676 29.7587 346.074 31.1103 346.008 31.1691C345.964 31.2134 345.913 31.2483 345.855 31.2715C345.798 31.2948 345.737 31.3058 345.675 31.304C345.614 31.3022 345.553 31.2875 345.497 31.261C345.442 31.2344 345.392 31.1965 345.351 31.1497C345.311 31.1028 345.28 31.048 345.261 30.9886C345.243 30.9292 345.236 30.8666 345.243 30.8046C345.249 30.7426 345.268 30.6826 345.298 30.6283C345.328 30.574 345.369 30.5266 345.418 30.4891C345.501 30.4135 347.56 28.6338 350.565 30.4387C350.664 30.5028 350.735 30.6032 350.763 30.7189C350.791 30.8347 350.773 30.9569 350.714 31.0599C350.675 31.1269 350.619 31.1823 350.552 31.2206C350.485 31.2589 350.409 31.2788 350.332 31.2782Z" fill="#263238"/>
<path d="M351.229 29.7663C351.149 29.7647 351.072 29.7415 351.005 29.6991C347.493 27.592 345.128 29.6319 345.103 29.6487C345.059 29.6873 345.009 29.7168 344.954 29.7356C344.899 29.7544 344.841 29.762 344.783 29.7581C344.725 29.7542 344.669 29.7389 344.617 29.7129C344.565 29.6869 344.518 29.6509 344.48 29.6068C344.442 29.5627 344.413 29.5114 344.394 29.4559C344.376 29.4004 344.368 29.3417 344.372 29.2833C344.376 29.2248 344.391 29.1677 344.417 29.1152C344.442 29.0626 344.478 29.0157 344.522 28.9771C344.522 28.9771 347.394 26.4587 351.461 28.9268C351.562 28.9894 351.635 29.0898 351.663 29.2062C351.691 29.3226 351.672 29.4455 351.611 29.548C351.571 29.6144 351.515 29.6694 351.448 29.7076C351.381 29.7458 351.306 29.766 351.229 29.7663Z" fill="#263238"/>
<path d="M352.051 28.0125C351.969 28.0108 351.889 27.9877 351.818 27.9453C347.369 25.2758 344.414 27.7942 344.29 27.9033C344.199 27.9723 344.086 28.0042 343.974 27.9925C343.861 27.9808 343.757 27.9265 343.682 27.8404C343.608 27.7543 343.568 27.6428 343.571 27.5283C343.575 27.4139 343.621 27.3049 343.7 27.2234C343.742 27.2234 347.253 24.1509 352.275 27.173C352.326 27.2033 352.37 27.2434 352.405 27.291C352.441 27.3387 352.467 27.3929 352.481 27.4506C352.496 27.5082 352.499 27.5683 352.491 27.6273C352.482 27.6862 352.463 27.743 352.433 27.7942C352.392 27.8601 352.336 27.9146 352.269 27.9528C352.203 27.9909 352.128 28.0114 352.051 28.0125Z" fill="#263238"/>
<path d="M348.988 32.0331C348.99 32.258 348.925 32.4782 348.803 32.6659C348.68 32.8535 348.505 33.0001 348.3 33.0869C348.095 33.1737 347.869 33.1969 347.651 33.1534C347.433 33.11 347.233 33.0019 347.075 32.8429C346.918 32.6839 346.811 32.4812 346.768 32.2605C346.725 32.0399 346.748 31.8114 346.834 31.6039C346.92 31.3965 347.065 31.2196 347.25 31.0957C347.436 30.9718 347.654 30.9066 347.876 30.9082C348.171 30.9082 348.454 31.0268 348.662 31.2377C348.871 31.4487 348.988 31.7348 348.988 32.0331Z" fill="#263238"/>
<path d="M362.567 347.971H379.999" stroke="#263238" stroke-linecap="round" stroke-linejoin="round"/>
<path d="M33.8564 347.971H356.758" stroke="#263238" stroke-linecap="round" stroke-linejoin="round"/>
<path d="M11.1533 347.971H23.065" stroke="#263238" stroke-linecap="round" stroke-linejoin="round"/>
<path d="M130.711 234.917H118.027V346.4H130.711V234.917Z" fill="#263238" stroke="#263238" stroke-linecap="round" stroke-linejoin="round"/>
<path d="M30.1387 275.287V283.128H80.6906V275.287H30.1387Z" fill="#263238" stroke="#263238" stroke-linecap="round" stroke-linejoin="round"/>
<path d="M35.335 248.223H27.582V279.594H35.335V248.223Z" fill="#263238" stroke="#263238" stroke-linecap="round" stroke-linejoin="round"/>
<path d="M38.5641 279.729C38.5641 280.672 38.3803 281.606 38.0231 282.477C37.6659 283.349 37.1424 284.14 36.4825 284.807C35.8226 285.474 35.0392 286.002 34.1772 286.362C33.3151 286.723 32.3914 286.907 31.4586 286.906C31.2262 286.906 30.9938 286.906 30.7697 286.906C29.4768 286.777 28.2437 286.292 27.2045 285.503C26.1653 284.715 25.3598 283.653 24.8755 282.434C24.3911 281.215 24.2466 279.885 24.4576 278.588C24.6686 277.292 25.227 276.079 26.0721 275.081C26.9172 274.083 28.0167 273.338 29.2509 272.928C30.4852 272.518 31.807 272.458 33.0727 272.755C34.3383 273.051 35.4993 273.693 36.4295 274.61C37.3596 275.528 38.0233 276.685 38.3483 277.957C38.49 278.537 38.5625 279.132 38.5641 279.729Z" fill="white" stroke="#263238" stroke-linecap="round" stroke-linejoin="round"/>
<path d="M39.0867 253.058C39.0823 254.962 38.332 256.786 37.0002 258.131C35.6684 259.477 33.8636 260.233 31.9812 260.236C31.7488 260.236 31.5164 260.236 31.284 260.236C29.9905 260.11 28.7557 259.628 27.7141 258.843C26.6724 258.057 25.8637 256.998 25.376 255.78C24.8882 254.562 24.7401 253.232 24.9477 251.934C25.1553 250.637 25.7107 249.422 26.5535 248.422C27.3962 247.422 28.4941 246.674 29.7276 246.261C30.9611 245.848 32.2831 245.785 33.5497 246.078C34.8162 246.372 35.979 247.011 36.9113 247.926C37.8436 248.842 38.5099 249.998 38.8377 251.27C38.9971 251.852 39.0808 252.454 39.0867 253.058Z" fill="white" stroke="#263238" stroke-linecap="round" stroke-linejoin="round"/>
<path d="M51.81 233.581L41.4756 239.209L43.6164 243.23L53.9509 237.602L51.81 233.581Z" fill="#263238" stroke="#263238" stroke-linecap="round" stroke-linejoin="round"/>
<path d="M55.6636 238.039L50.5752 240.809L47.3213 234.706L52.418 231.928C52.8179 231.706 53.2576 231.567 53.7113 231.52C54.1649 231.473 54.6233 231.518 55.0596 231.652C55.4958 231.787 55.901 232.008 56.2513 232.304C56.6017 232.599 56.8901 232.962 57.0996 233.372C57.5162 234.184 57.599 235.13 57.3301 236.004C57.0613 236.878 56.4624 237.609 55.6636 238.039Z" fill="white" stroke="#263238" stroke-linecap="round" stroke-linejoin="round"/>
<path d="M33.3589 212.159L32.9937 233.448L28.4863 233.372L28.8433 212.083L33.3589 212.159Z" fill="#263238" stroke="#263238" stroke-linecap="round" stroke-linejoin="round"/>
<path d="M34.5786 210.875L34.4873 216.751L27.6309 216.583L27.7222 210.707C27.7297 210.251 27.8259 209.802 28.0052 209.384C28.1845 208.967 28.4435 208.589 28.7672 208.272C29.091 207.956 29.4732 207.707 29.8921 207.54C30.311 207.373 30.7583 207.291 31.2085 207.298C31.6634 207.305 32.1124 207.403 32.5293 207.587C32.9461 207.771 33.3225 208.037 33.6364 208.371C33.9502 208.704 34.1952 209.097 34.357 209.527C34.5188 209.956 34.5941 210.415 34.5786 210.875Z" fill="white" stroke="#263238" stroke-linecap="round" stroke-linejoin="round"/>
<path d="M50.2271 219.882L40.3242 238.669L36.3398 236.529L46.2344 217.741L50.2271 219.882Z" fill="#263238" stroke="#263238" stroke-linecap="round" stroke-linejoin="round"/>
<path d="M51.8867 219.302L49.1724 224.465L43.1211 221.216L45.8272 216.045C46.2553 215.236 46.9826 214.63 47.8504 214.362C48.7182 214.093 49.656 214.182 50.459 214.61C51.2629 215.041 51.8648 215.778 52.1324 216.657C52.4001 217.537 52.3117 218.488 51.8867 219.302Z" fill="white" stroke="#263238" stroke-linecap="round" stroke-linejoin="round"/>
<path d="M17.356 219.798L27.1675 238.636L23.1748 240.768L13.3633 221.93L17.356 219.798Z" fill="#263238" stroke="#263238" stroke-linecap="round" stroke-linejoin="round"/>
<path d="M26.5604 233.456C26.4149 232.584 26.0171 231.776 25.4173 231.134C24.8175 230.491 24.0427 230.043 23.191 229.846C22.3392 229.649 21.4488 229.712 20.6324 230.027C19.816 230.341 19.1103 230.894 18.6047 231.615C18.099 232.335 17.8161 233.192 17.7918 234.075C17.7674 234.958 18.0027 235.829 18.4679 236.577C18.933 237.325 19.6072 237.917 20.4049 238.277C21.2027 238.637 22.0883 238.75 22.9496 238.602C24.1027 238.403 25.1305 237.749 25.8075 236.784C26.4844 235.819 26.7552 234.622 26.5604 233.456Z" fill="white" stroke="#263238" stroke-linecap="round" stroke-linejoin="round"/>
<path d="M30.8779 234.044C33.3168 234.044 35.294 232.045 35.294 229.578C35.294 227.112 33.3168 225.112 30.8779 225.112C28.439 225.112 26.4619 227.112 26.4619 229.578C26.4619 232.045 28.439 234.044 30.8779 234.044Z" fill="white" stroke="#263238" stroke-linecap="round" stroke-linejoin="round"/>
<path d="M45.2875 232.155C45.4204 231.282 45.2942 230.388 44.9248 229.588C44.5554 228.787 43.9595 228.115 43.2124 227.657C42.4653 227.199 41.6007 226.975 40.7279 227.014C39.8551 227.053 39.0133 227.353 38.3091 227.876C37.6049 228.399 37.0699 229.121 36.7718 229.952C36.4737 230.783 36.4259 231.684 36.6345 232.542C36.8431 233.4 37.2986 234.176 37.9435 234.772C38.5883 235.368 39.3935 235.758 40.2572 235.891C40.8301 235.98 41.4149 235.955 41.978 235.815C42.541 235.676 43.0714 235.425 43.5387 235.078C44.0059 234.731 44.4009 234.294 44.701 233.793C45.0011 233.291 45.2004 232.735 45.2875 232.155Z" fill="white" stroke="#263238" stroke-linecap="round" stroke-linejoin="round"/>
<path d="M17.8122 218.077L20.5183 223.248L14.4587 226.497L11.7526 221.317C11.5412 220.915 11.4105 220.475 11.3679 220.021C11.3253 219.568 11.3716 219.111 11.5043 218.675C11.6369 218.24 11.8533 217.836 12.1409 217.485C12.4285 217.135 12.7818 216.845 13.1804 216.633C13.9844 216.206 14.9229 216.118 15.7908 216.389C16.6588 216.659 17.3855 217.266 17.8122 218.077Z" fill="white" stroke="#263238" stroke-linecap="round" stroke-linejoin="round"/>
<path d="M44.4402 242.077C44.4402 245.417 43.1284 248.62 40.7934 250.981C38.4583 253.343 35.2913 254.669 31.989 254.669C31.574 254.669 31.159 254.669 30.7688 254.619C28.5039 254.392 26.3438 253.541 24.5233 252.16C22.7029 250.778 21.2918 248.918 20.4433 246.782C19.5949 244.646 19.3416 242.316 19.711 240.045C20.0803 237.773 21.0583 235.648 22.5384 233.899C24.0186 232.151 25.9444 230.846 28.1065 230.127C30.2686 229.407 32.5843 229.301 34.8019 229.82C37.0195 230.338 39.0541 231.462 40.6846 233.068C42.3151 234.674 43.4791 236.701 44.0501 238.929C44.3075 239.958 44.4386 241.016 44.4402 242.077Z" fill="white" stroke="#263238" stroke-linecap="round" stroke-linejoin="round"/>
<path d="M44.441 242.077C44.441 245.417 43.1292 248.619 40.7942 250.981C38.4591 253.342 35.2921 254.669 31.9898 254.669C31.5748 254.669 31.1597 254.669 30.7696 254.619C30.2926 252.756 30.2442 250.807 30.6281 248.922C31.0121 247.037 31.8182 245.266 32.9844 243.745C34.1507 242.224 35.6462 240.994 37.356 240.149C39.0657 239.304 40.9442 238.866 42.8473 238.87C43.254 238.87 43.6774 238.87 44.0675 238.929C44.3193 239.959 44.4448 241.016 44.441 242.077Z" fill="white" stroke="#263238" stroke-linecap="round" stroke-linejoin="round"/>
<path d="M107.138 279.954C109.252 270.817 103.641 261.677 94.6066 259.539C85.5718 257.401 76.5338 263.075 74.4197 272.212C72.3056 281.349 77.9159 290.489 86.9507 292.627C95.9855 294.765 105.023 289.091 107.138 279.954Z" fill="white" stroke="#263238" stroke-linecap="round" stroke-linejoin="round"/>
<path d="M93.9 283.682C98.0508 281.931 100.012 277.109 98.281 272.911C96.5498 268.713 91.7816 266.73 87.6308 268.48C83.4801 270.231 81.5186 275.053 83.2498 279.251C84.981 283.449 89.7493 285.432 93.9 283.682Z" fill="#263238" stroke="#263238" stroke-linecap="round" stroke-linejoin="round"/>
<path d="M87.8879 347.969H162.429L163.5 342.865C163.929 340.827 163.544 338.699 162.427 336.947C161.31 335.194 159.553 333.96 157.54 333.514C146.973 331.113 124.096 330.248 124.096 330.248C118.584 330.424 103.244 331.088 92.6775 333.522C90.6781 333.984 88.9388 335.223 87.8359 336.971C86.7329 338.72 86.355 340.837 86.7839 342.865L87.8879 347.969Z" fill="white" stroke="#263238" stroke-linecap="round" stroke-linejoin="round"/>
<path d="M143.096 331.49C133.55 330.601 124.12 330.248 124.12 330.248C120.65 330.357 113.279 330.668 105.659 331.49C107.884 339.172 115.421 344.83 124.377 344.83C133.334 344.83 140.871 339.147 143.096 331.49Z" fill="white" stroke="#263238" stroke-linecap="round" stroke-linejoin="round"/>
<path d="M202.234 311.973L206.871 305.688L166.356 275.114L161.719 281.398L202.234 311.973Z" fill="#263238" stroke="#263238" stroke-linecap="round" stroke-linejoin="round"/>
<path d="M182.071 330.524L188.285 335.213L206.837 310.07L200.623 305.381L182.071 330.524Z" fill="#263238" stroke="#263238" stroke-linecap="round" stroke-linejoin="round"/>
<path d="M198.105 303.318C198.664 302.561 199.365 301.922 200.169 301.438C200.972 300.955 201.861 300.636 202.786 300.5C203.712 300.365 204.654 300.415 205.56 300.648C206.466 300.88 207.318 301.292 208.066 301.858L208.606 302.303C209.566 303.188 210.267 304.323 210.634 305.584C211.001 306.844 211.019 308.182 210.686 309.453C210.353 310.723 209.682 311.876 208.746 312.788C207.81 313.699 206.645 314.334 205.377 314.622C204.109 314.911 202.788 314.842 201.556 314.424C200.324 314.006 199.229 313.254 198.391 312.25C197.552 311.247 197.001 310.03 196.799 308.732C196.596 307.433 196.75 306.104 197.242 304.888C197.465 304.331 197.755 303.804 198.105 303.318Z" fill="white" stroke="#263238" stroke-linecap="round" stroke-linejoin="round"/>
<path d="M181.895 323.406C182.947 321.825 184.577 320.732 186.427 320.367C188.276 320.001 190.193 320.394 191.756 321.458C191.947 321.584 192.13 321.727 192.312 321.869C193.314 322.706 194.071 323.804 194.498 325.045C194.926 326.286 195.009 327.622 194.739 328.907C194.468 330.193 193.854 331.379 192.964 332.336C192.073 333.293 190.94 333.985 189.688 334.336C188.436 334.687 187.113 334.684 185.862 334.328C184.611 333.971 183.481 333.275 182.594 332.314C181.708 331.353 181.099 330.165 180.833 328.878C180.568 327.592 180.657 326.257 181.089 325.017C181.291 324.448 181.561 323.907 181.895 323.406Z" fill="white" stroke="#263238" stroke-linecap="round" stroke-linejoin="round"/>
<path d="M160.557 332.399L172.238 333.56L172.68 329.015L160.999 327.854L160.557 332.399Z" fill="#263238" stroke="#263238" stroke-linecap="round" stroke-linejoin="round"/>
<path d="M159.846 326.554L165.607 327.125L164.935 334.026L159.174 333.455C158.269 333.366 157.436 332.917 156.859 332.207C156.281 331.497 156.006 330.584 156.094 329.669C156.184 328.753 156.63 327.911 157.334 327.327C158.037 326.743 158.94 326.465 159.846 326.554Z" fill="white" stroke="#263238" stroke-linecap="round" stroke-linejoin="round"/>
<path d="M171.385 329.492C172.297 328.117 173.469 326.937 174.832 326.021C176.196 325.104 177.725 324.469 179.332 324.151C180.939 323.832 182.592 323.838 184.196 324.167C185.801 324.496 187.326 325.141 188.684 326.067C189.024 326.302 189.348 326.545 189.663 326.805C191.418 328.272 192.742 330.197 193.49 332.372C194.239 334.546 194.384 336.887 193.909 339.138C193.434 341.39 192.358 343.467 190.797 345.144C189.237 346.82 187.252 348.032 185.058 348.647C182.864 349.262 180.545 349.257 178.354 348.632C176.163 348.008 174.183 346.787 172.629 345.104C171.076 343.421 170.008 341.339 169.543 339.086C169.078 336.832 169.232 334.492 169.99 332.321C170.334 331.322 170.803 330.371 171.385 329.492Z" fill="white" stroke="#263238" stroke-linecap="round" stroke-linejoin="round"/>
<path d="M157.972 342.572L173.411 330.895L175.893 334.244L160.454 345.913L157.972 342.572Z" fill="#263238" stroke="#263238" stroke-linecap="round" stroke-linejoin="round"/>
<path d="M156.369 342.395L160.611 339.146L164.38 344.183L160.138 347.399C159.472 347.903 158.635 348.119 157.812 347.999C156.988 347.879 156.246 347.434 155.747 346.761C155.269 346.094 155.066 345.265 155.182 344.45C155.299 343.635 155.724 342.898 156.369 342.395Z" fill="white" stroke="#263238" stroke-linecap="round" stroke-linejoin="round"/>
<path d="M177.909 334.496C178.105 333.634 178.044 332.732 177.733 331.905C177.421 331.079 176.874 330.364 176.161 329.852C175.447 329.34 174.6 329.054 173.725 329.03C172.851 329.006 171.989 329.245 171.249 329.717C170.509 330.189 169.925 330.873 169.57 331.681C169.215 332.49 169.105 333.387 169.255 334.259C169.404 335.13 169.807 335.937 170.41 336.577C171.014 337.217 171.792 337.662 172.646 337.854C173.784 338.11 174.976 337.9 175.962 337.271C176.948 336.642 177.648 335.645 177.909 334.496Z" fill="white" stroke="#263238" stroke-linecap="round" stroke-linejoin="round"/>
<path d="M186.094 354.306L188.385 338.289L191.78 338.776L189.497 354.793L186.094 354.306Z" fill="#263238" stroke="#263238" stroke-linecap="round" stroke-linejoin="round"/>
<path d="M185.056 355.155L185.679 350.748L190.834 351.495L190.211 355.894C190.163 356.237 190.049 356.567 189.875 356.865C189.701 357.163 189.471 357.424 189.197 357.632C188.923 357.84 188.612 357.992 188.28 358.078C187.948 358.165 187.603 358.184 187.264 358.135C186.581 358.036 185.965 357.666 185.551 357.107C185.137 356.548 184.959 355.846 185.056 355.155Z" fill="white" stroke="#263238" stroke-linecap="round" stroke-linejoin="round"/>
<path d="M193.109 337.727C192.718 337.111 192.155 336.626 191.492 336.334C190.829 336.041 190.095 335.953 189.383 336.082C188.67 336.211 188.012 336.551 187.49 337.058C186.969 337.565 186.608 338.217 186.452 338.932C186.297 339.647 186.355 340.392 186.618 341.074C186.881 341.755 187.339 342.343 187.932 342.762C188.525 343.181 189.228 343.412 189.951 343.428C190.675 343.443 191.386 343.241 191.996 342.848C192.815 342.317 193.391 341.48 193.6 340.52C193.808 339.56 193.632 338.555 193.109 337.727Z" fill="white" stroke="#263238" stroke-linecap="round" stroke-linejoin="round"/>
<path d="M170.812 352.175L181.105 335.688L184.6 337.904L174.315 354.399L170.812 352.175Z" fill="#263238" stroke="#263238" stroke-linecap="round" stroke-linejoin="round"/>
<path d="M169.261 352.577L172.075 348.044L177.395 351.402L174.573 355.943C174.129 356.654 173.425 357.158 172.615 357.345C171.804 357.532 170.954 357.387 170.248 356.942C169.546 356.495 169.048 355.784 168.863 354.966C168.678 354.148 168.821 353.289 169.261 352.577Z" fill="white" stroke="#263238" stroke-linecap="round" stroke-linejoin="round"/>
<path d="M186.593 337.417C186.47 336.543 186.093 335.725 185.509 335.068C184.926 334.411 184.163 333.944 183.317 333.726C182.471 333.508 181.58 333.549 180.757 333.844C179.934 334.139 179.216 334.674 178.694 335.382C178.173 336.091 177.871 336.939 177.827 337.821C177.783 338.703 177.999 339.578 178.448 340.336C178.896 341.093 179.557 341.699 180.347 342.076C181.136 342.453 182.019 342.585 182.882 342.454C184.034 342.282 185.071 341.655 185.766 340.711C186.462 339.767 186.759 338.582 186.593 337.417Z" fill="white" stroke="#263238" stroke-linecap="round" stroke-linejoin="round"/>
<path d="M167.523 290.665C175.326 285.586 177.579 275.072 172.557 267.182C167.534 259.291 157.138 257.012 149.336 262.091C141.534 267.171 139.28 277.685 144.303 285.575C149.325 293.465 159.721 295.744 167.523 290.665Z" fill="white" stroke="#263238" stroke-linecap="round" stroke-linejoin="round"/>
<path d="M165.839 279.818C167.714 275.684 165.92 270.795 161.832 268.899C157.744 267.003 152.911 268.817 151.036 272.951C149.161 277.085 150.954 281.974 155.042 283.87C159.13 285.766 163.964 283.952 165.839 279.818Z" fill="#263238" stroke="#263238" stroke-linecap="round" stroke-linejoin="round"/>
<path d="M124.37 242.707C139.274 242.707 151.356 230.488 151.356 215.415C151.356 200.343 139.274 188.124 124.37 188.124C109.466 188.124 97.3838 200.343 97.3838 215.415C97.3838 230.488 109.466 242.707 124.37 242.707Z" fill="white" stroke="#263238" stroke-linecap="round" stroke-linejoin="round"/>
<path d="M162.951 233.59C168.747 226.242 172.374 217.389 173.415 208.049C174.456 198.708 172.87 189.261 168.837 180.792C164.805 172.323 158.491 165.177 150.622 160.176C142.752 155.175 133.647 152.522 124.353 152.522C115.059 152.522 105.953 155.175 98.0836 160.176C90.2142 165.177 83.9002 172.323 79.868 180.792C75.8358 189.261 74.2491 198.708 75.2903 208.049C76.3316 217.389 79.9585 226.242 85.754 233.59H162.951Z" fill="white" stroke="#263238" stroke-linecap="round" stroke-linejoin="round"/>
<path d="M154.569 183.608H92.9268C89.1767 183.608 86.1367 186.683 86.1367 190.475V212.57C86.1367 216.363 89.1767 219.437 92.9268 219.437H154.569C158.319 219.437 161.359 216.363 161.359 212.57V190.475C161.359 186.683 158.319 183.608 154.569 183.608Z" fill="white" stroke="#263238" stroke-linecap="round" stroke-linejoin="round"/>
<path d="M94.2715 200.07C95.0867 197.761 96.5725 195.756 98.5342 194.316C100.496 192.877 102.842 192.07 105.265 192.002C107.687 191.934 110.074 192.607 112.112 193.935C114.149 195.262 115.743 197.181 116.684 199.44" stroke="#263238" stroke-width="5" stroke-linecap="round" stroke-linejoin="round"/>
<path d="M131.45 200.07C132.265 197.761 133.751 195.756 135.713 194.316C137.675 192.877 140.02 192.07 142.443 192.002C144.866 191.934 147.253 192.607 149.29 193.935C151.328 195.262 152.922 197.181 153.862 199.44" stroke="#263238" stroke-width="5" stroke-linecap="round" stroke-linejoin="round"/>
<path d="M117.862 208.372C118.071 210.037 118.872 211.567 120.117 212.677C121.362 213.786 122.964 214.399 124.623 214.399C126.283 214.399 127.885 213.786 129.129 212.677C130.374 211.567 131.176 210.037 131.384 208.372H117.862Z" fill="white" stroke="#263238" stroke-linecap="round" stroke-linejoin="round"/>
<path d="M188.252 211.209C186.883 211.209 185.569 210.659 184.601 209.68C183.633 208.7 183.089 207.372 183.089 205.987V194.109C183.088 193.422 183.221 192.743 183.48 192.108C183.738 191.474 184.119 190.897 184.598 190.411C185.078 189.925 185.647 189.54 186.274 189.277C186.901 189.014 187.573 188.879 188.252 188.879C188.931 188.878 189.603 189.012 190.23 189.274C190.858 189.536 191.428 189.92 191.908 190.405C192.389 190.89 192.77 191.466 193.03 192.1C193.29 192.734 193.423 193.414 193.423 194.1V205.979C193.424 206.666 193.291 207.347 193.032 207.982C192.772 208.617 192.392 209.194 191.911 209.68C191.431 210.166 190.86 210.551 190.232 210.813C189.604 211.076 188.931 211.21 188.252 211.209Z" fill="#263238" stroke="#263238" stroke-linecap="round" stroke-linejoin="round"/>
<path d="M59.0757 211.209C58.397 211.21 57.7247 211.076 57.0973 210.814C56.4699 210.552 55.8998 210.168 55.4195 209.683C54.9392 209.198 54.5581 208.622 54.2981 207.988C54.0381 207.354 53.9043 206.674 53.9043 205.987V194.109C53.9032 193.422 54.0362 192.741 54.2957 192.106C54.5552 191.471 54.9361 190.894 55.4165 190.408C55.897 189.922 56.4675 189.537 57.0954 189.275C57.7233 189.012 58.3963 188.878 59.0757 188.879C59.7537 188.879 60.4251 189.014 61.0515 189.276C61.678 189.539 62.2471 189.923 62.7266 190.408C63.206 190.893 63.5863 191.469 63.8458 192.102C64.1053 192.736 64.2388 193.415 64.2388 194.1V205.979C64.2399 206.665 64.1071 207.345 63.8482 207.98C63.5892 208.614 63.2091 209.191 62.7295 209.677C62.25 210.162 61.6804 210.548 61.0535 210.811C60.4265 211.074 59.7544 211.209 59.0757 211.209Z" fill="#263238" stroke="#263238" stroke-linecap="round" stroke-linejoin="round"/>
<path d="M75.627 157.609C71.06 164.434 68.6251 172.488 68.6377 180.729V189.358" stroke="#263238" stroke-width="14" stroke-linecap="round" stroke-linejoin="round"/>
<path d="M173.644 157.643C169.906 152.011 164.856 147.397 158.938 144.207C153.02 141.017 146.416 139.349 139.71 139.351H109.537C102.84 139.346 96.2445 141.006 90.3314 144.186C84.4184 147.366 79.369 151.967 75.6279 157.584" stroke="#263238" stroke-width="7" stroke-linecap="round" stroke-linejoin="round"/>
<path d="M180.6 189.358V180.728C180.612 172.503 178.19 164.463 173.644 157.643" stroke="#263238" stroke-width="14" stroke-linecap="round" stroke-linejoin="round"/>
<path d="M72.7559 180.064H65.833C61.8263 180.064 58.5781 183.349 58.5781 187.401V211.654C58.5781 215.706 61.8263 218.991 65.833 218.991H72.7559C76.7627 218.991 80.0108 215.706 80.0108 211.654V187.401C80.0108 183.349 76.7627 180.064 72.7559 180.064Z" fill="white" stroke="#263238" stroke-linecap="round" stroke-linejoin="round"/>
<path d="M70.3892 180.064H68.2061V218.991H70.3892V180.064Z" fill="white" stroke="#263238" stroke-linecap="round" stroke-linejoin="round"/>
<path d="M182.094 180.064H175.171C171.164 180.064 167.916 183.349 167.916 187.401V211.654C167.916 215.706 171.164 218.991 175.171 218.991H182.094C186.101 218.991 189.349 215.706 189.349 211.654V187.401C189.349 183.349 186.101 180.064 182.094 180.064Z" fill="white" stroke="#263238" stroke-linecap="round" stroke-linejoin="round"/>
<path d="M179.727 180.064H177.544V218.991H179.727V180.064Z" fill="white" stroke="#263238" stroke-linecap="round" stroke-linejoin="round"/>
<path d="M124.544 176.531C128.325 176.532 132.047 175.576 135.369 173.748C138.69 171.921 141.507 169.282 143.561 166.071L148.243 158.743C140.824 154.6 132.476 152.458 124.001 152.524C115.527 152.59 107.212 154.862 99.8574 159.121L106.905 167.969C109.025 170.639 111.71 172.794 114.763 174.276C117.815 175.758 121.158 176.529 124.544 176.531Z" fill="white" stroke="#263238" stroke-linecap="round" stroke-linejoin="round"/>
<path d="M125.714 223.063C125.714 222.897 125.665 222.735 125.574 222.597C125.483 222.459 125.353 222.351 125.201 222.288C125.05 222.224 124.883 222.207 124.722 222.24C124.561 222.272 124.413 222.352 124.297 222.469C124.181 222.587 124.102 222.736 124.07 222.899C124.038 223.062 124.054 223.231 124.117 223.384C124.18 223.538 124.286 223.669 124.423 223.761C124.559 223.853 124.72 223.903 124.884 223.903C125.104 223.903 125.315 223.814 125.471 223.657C125.626 223.499 125.714 223.286 125.714 223.063Z" fill="#263238"/>
<path d="M125.714 225.883C125.714 225.717 125.665 225.555 125.574 225.417C125.483 225.279 125.353 225.171 125.201 225.108C125.05 225.044 124.883 225.028 124.722 225.06C124.561 225.092 124.413 225.172 124.297 225.29C124.181 225.407 124.102 225.557 124.07 225.72C124.038 225.882 124.054 226.051 124.117 226.205C124.18 226.358 124.286 226.489 124.423 226.581C124.559 226.674 124.72 226.723 124.884 226.723C125.104 226.723 125.315 226.634 125.471 226.477C125.626 226.32 125.714 226.106 125.714 225.883Z" fill="#263238"/>
<path d="M122.552 225.448C122.703 225.349 122.819 225.203 122.881 225.031C122.943 224.86 122.948 224.673 122.896 224.498C122.843 224.324 122.736 224.171 122.59 224.064C122.444 223.957 122.267 223.9 122.087 223.903C121.935 224.002 121.82 224.149 121.758 224.32C121.696 224.491 121.69 224.679 121.743 224.853C121.796 225.028 121.903 225.18 122.049 225.288C122.195 225.395 122.371 225.451 122.552 225.448Z" fill="#263238"/>
<path d="M127.54 225.447C127.668 225.445 127.795 225.413 127.909 225.353C128.022 225.293 128.121 225.207 128.197 225.102C128.272 224.997 128.323 224.875 128.344 224.747C128.365 224.619 128.357 224.488 128.32 224.364C128.282 224.239 128.217 224.126 128.128 224.031C128.04 223.937 127.931 223.864 127.811 223.82C127.69 223.775 127.561 223.759 127.433 223.774C127.306 223.788 127.183 223.832 127.075 223.903C126.947 223.905 126.821 223.937 126.707 223.997C126.593 224.057 126.494 224.143 126.419 224.248C126.343 224.353 126.293 224.475 126.271 224.603C126.25 224.731 126.258 224.862 126.296 224.987C126.333 225.111 126.399 225.225 126.487 225.319C126.575 225.413 126.684 225.486 126.804 225.53C126.925 225.575 127.054 225.591 127.182 225.576C127.31 225.562 127.432 225.518 127.54 225.447Z" fill="#263238"/>
<path d="M157.54 254.561C146.973 252.152 124.096 251.287 124.096 251.287C118.584 251.463 103.244 252.127 92.677 254.569C90.6765 255.029 88.9359 256.268 87.8326 258.017C86.7293 259.766 86.3523 261.884 86.7835 263.913L96.5701 310.218C97.0509 312.464 98.2761 314.475 100.043 315.92C101.809 317.364 104.01 318.154 106.282 318.16H144.009C146.281 318.154 148.482 317.364 150.249 315.92C152.015 314.475 153.24 312.464 153.721 310.218L163.499 263.913C163.929 261.874 163.543 259.746 162.426 257.994C161.31 256.242 159.553 255.008 157.54 254.561Z" fill="white" stroke="#263238" stroke-linecap="round" stroke-linejoin="round"/>
<path d="M152.726 253.671C141.262 251.942 124.121 251.287 124.121 251.287C115.728 251.53 107.354 252.231 99.0361 253.386L110.126 318.16H140.266L152.726 253.671Z" fill="white" stroke="#263238" stroke-linecap="round" stroke-linejoin="round"/>
<path d="M134.016 265.365H115.654C111.904 265.365 108.864 268.44 108.864 272.232V281.299C108.864 285.091 111.904 288.165 115.654 288.165H134.016C137.766 288.165 140.806 285.091 140.806 281.299V272.232C140.806 268.44 137.766 265.365 134.016 265.365Z" fill="white" stroke="#263238" stroke-linecap="round" stroke-linejoin="round"/>
<path d="M119.472 274.758H114.301V279.988H119.472V274.758Z" fill="white" stroke="#263238" stroke-linecap="round" stroke-linejoin="round"/>
<path d="M127.417 274.758H122.245V279.988H127.417V274.758Z" fill="white" stroke="#263238" stroke-linecap="round" stroke-linejoin="round"/>
<path d="M135.368 274.758H130.196V279.988H135.368V274.758Z" fill="white" stroke="#263238" stroke-linecap="round" stroke-linejoin="round"/>
<path d="M52.1699 303.52H144.176C145.277 303.52 146.332 303.962 147.111 304.749C147.889 305.536 148.326 306.604 148.326 307.717V359.991H48.0195V307.717C48.0195 306.604 48.4568 305.536 49.2352 304.749C50.0135 303.962 51.0692 303.52 52.1699 303.52Z" fill="white" stroke="#263238" stroke-linecap="round" stroke-linejoin="round"/>
<path d="M148.326 322.308C135.726 325.54 122.793 333.766 98.6959 345.351C75.4537 356.533 56.4282 356.34 48.0195 355.475V359.992H148.326V322.308Z" fill="#263238" stroke="#263238" stroke-linecap="round" stroke-linejoin="round"/>
<path d="M148.326 356.86H48.0195V360H148.326V356.86Z" fill="white" stroke="#263238" stroke-linecap="round" stroke-linejoin="round"/>
<path d="M103.345 331.759C103.345 332.794 103.041 333.805 102.473 334.665C101.905 335.525 101.097 336.195 100.152 336.591C99.2074 336.987 98.1676 337.09 97.1645 336.889C96.1613 336.687 95.2399 336.189 94.5166 335.457C93.7934 334.726 93.3009 333.794 93.1013 332.78C92.9018 331.765 93.0042 330.713 93.3956 329.758C93.787 328.802 94.4499 327.985 95.3003 327.411C96.1507 326.836 97.1505 326.529 98.1734 326.529C99.5449 326.529 100.86 327.08 101.83 328.061C102.8 329.042 103.345 330.372 103.345 331.759Z" fill="white" stroke="#263238" stroke-linecap="round" stroke-linejoin="round"/>
</svg>
