<svg width="420" height="360" viewBox="0 0 420 360" fill="none" xmlns="http://www.w3.org/2000/svg">
<path d="M373.739 61.5818C373.739 61.5818 351.096 8.85038 301.057 1.04056C251.017 -6.76926 216.068 31.3112 179.289 50.8862C160.014 61.1076 137.991 57.1421 117.524 62.0863C52.0876 77.9179 27.4369 177.115 54.6965 233.509C78.3234 282.345 119.828 307.732 183.069 313.595C246.311 319.457 290.671 326.288 347.306 278.441C403.942 230.593 400.162 130.962 373.739 61.5818Z" fill="white"/>
<path opacity="0.7" d="M373.739 61.5818C373.739 61.5818 351.096 8.85038 301.057 1.04056C251.017 -6.76926 216.068 31.3112 179.289 50.8862C160.014 61.1076 137.991 57.1421 117.524 62.0863C52.0876 77.9179 27.4369 177.115 54.6965 233.509C78.3234 282.345 119.828 307.732 183.069 313.595C246.311 319.457 290.671 326.288 347.306 278.441C403.942 230.593 400.162 130.962 373.739 61.5818Z" fill="white"/>
<path d="M222.595 360C313.246 360 386.734 354.958 386.734 348.739C386.734 342.52 313.246 337.479 222.595 337.479C131.944 337.479 58.457 342.52 58.457 348.739C58.457 354.958 131.944 360 222.595 360Z" fill="white"/>
<path opacity="0.5" d="M222.595 360C313.246 360 386.734 354.958 386.734 348.739C386.734 342.52 313.246 337.479 222.595 337.479C131.944 337.479 58.457 342.52 58.457 348.739C58.457 354.958 131.944 360 222.595 360Z" fill="white"/>
<path d="M102.855 231.098C99.0454 236.879 93.7491 244.397 90.9237 250.42C92.0066 246.445 93.0501 242.691 94.0149 239.321C95.462 236.415 99.3309 229.049 103.8 224.186C109.481 217.96 111.912 213.954 108.851 213.601C106.734 213.369 100.532 221.835 96.6434 230.24C97.49 227.364 98.1594 225.195 98.6123 223.883C98.7993 223.308 98.9765 222.662 99.1537 221.986C103.149 216.185 106.779 210.129 110.022 203.854C115.762 192.866 117.612 182.493 113.783 186.953C110.258 191.06 104.125 211.472 99.262 221.088C99.6657 219.433 100.059 217.597 100.404 215.801C101.093 214.045 101.999 212.269 102.511 210.665C103.308 208.183 104.007 205.62 104.568 203.128C105.503 199.163 105.972 195.098 105.966 191.019C106.065 186.229 104.792 181.515 102.304 177.458C101.644 176.449 97.618 170.264 96.3973 173.422C96.235 173.944 96.2046 174.499 96.3087 175.037C96.8895 180.294 98.7501 185.127 99.9019 190.242C101.625 197.901 100.483 210.766 99.9019 216.235C99.6755 217.093 99.3999 218.172 99.075 219.413C99.8822 209.888 95.846 198.597 92.1149 196.619C87.4978 194.178 92.0263 203.763 95.59 212.128C97.2819 215.792 98.076 219.824 97.9035 223.873C97.175 226.628 96.3382 229.715 95.4719 232.843C95.3045 233.277 95.1372 233.701 94.9895 234.125C95.3803 232.085 95.5422 230.007 95.4719 227.929C95.1273 222.461 89.0828 211.503 85.076 213.056C81.0693 214.61 87.8522 220.372 91.4848 227.092C93.3678 230.805 94.0831 235.024 93.5325 239.17C93.5325 239.412 93.4537 239.654 93.4242 239.896C93.0107 241.319 92.5973 242.701 92.1936 244.003C91.2092 247.03 90.3724 249.936 89.5356 252.741C90.5624 248.675 91.0165 244.478 90.8843 240.28C90.3724 232.258 85.7947 224.69 82.0242 223.661C78.2537 222.632 85.46 235.699 87.9309 243.045C89.2197 247.35 89.4096 251.922 88.4822 256.323C87.3206 260.299 86.2081 264.214 85.076 268.371C85.396 262.939 85.284 257.489 84.7413 252.075C84.003 243.156 78.8346 237.455 75.261 237.697C71.6874 237.939 75.4185 242.994 80.5672 253.841C83.2716 259.536 84.4764 265.856 84.062 272.175C83.5993 273.931 83.0776 275.727 82.6444 277.604C82.103 279.743 81.66 282.063 81.276 284.455C80.7543 282.326 79.9864 279.218 79.0905 275.787C78.0472 271.991 77.2903 268.119 76.8263 264.204C76.3439 259.663 75.1822 253.982 70.8309 251.621C70.5357 251.408 70.1985 251.265 69.843 251.2C69.4876 251.136 69.1226 251.152 68.7741 251.249C68.4256 251.345 68.102 251.519 67.8263 251.757C67.5505 251.996 67.3294 252.294 67.1786 252.63C66.7701 253.604 66.6769 254.686 66.9128 255.718C67.4894 258.81 68.4834 261.806 69.8662 264.617C69.0093 266.297 68.6178 268.185 68.734 270.076C68.734 270.793 68.803 271.499 68.8423 272.195C68.4584 271.479 68.0942 270.813 67.7496 270.177C67.1221 269.112 66.346 268.147 65.446 267.312C65.6738 265.64 65.7856 263.954 65.7807 262.266C65.7807 260.047 63.2506 254.416 60.9667 258.594C60.061 260.258 60.2382 263.548 60.1496 265.727C59.5196 266.323 59.3325 267.554 59.8543 269.501C59.3358 274.556 59.595 279.664 60.6221 284.636L59.8444 283.224C58.7258 277.388 58.0674 271.47 57.8755 265.526C57.59 255.718 59.1258 247.656 56.5071 244.639C53.8885 241.622 52.4512 252.257 53.5537 263.81C54.0821 269.107 55.4591 274.279 57.6294 279.117C55.0698 274.405 52.5398 269.602 50.1475 264.991C49.1631 262.509 46.7216 255.829 47.3221 249.048C48.0802 240.492 48.6315 233.499 45.4615 228.686C42.2916 223.873 41.632 226.991 43.1874 237.031C44.2506 243.912 45.3926 253.115 47.3418 259.502C45.4812 255.839 43.7387 252.358 42.1833 249.2C41.3071 246.062 39.2299 237.979 39.2299 231.259C39.2299 222.733 38.3341 218.142 35.8729 219.988C34.16 221.3 35.2626 231.824 38.0289 240.694C36.7294 237.999 35.7548 235.931 35.1936 234.71C34.9475 234.155 34.6522 233.56 34.3273 232.934C33.4432 225.911 32.128 218.952 30.3895 212.098C27.2589 200.04 21.7066 191.171 21.874 197.104C22.0413 202.573 31.1475 221.784 33.9926 232.218C33.1854 230.724 32.2501 229.11 31.305 227.546C30.6455 225.79 30.1237 223.863 29.4247 222.319C28.3615 219.958 27.1999 217.627 25.9201 215.377C23.9522 211.822 21.5831 208.517 18.8615 205.529C15.7413 201.959 11.6683 199.405 7.1465 198.183C5.98484 197.901 -1.06386 196.165 0.137177 199.394C0.359683 199.888 0.69787 200.318 1.12163 200.645C5.05946 204.076 9.62733 206.306 13.9196 209.242C20.2791 213.632 28.0071 223.833 31.1968 228.262C31.6102 229.039 32.1221 230.028 32.7128 231.158C26.9538 223.631 16.4988 218.192 12.4527 219.363C7.45168 220.816 17.1486 224.65 25.3196 228.272C28.9973 229.766 32.2624 232.16 34.8294 235.245C36.1289 237.757 37.576 240.603 39.0232 243.499L39.5253 244.77C38.4521 243.005 37.1836 241.373 35.7449 239.906C31.8268 236.082 20.161 232.309 18.1921 236.244C16.2232 240.179 25.0833 239.654 32.2304 242.015C36.0893 243.392 39.4385 245.957 41.819 249.361L42.2227 249.977C42.8724 251.308 43.4926 252.61 44.0636 253.841C45.4123 256.727 46.6822 259.451 47.9424 262.085C45.9888 258.377 43.5218 254.978 40.618 251.995C34.9278 246.526 26.5107 244.215 23.0455 246.112C19.5802 248.009 33.5693 252.509 40.2341 256.202C44.0471 258.407 47.2463 261.575 49.5273 265.404C51.319 269.128 53.1206 272.76 55.06 276.594C51.679 272.399 47.9683 268.494 43.9651 264.92C37.4874 258.866 29.9071 258.372 27.4657 261.025C25.0242 263.679 31.0983 264.799 42.0651 269.097C47.8355 271.368 52.9262 275.145 56.832 280.055C57.6589 281.66 58.5154 283.304 59.4113 285.01C60.3957 286.957 61.646 288.975 62.9651 290.983C61.1734 289.792 58.5449 288.057 55.6014 286.17C52.3132 284.126 49.1833 281.825 46.2392 279.289C42.8527 276.262 38.2258 272.972 33.4413 274.243C33.0855 274.298 32.7457 274.432 32.4458 274.635C32.1458 274.839 31.8931 275.108 31.7054 275.422C31.5177 275.737 31.3996 276.09 31.3593 276.456C31.319 276.822 31.3577 277.193 31.4724 277.543C31.8232 278.536 32.4752 279.389 33.333 279.975C37.8221 283.547 43.8569 285.262 49.0843 287.371C53.8769 289.297 58.7866 290.901 63.7822 292.174C65.0227 294 66.3221 295.806 67.6118 297.522L65.2688 297.592C62.4926 297.673 49.9703 291.861 43.6107 289.984C37.2512 288.107 31.305 291.659 37.9698 295.332C44.6346 299.005 62.7584 298.188 62.7584 298.188L67.9957 298.026C69.2164 299.641 70.4273 301.174 71.5594 302.567H46.7413V309.63H51.6636L55.6014 334.744H88.6201L92.5579 309.63H97.4802V302.567H81.0594C80.9256 299.517 81.0078 296.462 81.3056 293.425C82.3976 292.279 83.613 291.263 84.9283 290.398C92.1543 285.282 104.411 284.858 107.659 275.01C108.447 272.629 107.561 269.592 104.785 269.723C102.816 269.814 100.68 271.6 99.4392 273.073C95.3045 277.967 92.1936 283.042 86.8185 286.745C86.5822 286.917 83.1859 289.681 81.5123 291.397C81.6895 289.792 81.9258 288.077 82.2309 286.241C83.5274 283.876 85.0124 281.625 86.6708 279.511C91.0615 273.91 97.7558 270.631 102.511 265.293C103.968 263.659 105.887 257.786 101.438 259.239C99.4688 259.885 97.1258 262.953 95.5309 264.365C91.16 268.401 86.6708 272.7 83.8159 278.007C83.9439 277.482 84.062 276.998 84.19 276.433C87.2528 271.382 90.7097 266.594 94.5268 262.115C100.847 254.739 107.325 249.926 107.433 245.89C107.541 241.854 99.39 248.614 92.4693 257.857C89.3298 262.097 86.895 266.839 85.2631 271.892C86.533 266.656 87.8817 261.378 89.2009 256.313C90.1066 253.791 92.7942 247.232 97.7558 242.681C103.997 236.96 109.057 232.238 109.953 226.537C110.849 220.836 108.349 222.672 102.855 231.098ZM67.8382 295.998C66.8537 294.696 65.9284 293.274 64.8848 291.72C64.257 289.085 63.8421 286.402 63.6444 283.698C63.5096 281.383 63.6119 279.059 63.9496 276.766C65.6297 278.899 67.4139 280.943 69.2952 282.891C69.2546 284.908 69.0138 286.917 68.5765 288.884C68.5568 289.177 67.9268 293.566 67.8382 295.998ZM73.1936 302.637C71.9237 301.255 70.5356 299.61 69.0294 297.592C69.0728 295.995 69.2908 294.407 69.6791 292.86C70.2698 290.411 71.1354 288.041 72.2584 285.797C74.5817 288.077 76.275 289.621 76.275 289.621L80.2128 293.163C79.8978 296.684 79.7206 299.984 79.6123 302.668L73.1936 302.637ZM80.2916 292.547L78.5294 290.953C77.5449 290.045 75.7631 286.533 73.8335 282.497C74.6615 280.792 75.3945 279.04 76.0289 277.25C78.1061 281.216 79.9667 284.313 81.0496 285.958C80.7346 288.107 80.4885 290.327 80.2916 292.497V292.547Z" fill="white"/>
<path opacity="0.5" d="M102.855 231.098C99.0454 236.879 93.7491 244.397 90.9237 250.42C92.0066 246.445 93.0501 242.691 94.0149 239.321C95.462 236.415 99.3309 229.049 103.8 224.186C109.481 217.96 111.912 213.954 108.851 213.601C106.734 213.369 100.532 221.835 96.6434 230.24C97.49 227.364 98.1594 225.195 98.6123 223.883C98.7993 223.308 98.9765 222.662 99.1537 221.986C103.149 216.185 106.779 210.129 110.022 203.854C115.762 192.866 117.612 182.493 113.783 186.953C110.258 191.06 104.125 211.472 99.262 221.088C99.6657 219.433 100.059 217.597 100.404 215.801C101.093 214.045 101.999 212.269 102.511 210.665C103.308 208.183 104.007 205.62 104.568 203.128C105.503 199.163 105.972 195.098 105.966 191.019C106.065 186.229 104.792 181.515 102.304 177.458C101.644 176.449 97.618 170.264 96.3973 173.422C96.235 173.944 96.2046 174.499 96.3087 175.037C96.8895 180.294 98.7501 185.127 99.9019 190.242C101.625 197.901 100.483 210.766 99.9019 216.235C99.6755 217.093 99.3999 218.172 99.075 219.413C99.8822 209.888 95.846 198.597 92.1149 196.619C87.4978 194.178 92.0263 203.763 95.59 212.128C97.2819 215.792 98.076 219.824 97.9035 223.873C97.175 226.628 96.3382 229.715 95.4719 232.843C95.3045 233.277 95.1372 233.701 94.9895 234.125C95.3803 232.085 95.5422 230.007 95.4719 227.929C95.1273 222.461 89.0828 211.503 85.076 213.056C81.0693 214.61 87.8522 220.372 91.4848 227.092C93.3678 230.805 94.0831 235.024 93.5325 239.17C93.5325 239.412 93.4537 239.654 93.4242 239.896C93.0107 241.319 92.5973 242.701 92.1936 244.003C91.2092 247.03 90.3724 249.936 89.5356 252.741C90.5624 248.675 91.0165 244.478 90.8843 240.28C90.3724 232.258 85.7947 224.69 82.0242 223.661C78.2537 222.632 85.46 235.699 87.9309 243.045C89.2197 247.35 89.4096 251.922 88.4822 256.323C87.3206 260.299 86.2081 264.214 85.076 268.371C85.396 262.939 85.284 257.489 84.7413 252.075C84.003 243.156 78.8346 237.455 75.261 237.697C71.6874 237.939 75.4185 242.994 80.5672 253.841C83.2716 259.536 84.4764 265.856 84.062 272.175C83.5993 273.931 83.0776 275.727 82.6444 277.604C82.103 279.743 81.66 282.063 81.276 284.455C80.7543 282.326 79.9864 279.218 79.0905 275.787C78.0472 271.991 77.2903 268.119 76.8263 264.204C76.3439 259.663 75.1822 253.982 70.8309 251.621C70.5357 251.408 70.1985 251.265 69.843 251.2C69.4876 251.136 69.1226 251.152 68.7741 251.249C68.4256 251.345 68.102 251.519 67.8263 251.757C67.5505 251.996 67.3294 252.294 67.1786 252.63C66.7701 253.604 66.6769 254.686 66.9128 255.718C67.4894 258.81 68.4834 261.806 69.8662 264.617C69.0093 266.297 68.6178 268.185 68.734 270.076C68.734 270.793 68.803 271.499 68.8423 272.195C68.4584 271.479 68.0942 270.813 67.7496 270.177C67.1221 269.112 66.346 268.147 65.446 267.312C65.6738 265.64 65.7856 263.954 65.7807 262.266C65.7807 260.047 63.2506 254.416 60.9667 258.594C60.061 260.258 60.2382 263.548 60.1496 265.727C59.5196 266.323 59.3325 267.554 59.8543 269.501C59.3358 274.556 59.595 279.664 60.6221 284.636L59.8444 283.224C58.7258 277.388 58.0674 271.47 57.8755 265.526C57.59 255.718 59.1258 247.656 56.5071 244.639C53.8885 241.622 52.4512 252.257 53.5537 263.81C54.0821 269.107 55.4591 274.279 57.6294 279.117C55.0698 274.405 52.5398 269.602 50.1475 264.991C49.1631 262.509 46.7216 255.829 47.3221 249.048C48.0802 240.492 48.6315 233.499 45.4615 228.686C42.2916 223.873 41.632 226.991 43.1874 237.031C44.2506 243.912 45.3926 253.115 47.3418 259.502C45.4812 255.839 43.7387 252.358 42.1833 249.2C41.3071 246.062 39.2299 237.979 39.2299 231.259C39.2299 222.733 38.3341 218.142 35.8729 219.988C34.16 221.3 35.2626 231.824 38.0289 240.694C36.7294 237.999 35.7548 235.931 35.1936 234.71C34.9475 234.155 34.6522 233.56 34.3273 232.934C33.4432 225.911 32.128 218.952 30.3895 212.098C27.2589 200.04 21.7066 191.171 21.874 197.104C22.0413 202.573 31.1475 221.784 33.9926 232.218C33.1854 230.724 32.2501 229.11 31.305 227.546C30.6455 225.79 30.1237 223.863 29.4247 222.319C28.3615 219.958 27.1999 217.627 25.9201 215.377C23.9522 211.822 21.5831 208.517 18.8615 205.529C15.7413 201.959 11.6683 199.405 7.1465 198.183C5.98484 197.901 -1.06386 196.165 0.137177 199.394C0.359683 199.888 0.69787 200.318 1.12163 200.645C5.05946 204.076 9.62733 206.306 13.9196 209.242C20.2791 213.632 28.0071 223.833 31.1968 228.262C31.6102 229.039 32.1221 230.028 32.7128 231.158C26.9538 223.631 16.4988 218.192 12.4527 219.363C7.45168 220.816 17.1486 224.65 25.3196 228.272C28.9973 229.766 32.2624 232.16 34.8294 235.245C36.1289 237.757 37.576 240.603 39.0232 243.499L39.5253 244.77C38.4521 243.005 37.1836 241.373 35.7449 239.906C31.8268 236.082 20.161 232.309 18.1921 236.244C16.2232 240.179 25.0833 239.654 32.2304 242.015C36.0893 243.392 39.4385 245.957 41.819 249.361L42.2227 249.977C42.8724 251.308 43.4926 252.61 44.0636 253.841C45.4123 256.727 46.6822 259.451 47.9424 262.085C45.9888 258.377 43.5218 254.978 40.618 251.995C34.9278 246.526 26.5107 244.215 23.0455 246.112C19.5802 248.009 33.5693 252.509 40.2341 256.202C44.0471 258.407 47.2463 261.575 49.5273 265.404C51.319 269.128 53.1206 272.76 55.06 276.594C51.679 272.399 47.9683 268.494 43.9651 264.92C37.4874 258.866 29.9071 258.372 27.4657 261.025C25.0242 263.679 31.0983 264.799 42.0651 269.097C47.8355 271.368 52.9262 275.145 56.832 280.055C57.6589 281.66 58.5154 283.304 59.4113 285.01C60.3957 286.957 61.646 288.975 62.9651 290.983C61.1734 289.792 58.5449 288.057 55.6014 286.17C52.3132 284.126 49.1833 281.825 46.2392 279.289C42.8527 276.262 38.2258 272.972 33.4413 274.243C33.0855 274.298 32.7457 274.432 32.4458 274.635C32.1458 274.839 31.8931 275.108 31.7054 275.422C31.5177 275.737 31.3996 276.09 31.3593 276.456C31.319 276.822 31.3577 277.193 31.4724 277.543C31.8232 278.536 32.4752 279.389 33.333 279.975C37.8221 283.547 43.8569 285.262 49.0843 287.371C53.8769 289.297 58.7866 290.901 63.7822 292.174C65.0227 294 66.3221 295.806 67.6118 297.522L65.2688 297.592C62.4926 297.673 49.9703 291.861 43.6107 289.984C37.2512 288.107 31.305 291.659 37.9698 295.332C44.6346 299.005 62.7584 298.188 62.7584 298.188L67.9957 298.026C69.2164 299.641 70.4273 301.174 71.5594 302.567H46.7413V309.63H51.6636L55.6014 334.744H88.6201L92.5579 309.63H97.4802V302.567H81.0594C80.9256 299.517 81.0078 296.462 81.3056 293.425C82.3976 292.279 83.613 291.263 84.9283 290.398C92.1543 285.282 104.411 284.858 107.659 275.01C108.447 272.629 107.561 269.592 104.785 269.723C102.816 269.814 100.68 271.6 99.4392 273.073C95.3045 277.967 92.1936 283.042 86.8185 286.745C86.5822 286.917 83.1859 289.681 81.5123 291.397C81.6895 289.792 81.9258 288.077 82.2309 286.241C83.5274 283.876 85.0124 281.625 86.6708 279.511C91.0615 273.91 97.7558 270.631 102.511 265.293C103.968 263.659 105.887 257.786 101.438 259.239C99.4688 259.885 97.1258 262.953 95.5309 264.365C91.16 268.401 86.6708 272.7 83.8159 278.007C83.9439 277.482 84.062 276.998 84.19 276.433C87.2528 271.382 90.7097 266.594 94.5268 262.115C100.847 254.739 107.325 249.926 107.433 245.89C107.541 241.854 99.39 248.614 92.4693 257.857C89.3298 262.097 86.895 266.839 85.2631 271.892C86.533 266.656 87.8817 261.378 89.2009 256.313C90.1066 253.791 92.7942 247.232 97.7558 242.681C103.997 236.96 109.057 232.238 109.953 226.537C110.849 220.836 108.349 222.672 102.855 231.098ZM67.8382 295.998C66.8537 294.696 65.9284 293.274 64.8848 291.72C64.257 289.085 63.8421 286.402 63.6444 283.698C63.5096 281.383 63.6119 279.059 63.9496 276.766C65.6297 278.899 67.4139 280.943 69.2952 282.891C69.2546 284.908 69.0138 286.917 68.5765 288.884C68.5568 289.177 67.9268 293.566 67.8382 295.998ZM73.1936 302.637C71.9237 301.255 70.5356 299.61 69.0294 297.592C69.0728 295.995 69.2908 294.407 69.6791 292.86C70.2698 290.411 71.1354 288.041 72.2584 285.797C74.5817 288.077 76.275 289.621 76.275 289.621L80.2128 293.163C79.8978 296.684 79.7206 299.984 79.6123 302.668L73.1936 302.637ZM80.2916 292.547L78.5294 290.953C77.5449 290.045 75.7631 286.533 73.8335 282.497C74.6615 280.792 75.3945 279.04 76.0289 277.25C78.1061 281.216 79.9667 284.313 81.0496 285.958C80.7346 288.107 80.4885 290.327 80.2916 292.497V292.547Z" fill="white"/>
<path d="M317.172 231.098C320.982 236.879 326.279 244.397 329.104 250.42C328.021 246.445 326.978 242.691 326.013 239.321C324.566 236.415 320.697 229.049 316.217 224.186C310.537 217.96 308.115 213.954 311.167 213.601C313.294 213.369 319.496 221.835 323.374 230.24C322.528 227.364 321.868 225.195 321.465 223.883C321.278 223.308 321.1 222.662 320.913 221.986C316.892 216.185 313.232 210.129 309.956 203.854C304.217 192.866 302.366 182.493 306.196 186.953C309.71 191.06 315.843 211.472 320.716 221.088C320.303 219.433 319.919 217.597 319.565 215.801C318.875 214.045 317.98 212.269 317.458 210.665C316.67 208.183 315.961 205.62 315.4 203.128C314.475 199.161 314.006 195.098 314.002 191.019C313.907 186.228 315.184 181.514 317.674 177.458C318.334 176.449 322.36 170.264 323.581 173.422C323.738 173.945 323.769 174.499 323.67 175.037C323.089 180.294 321.218 185.127 320.077 190.242C318.354 197.901 319.496 210.766 320.077 216.235C320.303 217.093 320.579 218.172 320.903 219.413C320.096 209.888 324.123 198.597 327.854 196.619C332.471 194.178 327.942 203.763 324.388 212.128C322.697 215.792 321.902 219.824 322.075 223.873C322.803 226.628 323.63 229.715 324.507 232.843C324.674 233.277 324.831 233.701 324.989 234.125C324.593 232.086 324.431 230.007 324.507 227.929C324.851 222.461 330.896 211.503 334.902 213.056C338.909 214.61 332.126 220.372 328.484 227.092C326.603 230.805 325.891 235.025 326.446 239.17C326.446 239.412 326.515 239.654 326.554 239.896C326.968 241.319 327.381 242.701 327.785 244.003C328.72 247.03 329.596 249.936 330.443 252.741C329.407 248.676 328.953 244.479 329.094 240.28C329.596 232.258 334.184 224.69 337.954 223.661C341.725 222.632 334.518 235.699 332.047 243.045C330.729 247.335 330.508 251.9 331.408 256.303C332.569 260.279 333.682 264.194 334.804 268.351C334.493 262.918 334.608 257.469 335.149 252.055C335.887 243.135 341.055 237.434 344.619 237.677C348.183 237.919 344.471 242.974 339.323 253.821C336.615 259.514 335.407 265.835 335.818 272.155C336.291 273.91 336.753 275.707 337.236 277.583C337.787 279.722 338.22 282.043 338.614 284.435C339.126 282.306 339.903 279.198 340.799 275.767C341.839 271.971 342.593 268.098 343.054 264.184C343.546 259.643 344.708 253.962 349.059 251.601C349.354 251.388 349.691 251.244 350.047 251.18C350.402 251.116 350.767 251.132 351.116 251.228C351.464 251.325 351.788 251.498 352.064 251.737C352.339 251.976 352.56 252.274 352.711 252.61C353.121 253.583 353.211 254.667 352.967 255.698C352.395 258.792 351.401 261.788 350.014 264.597C350.871 266.277 351.262 268.165 351.146 270.056C351.146 270.772 351.077 271.479 351.038 272.175C351.412 271.459 351.776 270.793 352.13 270.157C352.75 269.086 353.52 268.114 354.414 267.271C354.187 265.6 354.075 263.914 354.08 262.226C354.08 260.006 356.61 254.376 358.884 258.553C359.799 260.218 359.622 263.507 359.711 265.687C360.341 266.282 360.528 267.513 359.996 269.461C360.525 274.516 360.265 279.625 359.228 284.596C359.494 284.132 359.75 283.658 360.016 283.183C361.138 277.348 361.796 271.429 361.985 265.485C362.28 255.677 360.744 247.615 363.353 244.598C365.962 241.581 367.419 252.217 366.307 263.77C365.778 269.067 364.401 274.239 362.231 279.077C364.781 274.365 367.311 269.562 369.703 264.95C370.687 262.468 373.139 255.788 372.538 249.008C371.78 240.451 371.229 233.459 374.389 228.646C377.549 223.833 378.228 226.951 376.673 236.99C375.6 243.872 374.468 253.074 372.518 259.461C374.379 255.799 376.112 252.317 377.677 249.159C378.553 246.021 380.63 237.939 380.63 231.219C380.63 222.693 381.516 218.102 383.987 219.948C385.69 221.26 384.588 231.784 381.831 240.653C383.131 237.959 384.096 235.891 384.657 234.67C384.913 234.115 385.208 233.519 385.523 232.894C386.409 225.871 387.724 218.912 389.461 212.058C392.592 200 398.144 191.13 397.967 197.063C397.809 202.532 388.703 221.744 385.858 232.177C386.655 230.684 387.59 229.07 388.545 227.506C389.205 225.75 389.727 223.823 390.416 222.279C391.489 219.918 392.651 217.587 393.93 215.337C395.946 211.766 398.368 208.454 401.146 205.469C404.263 201.899 408.333 199.345 412.852 198.123C414.013 197.84 421.072 196.105 419.861 199.334C419.64 199.828 419.301 200.258 418.876 200.585C414.939 204.016 410.371 206.246 406.079 209.182C399.719 213.571 391.991 223.772 388.801 228.202L387.285 231.098C393.044 223.57 403.509 218.132 407.555 219.302C412.556 220.755 402.859 224.59 394.688 228.212C391.009 229.702 387.743 232.096 385.179 235.184C383.879 237.697 382.422 240.542 380.975 243.438C380.817 243.872 380.65 244.296 380.483 244.709C381.553 242.942 382.822 241.31 384.263 239.846C388.152 236.082 399.857 232.309 401.757 236.244C403.657 240.179 394.866 239.654 387.728 242.015C383.88 243.397 380.542 245.962 378.169 249.361L377.756 249.977C377.116 251.308 376.496 252.61 375.925 253.841C374.576 256.727 373.306 259.451 372.046 262.085C373.996 258.377 376.46 254.978 379.36 251.995C385.07 246.485 393.458 244.154 396.933 246.072C400.408 247.989 386.409 252.469 379.744 256.162C375.927 258.378 372.727 261.56 370.451 265.404C368.65 269.128 366.858 272.76 364.909 276.594C368.293 272.399 372.007 268.494 376.013 264.92C382.491 258.866 390.071 258.372 392.513 261.025C394.954 263.679 388.87 264.799 377.903 269.097C372.133 271.368 367.042 275.145 363.137 280.055C362.31 281.66 361.453 283.304 360.557 285.01C359.573 286.957 358.313 288.975 357.003 290.983C358.795 289.792 361.424 288.057 364.367 286.17C367.654 284.123 370.783 281.823 373.729 279.289C377.116 276.262 381.743 272.972 386.527 274.243C386.882 274.3 387.221 274.434 387.52 274.638C387.819 274.843 388.071 275.111 388.259 275.425C388.446 275.739 388.564 276.091 388.605 276.457C388.646 276.823 388.609 277.193 388.496 277.543C388.142 278.537 387.486 279.389 386.626 279.975C382.137 283.547 376.112 285.262 370.874 287.371C366.079 289.298 361.166 290.903 356.167 292.174C354.936 294 353.637 295.806 352.347 297.522L354.69 297.592C357.456 297.673 369.988 291.861 376.348 289.984C382.708 288.107 388.654 291.659 381.989 295.332C375.324 299.005 357.19 298.188 357.19 298.188L351.963 298.026C350.742 299.641 349.531 301.174 348.399 302.567H373.227V309.63H368.305L364.318 334.744H331.339L327.401 309.63H322.479V302.567H338.949C339.077 299.517 338.995 296.462 338.702 293.425C337.608 292.282 336.393 291.266 335.08 290.398C327.854 285.282 315.597 284.858 312.349 275.01C311.561 272.629 312.447 269.592 315.223 269.723C317.192 269.814 319.328 271.6 320.569 273.073C324.694 277.967 327.814 283.042 333.18 286.745C333.426 286.917 336.812 289.681 338.496 291.397C338.318 289.792 338.082 288.077 337.777 286.241C336.481 283.876 334.996 281.625 333.337 279.511C328.946 273.91 322.252 270.631 317.487 265.293C316.03 263.659 314.111 257.786 318.56 259.239C320.529 259.885 322.882 262.953 324.418 264.365C328.799 268.401 333.278 272.7 336.133 278.007C336.015 277.482 335.897 276.998 335.769 276.433C332.706 271.382 329.249 266.594 325.432 262.115C319.102 254.739 312.634 249.926 312.516 245.89C312.398 241.854 320.559 248.614 327.48 257.857C330.623 262.095 333.058 266.837 334.686 271.892C333.426 266.656 332.077 261.378 330.748 256.313C329.842 253.791 327.145 247.232 322.193 242.681C315.942 236.96 310.882 232.238 309.996 226.537C309.11 220.836 311.63 222.672 317.172 231.098ZM352.14 295.998C353.072 294.693 354.04 293.267 355.044 291.72C355.668 289.084 356.082 286.402 356.285 283.698C356.416 281.382 356.311 279.059 355.97 276.766C354.295 278.903 352.511 280.948 350.624 282.891C350.673 284.908 350.917 286.916 351.353 288.884C351.412 289.177 352.052 293.566 352.14 295.998ZM346.785 302.637C348.045 301.255 349.443 299.61 350.949 297.592C350.9 295.995 350.682 294.409 350.299 292.86C349.7 290.414 348.835 288.045 347.72 285.797C345.397 288.057 343.674 289.571 343.674 289.571L339.736 293.112C340.051 296.634 340.228 299.933 340.327 302.617L346.785 302.637ZM339.687 292.547L341.449 290.953C342.433 290.045 344.215 286.533 346.135 282.497C345.314 280.79 344.585 279.039 343.95 277.25C341.872 281.216 340.012 284.313 338.929 285.958C339.234 288.107 339.49 290.327 339.687 292.497V292.547Z" fill="white"/>
<path opacity="0.5" d="M317.172 231.098C320.982 236.879 326.279 244.397 329.104 250.42C328.021 246.445 326.978 242.691 326.013 239.321C324.566 236.415 320.697 229.049 316.217 224.186C310.537 217.96 308.115 213.954 311.167 213.601C313.294 213.369 319.496 221.835 323.374 230.24C322.528 227.364 321.868 225.195 321.465 223.883C321.278 223.308 321.1 222.662 320.913 221.986C316.892 216.185 313.232 210.129 309.956 203.854C304.217 192.866 302.366 182.493 306.196 186.953C309.71 191.06 315.843 211.472 320.716 221.088C320.303 219.433 319.919 217.597 319.565 215.801C318.875 214.045 317.98 212.269 317.458 210.665C316.67 208.183 315.961 205.62 315.4 203.128C314.475 199.161 314.006 195.098 314.002 191.019C313.907 186.228 315.184 181.514 317.674 177.458C318.334 176.449 322.36 170.264 323.581 173.422C323.738 173.945 323.769 174.499 323.67 175.037C323.089 180.294 321.218 185.127 320.077 190.242C318.354 197.901 319.496 210.766 320.077 216.235C320.303 217.093 320.579 218.172 320.903 219.413C320.096 209.888 324.123 198.597 327.854 196.619C332.471 194.178 327.942 203.763 324.388 212.128C322.697 215.792 321.902 219.824 322.075 223.873C322.803 226.628 323.63 229.715 324.507 232.843C324.674 233.277 324.831 233.701 324.989 234.125C324.593 232.086 324.431 230.007 324.507 227.929C324.851 222.461 330.896 211.503 334.902 213.056C338.909 214.61 332.126 220.372 328.484 227.092C326.603 230.805 325.891 235.025 326.446 239.17C326.446 239.412 326.515 239.654 326.554 239.896C326.968 241.319 327.381 242.701 327.785 244.003C328.72 247.03 329.596 249.936 330.443 252.741C329.407 248.676 328.953 244.479 329.094 240.28C329.596 232.258 334.184 224.69 337.954 223.661C341.725 222.632 334.518 235.699 332.047 243.045C330.729 247.335 330.508 251.9 331.408 256.303C332.569 260.279 333.682 264.194 334.804 268.351C334.493 262.918 334.608 257.469 335.149 252.055C335.887 243.135 341.055 237.434 344.619 237.677C348.183 237.919 344.471 242.974 339.323 253.821C336.615 259.514 335.407 265.835 335.818 272.155C336.291 273.91 336.753 275.707 337.236 277.583C337.787 279.722 338.22 282.043 338.614 284.435C339.126 282.306 339.903 279.198 340.799 275.767C341.839 271.971 342.593 268.098 343.054 264.184C343.546 259.643 344.708 253.962 349.059 251.601C349.354 251.388 349.691 251.244 350.047 251.18C350.402 251.116 350.767 251.132 351.116 251.228C351.464 251.325 351.788 251.498 352.064 251.737C352.339 251.976 352.56 252.274 352.711 252.61C353.121 253.583 353.211 254.667 352.967 255.698C352.395 258.792 351.401 261.788 350.014 264.597C350.871 266.277 351.262 268.165 351.146 270.056C351.146 270.772 351.077 271.479 351.038 272.175C351.412 271.459 351.776 270.793 352.13 270.157C352.75 269.086 353.52 268.114 354.414 267.271C354.187 265.6 354.075 263.914 354.08 262.226C354.08 260.006 356.61 254.376 358.884 258.553C359.799 260.218 359.622 263.507 359.711 265.687C360.341 266.282 360.528 267.513 359.996 269.461C360.525 274.516 360.265 279.625 359.228 284.596C359.494 284.132 359.75 283.658 360.016 283.183C361.138 277.348 361.796 271.429 361.985 265.485C362.28 255.677 360.744 247.615 363.353 244.598C365.962 241.581 367.419 252.217 366.307 263.77C365.778 269.067 364.401 274.239 362.231 279.077C364.781 274.365 367.311 269.562 369.703 264.95C370.687 262.468 373.139 255.788 372.538 249.008C371.78 240.451 371.229 233.459 374.389 228.646C377.549 223.833 378.228 226.951 376.673 236.99C375.6 243.872 374.468 253.074 372.518 259.461C374.379 255.799 376.112 252.317 377.677 249.159C378.553 246.021 380.63 237.939 380.63 231.219C380.63 222.693 381.516 218.102 383.987 219.948C385.69 221.26 384.588 231.784 381.831 240.653C383.131 237.959 384.096 235.891 384.657 234.67C384.913 234.115 385.208 233.519 385.523 232.894C386.409 225.871 387.724 218.912 389.461 212.058C392.592 200 398.144 191.13 397.967 197.063C397.809 202.532 388.703 221.744 385.858 232.177C386.655 230.684 387.59 229.07 388.545 227.506C389.205 225.75 389.727 223.823 390.416 222.279C391.489 219.918 392.651 217.587 393.93 215.337C395.946 211.766 398.368 208.454 401.146 205.469C404.263 201.899 408.333 199.345 412.852 198.123C414.013 197.84 421.072 196.105 419.861 199.334C419.64 199.828 419.301 200.258 418.876 200.585C414.939 204.016 410.371 206.246 406.079 209.182C399.719 213.571 391.991 223.772 388.801 228.202L387.285 231.098C393.044 223.57 403.509 218.132 407.555 219.302C412.556 220.755 402.859 224.59 394.688 228.212C391.009 229.702 387.743 232.096 385.179 235.184C383.879 237.697 382.422 240.542 380.975 243.438C380.817 243.872 380.65 244.296 380.483 244.709C381.553 242.942 382.822 241.31 384.263 239.846C388.152 236.082 399.857 232.309 401.757 236.244C403.657 240.179 394.866 239.654 387.728 242.015C383.88 243.397 380.542 245.962 378.169 249.361L377.756 249.977C377.116 251.308 376.496 252.61 375.925 253.841C374.576 256.727 373.306 259.451 372.046 262.085C373.996 258.377 376.46 254.978 379.36 251.995C385.07 246.485 393.458 244.154 396.933 246.072C400.408 247.989 386.409 252.469 379.744 256.162C375.927 258.378 372.727 261.56 370.451 265.404C368.65 269.128 366.858 272.76 364.909 276.594C368.293 272.399 372.007 268.494 376.013 264.92C382.491 258.866 390.071 258.372 392.513 261.025C394.954 263.679 388.87 264.799 377.903 269.097C372.133 271.368 367.042 275.145 363.137 280.055C362.31 281.66 361.453 283.304 360.557 285.01C359.573 286.957 358.313 288.975 357.003 290.983C358.795 289.792 361.424 288.057 364.367 286.17C367.654 284.123 370.783 281.823 373.729 279.289C377.116 276.262 381.743 272.972 386.527 274.243C386.882 274.3 387.221 274.434 387.52 274.638C387.819 274.843 388.071 275.111 388.259 275.425C388.446 275.739 388.564 276.091 388.605 276.457C388.646 276.823 388.609 277.193 388.496 277.543C388.142 278.537 387.486 279.389 386.626 279.975C382.137 283.547 376.112 285.262 370.874 287.371C366.079 289.298 361.166 290.903 356.167 292.174C354.936 294 353.637 295.806 352.347 297.522L354.69 297.592C357.456 297.673 369.988 291.861 376.348 289.984C382.708 288.107 388.654 291.659 381.989 295.332C375.324 299.005 357.19 298.188 357.19 298.188L351.963 298.026C350.742 299.641 349.531 301.174 348.399 302.567H373.227V309.63H368.305L364.318 334.744H331.339L327.401 309.63H322.479V302.567H338.949C339.077 299.517 338.995 296.462 338.702 293.425C337.608 292.282 336.393 291.266 335.08 290.398C327.854 285.282 315.597 284.858 312.349 275.01C311.561 272.629 312.447 269.592 315.223 269.723C317.192 269.814 319.328 271.6 320.569 273.073C324.694 277.967 327.814 283.042 333.18 286.745C333.426 286.917 336.812 289.681 338.496 291.397C338.318 289.792 338.082 288.077 337.777 286.241C336.481 283.876 334.996 281.625 333.337 279.511C328.946 273.91 322.252 270.631 317.487 265.293C316.03 263.659 314.111 257.786 318.56 259.239C320.529 259.885 322.882 262.953 324.418 264.365C328.799 268.401 333.278 272.7 336.133 278.007C336.015 277.482 335.897 276.998 335.769 276.433C332.706 271.382 329.249 266.594 325.432 262.115C319.102 254.739 312.634 249.926 312.516 245.89C312.398 241.854 320.559 248.614 327.48 257.857C330.623 262.095 333.058 266.837 334.686 271.892C333.426 266.656 332.077 261.378 330.748 256.313C329.842 253.791 327.145 247.232 322.193 242.681C315.942 236.96 310.882 232.238 309.996 226.537C309.11 220.836 311.63 222.672 317.172 231.098ZM352.14 295.998C353.072 294.693 354.04 293.267 355.044 291.72C355.668 289.084 356.082 286.402 356.285 283.698C356.416 281.382 356.311 279.059 355.97 276.766C354.295 278.903 352.511 280.948 350.624 282.891C350.673 284.908 350.917 286.916 351.353 288.884C351.412 289.177 352.052 293.566 352.14 295.998ZM346.785 302.637C348.045 301.255 349.443 299.61 350.949 297.592C350.9 295.995 350.682 294.409 350.299 292.86C349.7 290.414 348.835 288.045 347.72 285.797C345.397 288.057 343.674 289.571 343.674 289.571L339.736 293.112C340.051 296.634 340.228 299.933 340.327 302.617L346.785 302.637ZM339.687 292.547L341.449 290.953C342.433 290.045 344.215 286.533 346.135 282.497C345.314 280.79 344.585 279.039 343.95 277.25C341.872 281.216 340.012 284.313 338.929 285.958C339.234 288.107 339.49 290.327 339.687 292.497V292.547Z" fill="white"/>
<path d="M323.068 335.339C324.699 336.961 326.436 338.467 328.266 339.849C330.176 341.11 331.731 341.292 331.554 342.372C331.377 343.451 330.176 343.815 327.399 343.996C324.623 344.178 322.379 343.451 320.991 341.978C319.602 340.505 318.392 340.717 317.003 340.354C315.615 339.99 315.271 335.308 316.492 334.41C317.712 333.512 323.068 335.339 323.068 335.339Z" fill="#263238" stroke="#263238" stroke-linecap="round" stroke-linejoin="round"/>
<path d="M317.182 336.238C317.182 336.238 320.992 342.191 322.035 343.453C323.079 344.714 324.634 345.975 323.768 346.157C321.692 346.812 319.492 346.937 317.359 346.52C314.406 345.793 311.807 341.112 311.295 340.214C310.783 339.316 309.385 340.748 309.907 338.044C310.219 336.422 310.867 334.888 311.807 333.544C311.807 333.544 314.061 336.42 317.182 336.238Z" fill="#263238" stroke="#263238" stroke-linecap="round" stroke-linejoin="round"/>
<path d="M335.186 290.276L323.057 335.339L321.502 335.521C320.377 335.583 319.253 335.397 318.204 334.976L325.489 290.095C325.489 290.095 330.864 292.436 335.186 290.276Z" fill="white" stroke="#263238" stroke-linecap="round" stroke-linejoin="round"/>
<path d="M340.374 181.039L340.738 193.722L345.287 226.677L341.644 227.434L335.826 207.546C335.826 207.546 330.539 192.209 330.727 187.85C330.914 183.491 334.733 172.715 337.824 171.948C340.916 171.181 340.374 181.039 340.374 181.039Z" fill="white" stroke="#263238" stroke-linecap="round" stroke-linejoin="round"/>
<path d="M345.287 226.678C345.287 226.678 345.858 231.37 345.445 233.489C345.031 235.608 343.21 240.269 342.393 240.693C341.576 241.117 340.365 233.489 340.365 230.946C340.308 230.3 340.393 229.649 340.615 229.041C340.836 228.433 341.188 227.884 341.645 227.434L345.287 226.678Z" fill="white" stroke="#263238" stroke-linecap="round" stroke-linejoin="round"/>
<path d="M306.263 206.095C304.139 211.421 303.023 217.112 302.975 222.865C302.798 232.774 310.25 247.021 313.538 253.328C316.826 259.634 327.744 276.222 327.744 276.222C327.744 276.222 319.779 293.527 319.435 298.754C319.09 303.98 311.805 333.545 311.805 333.545C312.054 334.1 312.414 334.596 312.861 334.999C313.309 335.402 313.835 335.704 314.404 335.886C315.318 336.087 316.247 336.205 317.18 336.239C317.18 336.239 338.839 285.596 339.528 281.267C340.217 276.939 341.26 275.133 340.512 272.428C340.049 270.355 339.759 268.245 339.646 266.122C339.646 266.122 342.077 254.407 342.422 236.023C342.766 217.639 342.077 209.526 340.689 205.197C340.739 205.197 322.546 211.867 306.263 206.095Z" fill="white" stroke="#263238" stroke-linecap="round" stroke-linejoin="round"/>
<path d="M336.9 119.34C336.9 119.34 342.196 122.084 341.172 126.746C340.148 131.408 336.693 133.103 334.862 136.917C333.031 140.731 336.083 148.349 335.069 153.858C334.055 159.368 330.392 164.019 327.311 160.467C324.23 156.916 324.062 142.668 326.504 134.233C328.945 125.797 332.233 117.433 336.9 119.34Z" fill="#263238" stroke="#263238" stroke-linecap="round" stroke-linejoin="round"/>
<path d="M322.9 145.169C319.534 146.431 316.069 147.396 312.543 148.055C307.867 148.772 303.014 149.68 303.014 154.008C303.014 158.337 313.232 186.085 313.232 186.085L305.268 207.355C305.268 207.355 309.944 210.382 321.374 211.684C328.472 212.361 335.613 210.988 341.988 207.719C341.988 207.719 337.834 194.198 337.834 188.618C337.834 183.038 343.554 180.324 343.032 172.574C342.51 164.825 340.433 158.145 337.312 153.827C334.191 149.508 327.468 145.755 326.05 145.351C325.015 145.128 323.953 145.067 322.9 145.169Z" fill="white" stroke="#263238" stroke-linecap="round" stroke-linejoin="round"/>
<path d="M335.541 177.893C335.541 177.893 325.47 185.158 321.365 187.065" stroke="#263238" stroke-linecap="round" stroke-linejoin="round"/>
<path d="M310.574 176.368C310.574 176.368 315.792 170.636 316.54 166.429" stroke="#263238" stroke-linecap="round" stroke-linejoin="round"/>
<path d="M336.653 156.874L341.881 165.663" stroke="#263238" stroke-linecap="round" stroke-linejoin="round"/>
<path d="M321.68 130.568C321.68 130.568 322.035 136.158 322.035 139.76C322.035 143.362 320.814 144.987 321.857 148.599C322.901 152.211 326.534 159.406 328.266 156.671C329.999 153.937 330.865 140.81 330.865 140.81C330.865 140.81 327.4 135.583 325.667 133.06C323.935 130.538 322.035 128.943 321.68 130.568Z" fill="white" stroke="#263238" stroke-linecap="round" stroke-linejoin="round"/>
<path d="M335.019 121.376C336.656 124.363 337.605 127.693 337.795 131.113C338.139 136.875 337.273 141.203 334.33 143.907C331.386 146.612 329.998 147.157 327.438 146.248C324.879 145.34 322.073 134.715 322.073 134.715C322.073 134.715 318.775 134.534 315.664 129.307C312.553 124.08 317.22 115.968 323.973 115.07C330.727 114.172 335.019 121.376 335.019 121.376Z" fill="white" stroke="#263238" stroke-linecap="round" stroke-linejoin="round"/>
<path d="M324.8 134.172C324.8 134.172 322.378 128.945 320.813 131.145C319.247 133.345 320.301 137.088 321.512 137.633C322.722 138.178 323.589 136.553 323.589 136.553" fill="white"/>
<path d="M324.8 134.172C324.8 134.172 322.378 128.945 320.813 131.145C319.247 133.345 320.301 137.088 321.512 137.633C322.722 138.178 323.589 136.553 323.589 136.553" stroke="#263238" stroke-linecap="round" stroke-linejoin="round"/>
<path d="M306.342 149.599C306.342 149.599 300.691 149.972 301.055 156.601C301.42 163.231 298.515 195.812 298.328 199.596C298.141 203.379 309.797 232.359 309.797 232.359L313.981 231.793L307.248 197.89L311.796 171.565C312.158 170.505 312.28 169.376 312.154 168.26C312.028 167.145 311.656 166.074 311.067 165.127" fill="white"/>
<path d="M306.342 149.599C306.342 149.599 300.691 149.972 301.055 156.601C301.42 163.231 298.515 195.812 298.328 199.596C298.141 203.379 309.797 232.359 309.797 232.359L313.981 231.793L307.248 197.89L311.796 171.565C312.158 170.505 312.28 169.376 312.154 168.26C312.028 167.145 311.656 166.074 311.067 165.127" stroke="#263238" stroke-linecap="round" stroke-linejoin="round"/>
<path d="M322.25 132.678L323.501 132.113L328.354 129.923C334.458 127.169 335.472 123.778 336.899 119.339C338.326 114.899 337.106 115.524 329.368 112.77C321.63 110.015 316.57 111.498 312.475 116.584C308.379 121.669 309.019 135.221 307.552 139.882C306.086 144.544 304.501 147.5 307.552 152.162C310.604 156.824 322.004 164.654 323.225 158.095C324.446 151.536 320.419 138.823 322.25 132.678Z" fill="#263238" stroke="#263238" stroke-linecap="round" stroke-linejoin="round"/>
<path d="M313.982 231.793C315.358 232.62 316.631 233.616 317.772 234.759C318.756 236.031 320.007 238.796 319.8 239.633C319.593 240.471 317.969 237.514 317.162 237.09C316.354 236.667 318.786 241.752 318.993 242.811C319.199 243.871 318.993 244.285 316.955 243.447C314.917 242.61 313.696 241.54 311.658 239.209C309.621 236.878 309.798 232.358 309.798 232.358L313.982 231.793Z" fill="white" stroke="#263238" stroke-linecap="round" stroke-linejoin="round"/>
<path d="M326.72 218.454C326.72 218.454 337.923 248.947 339.144 263.779" stroke="#263238" stroke-linecap="round" stroke-linejoin="round"/>
<path d="M334.863 217.819C334.863 217.819 332.224 223.742 330.187 226.073" stroke="#263238" stroke-linecap="round" stroke-linejoin="round"/>
<path d="M275.056 202.937C275.056 202.937 270.527 174.432 270.527 162.828C270.527 151.224 273.658 140.852 278.885 145.543L287.342 209.576L290.886 229.837C292.215 235.316 292.028 240.603 291.201 243.388C290.374 246.173 288.799 245.79 289.281 243.499C289.764 241.209 288.563 237.879 288.001 238.454C287.44 239.029 288.759 241.693 287.667 242.924C286.574 244.155 286.2 241.855 285.698 238.888C285.196 235.921 286.574 231.219 286.574 231.219L275.056 202.937Z" fill="white" stroke="#263238" stroke-linecap="round" stroke-linejoin="round"/>
<path d="M277.941 144.151C280.003 145.975 281.393 148.468 281.879 151.215C282.529 155.664 288.819 187.892 288.819 187.892C288.819 187.892 286.85 189.678 281.662 191.676C278.39 192.904 274.946 193.585 271.463 193.694L270.813 147.905" fill="white"/>
<path d="M277.941 144.151C280.003 145.975 281.393 148.468 281.879 151.215C282.529 155.664 288.819 187.892 288.819 187.892C288.819 187.892 286.85 189.678 281.662 191.676C278.39 192.904 274.946 193.585 271.463 193.694L270.813 147.905" stroke="#263238" stroke-linecap="round" stroke-linejoin="round"/>
<path d="M277.151 187.821H281.67L283.728 184.451H287.843" stroke="#263238" stroke-linecap="round" stroke-linejoin="round"/>
<path d="M215.91 181.939C218.735 171.556 224.504 154.09 225.617 150.346C227.133 145.23 229.741 143.898 229.741 143.898L233.679 168.801L232.163 172.131C232.163 172.131 227.95 184.148 224.75 190.081L233.463 209.031L236.505 215.7L232.567 221.482C232.567 221.482 214.788 193.229 213.862 191.211C212.937 189.193 215.91 181.939 215.91 181.939Z" fill="white" stroke="#263238" stroke-linecap="round" stroke-linejoin="round"/>
<path d="M230.834 143.486C228.64 144.166 226.779 145.673 225.626 147.704C223.46 151.266 212.828 187.056 212.828 187.056C215.066 188.766 217.667 189.911 220.418 190.396C222.636 190.811 224.902 190.885 227.142 190.618L233.433 173.717" fill="white"/>
<path d="M230.834 143.486C228.64 144.166 226.779 145.673 225.626 147.704C223.46 151.266 212.828 187.056 212.828 187.056C215.066 188.766 217.667 189.911 220.418 190.396C222.636 190.811 224.902 190.885 227.142 190.618L233.433 173.717" stroke="#263238" stroke-linecap="round" stroke-linejoin="round"/>
<path d="M214.61 181.496L218.725 184.876L224.081 182.767L227.369 186.138" stroke="#263238" stroke-linecap="round" stroke-linejoin="round"/>
<path d="M281.761 335.875C281.761 335.875 281.761 336.783 287.265 341.526C292.768 346.268 293.88 347.58 292.334 349.205C290.789 350.829 283.297 347.852 280.875 346.268C278.454 344.684 279.556 344.684 276.691 343.332C273.827 341.98 275.146 337.227 275.589 336.097C276.032 334.967 281.761 335.875 281.761 335.875Z" fill="white" stroke="#263238" stroke-linecap="round" stroke-linejoin="round"/>
<path d="M228.461 334.857C228.461 334.857 228.461 335.755 222.948 340.497C217.435 345.24 216.333 346.602 217.878 348.176C219.424 349.75 226.916 346.824 229.337 345.24C231.759 343.656 230.666 343.666 233.531 342.303C236.396 340.941 235.067 336.249 234.634 335.079C234.201 333.908 228.461 334.857 228.461 334.857Z" fill="white" stroke="#263238" stroke-linecap="round" stroke-linejoin="round"/>
<path d="M231.819 250.27C231.12 242.672 232.153 222.623 232.153 220.817C232.153 219.011 235.481 211.665 236.446 209.597L236.544 207.225C236.544 207.225 270.823 205.893 275.351 204.198C275.351 204.198 281.179 228.415 281.829 246.305C282.479 264.195 285.383 286.09 284.733 298.683C284.221 308.773 283.749 328.883 283.326 335.633C283.277 336.405 282.986 337.141 282.496 337.73C282.007 338.319 281.344 338.73 280.608 338.903L279.811 339.084C279.337 339.195 278.845 339.203 278.367 339.108C277.889 339.013 277.436 338.817 277.037 338.532C276.637 338.247 276.3 337.88 276.047 337.453C275.794 337.027 275.631 336.552 275.568 336.057C273.973 322.94 268.096 278.947 265.655 270.864C262.701 261.248 256.794 235.226 256.794 235.226C256.794 235.226 243.012 299.379 241.427 307.996C239.842 316.613 234.634 336.178 234.634 336.178C233.285 336.711 231.87 337.05 230.431 337.187C229.228 337.131 228.039 336.907 226.896 336.521L231.819 250.27Z" fill="#263238" stroke="#263238" stroke-linecap="round" stroke-linejoin="round"/>
<path d="M255.445 137.391C255.445 137.391 263.803 139.107 269.454 140.822C275.105 142.537 278.865 143.607 278.865 145.544C278.865 147.482 276.355 205.077 276.355 205.077C276.355 205.077 276.148 207.438 271.127 208.104C266.107 208.77 239.556 209.597 237.882 209.173C236.209 208.749 235.579 207.024 235.372 204.451C235.165 201.878 228.678 147.229 229.101 144.667C229.524 142.104 250.011 138.229 250.631 138.017C252.15 137.364 253.815 137.147 255.445 137.391Z" fill="white" stroke="#263238" stroke-linecap="round" stroke-linejoin="round"/>
<path d="M277.153 170.558C277.153 170.558 268.509 190.375 256.991 200.495" stroke="#263238" stroke-linecap="round" stroke-linejoin="round"/>
<path d="M259.865 187.822C259.865 187.822 247.943 204.269 241.357 207.226" stroke="#263238" stroke-linecap="round" stroke-linejoin="round"/>
<path d="M231.07 165.058L238.887 159.993L245.059 165.896L253.703 160.417L260.693 166.743L268.923 159.155L275.509 165.896L277.97 159.993" stroke="#263238" stroke-linecap="round" stroke-linejoin="round"/>
<path d="M260.565 122.84C260.565 122.84 262.376 118.198 263.282 121.911C264.187 125.625 261.017 130.256 259.206 128.864" fill="white"/>
<path d="M260.565 122.84C260.565 122.84 262.376 118.198 263.282 121.911C264.187 125.625 261.017 130.256 259.206 128.864" stroke="#263238" stroke-linecap="round" stroke-linejoin="round"/>
<path d="M242.028 123.991C242.028 123.991 238.179 121.448 238.405 124.919C238.632 128.39 242.028 132.336 243.15 130.257" fill="white"/>
<path d="M242.028 123.991C242.028 123.991 238.179 121.448 238.405 124.919C238.632 128.39 242.028 132.336 243.15 130.257" stroke="#263238" stroke-linecap="round" stroke-linejoin="round"/>
<path d="M259.207 128.865L258.98 143.234C258.941 144.042 258.746 144.834 258.406 145.565C258.065 146.295 257.587 146.948 256.998 147.487C256.409 148.026 255.721 148.44 254.975 148.704C254.228 148.968 253.438 149.077 252.65 149.025C246.546 149.025 246.743 141.841 246.743 141.841L245.385 130.258C245.385 130.258 255.141 131.408 259.207 128.865Z" fill="white" stroke="#263238" stroke-linecap="round" stroke-linejoin="round"/>
<path d="M240.394 120.681C240.394 120.681 237.726 112.104 244.912 106.989C252.099 101.873 259.837 108.381 260.742 114.869C261.648 121.357 260.969 129.934 257.582 134.797C254.196 139.661 252.079 140.014 248.309 137.118C244.538 134.222 240.62 126.241 240.394 120.681Z" fill="white" stroke="#263238" stroke-linecap="round" stroke-linejoin="round"/>
<path d="M242.154 117.261C242.154 117.261 243.021 120.147 242.804 121.297C242.587 122.447 243.887 125.515 241.938 125.333C239.988 125.151 239.122 117.341 239.122 117.341L242.154 117.261Z" fill="#263238" stroke="#263238" stroke-linecap="round" stroke-linejoin="round"/>
<path d="M260.782 121.7C260.782 121.7 259.049 123.254 259.049 121.478C259.049 119.702 260.349 118.815 259.266 117.442C258.183 116.07 256.017 115.222 256.017 113.003V109.229C253.461 111.839 250.628 114.147 247.571 116.11C243.633 118.33 239.774 119.662 236.742 118.552C233.71 117.442 237.825 113.447 237.825 113.447C237.825 113.447 233.276 115.888 233.276 111.671C233.276 107.453 240.847 101.903 247.777 101.903C254.708 101.903 257.09 106.565 257.09 106.565C257.09 106.565 261.205 106.565 261.855 110.339C262.505 114.112 260.782 121.7 260.782 121.7Z" fill="#263238" stroke="#263238" stroke-linecap="round" stroke-linejoin="round"/>
<path d="M174.032 336.841C174.032 336.841 168.47 342.3 166.698 346.75C164.926 351.199 169.435 350.715 173.589 347.577C177.743 344.439 178.511 335.923 178.511 335.923C178.511 335.923 175.883 336.488 174.032 336.841Z" fill="white" stroke="#263238" stroke-linecap="round" stroke-linejoin="round"/>
<path d="M189.488 335.692C189.488 335.692 190.059 343.451 191.506 347.74C192.954 352.028 196.97 353.521 198.26 350.05C199.549 346.579 194.184 335.46 194.184 335.46C194.184 335.46 191.152 336.509 189.488 335.692Z" fill="white" stroke="#263238" stroke-linecap="round" stroke-linejoin="round"/>
<path d="M155.456 209.342C155.456 209.342 151.429 219.2 153.487 234.789C155.544 250.379 161.362 263.688 162.436 271.477C163.509 279.267 162.662 294.412 166.462 306.107C170.262 317.801 174.072 336.842 174.072 336.842C174.822 337.156 175.647 337.236 176.442 337.073C177.236 336.909 177.967 336.51 178.541 335.923C178.541 335.923 179.437 305.189 179.664 290.285C179.89 275.382 177.872 252.447 178.098 248.088C178.325 243.729 180.067 214.609 180.067 214.609C180.067 214.609 161.274 212.772 155.456 209.342Z" fill="#263238" stroke="#263238" stroke-linecap="round" stroke-linejoin="round"/>
<path d="M177.162 214.841C177.162 214.841 174.928 240.753 176.493 261.387C178.058 282.022 182.754 304.775 185.215 314.865C187.676 324.956 189.488 335.692 189.488 335.692C189.488 335.692 192.441 337.982 194.184 335.46C194.184 335.46 195.749 311.616 195.975 298.772C196.202 285.927 194.006 278.127 194.006 270.105C194.006 262.084 200.72 239.149 201.616 228.826C202.512 218.504 202.738 216.9 200.947 211.401C199.155 205.901 180.588 209.382 178.57 210.946C177.987 211.382 177.543 211.983 177.293 212.676C177.042 213.369 176.997 214.122 177.162 214.841Z" fill="#263238" stroke="#263238" stroke-linecap="round" stroke-linejoin="round"/>
<path d="M179.643 290.284C179.643 290.284 175.459 269.973 176.345 256.23C176.788 249.409 178.727 227.261 178.727 227.261" stroke="white" stroke-linecap="round" stroke-linejoin="round"/>
<path d="M173.472 224.084L178.374 231.097" stroke="white" stroke-linecap="round" stroke-linejoin="round"/>
<path d="M178.835 106.583C178.835 106.583 176.788 103.445 170.31 106.936C163.832 110.428 164.521 125.099 165.201 128.247C165.88 131.395 161.794 132.788 158.388 139.084C154.982 145.38 162.139 158.649 161.794 163.189C161.45 167.73 153.614 175.066 153.919 183.097C154.224 191.129 173.007 200.251 187.656 198.475C202.305 196.699 206.065 191.139 206.361 182.401C206.656 173.663 202.265 169.122 202.265 163.886C202.265 158.649 208.064 154.098 204.992 145.37C201.921 136.642 197.491 135.28 197.491 131.395C197.491 127.51 203.289 124.756 201.242 117.773C199.194 110.791 188.719 99.6009 178.835 106.583Z" fill="#263238" stroke="#263238" stroke-linecap="round" stroke-linejoin="round"/>
<path d="M177.389 142.151C177.389 142.151 169.327 144.442 164.857 145.178C160.388 145.915 155.908 146.783 156.125 150.456C156.342 154.128 163.292 184.621 163.735 186.457C164.178 188.294 155.032 210.25 155.032 210.25C155.032 210.25 157.001 212.087 170.695 215.295C184.389 218.504 201.794 212.087 201.794 212.087C201.794 212.087 194.184 190.07 194.184 186.861C194.184 183.652 205.367 151.091 203.133 147.651C200.898 144.21 183.65 142.373 177.389 142.151Z" fill="white" stroke="#263238" stroke-linecap="round" stroke-linejoin="round"/>
<path d="M194.46 176.014L173.067 190.352" stroke="#263238" stroke-linecap="round" stroke-linejoin="round"/>
<path d="M180.471 182.764L166.481 190.775" stroke="#263238" stroke-linecap="round" stroke-linejoin="round"/>
<path d="M177.586 157.044L178.413 213.963" stroke="#263238" stroke-linecap="round" stroke-linejoin="round"/>
<path d="M202.886 146.731C202.886 146.731 204.678 149.486 205.131 160.949C205.584 172.411 216.541 223.326 216.541 223.326L211.835 224.012C211.835 224.012 205.574 208.191 201.774 199.473C199.21 193.259 197.194 186.823 195.749 180.241L198.289 162.603" fill="white"/>
<path d="M202.886 146.731C202.886 146.731 204.678 149.486 205.131 160.949C205.584 172.411 216.541 223.326 216.541 223.326L211.835 224.012C211.835 224.012 205.574 208.191 201.774 199.473C199.21 193.259 197.194 186.823 195.749 180.241L198.289 162.603" stroke="#263238" stroke-linecap="round" stroke-linejoin="round"/>
<path d="M206.392 178.548C204.799 181.751 203.01 184.848 201.036 187.821" stroke="#263238" stroke-linecap="round" stroke-linejoin="round"/>
<path d="M177.39 142.152C177.39 142.152 172.33 140.911 170.912 143.796C169.495 146.682 168.097 157.681 168.097 157.681C168.097 157.681 176.839 154.209 178.817 154.209C180.796 154.209 190.109 159.456 190.109 159.456C190.109 159.456 188.977 146.44 186.723 142.969C184.468 139.498 177.39 142.152 177.39 142.152Z" fill="white" stroke="#263238" stroke-linecap="round" stroke-linejoin="round"/>
<path d="M174.032 138.025C174.032 138.025 174.928 146.965 175.371 149.941C175.814 152.918 177.685 166.358 180.963 149.941C181.693 145.699 182.14 141.411 182.302 137.106C182.302 137.106 177.163 139.165 174.032 138.025Z" fill="white" stroke="#263238" stroke-linecap="round" stroke-linejoin="round"/>
<path d="M178.502 112.334L169.799 125.865C169.799 125.865 169.346 139.85 176.287 141.686C183.227 143.523 188.1 129.76 188.1 129.76C188.1 129.76 176.493 118.297 178.502 112.334Z" fill="white" stroke="#263238" stroke-linecap="round" stroke-linejoin="round"/>
<path d="M159.265 165.509L147.402 176.517L156.764 203.761L153.89 206.324C153.89 206.324 134.319 179.343 134.427 176.053C134.535 172.764 157.07 147.387 157.07 147.387C157.408 147.192 157.783 147.071 158.169 147.033C158.556 146.995 158.946 147.04 159.314 147.165" fill="white"/>
<path d="M159.265 165.509L147.402 176.517L156.764 203.761L153.89 206.324C153.89 206.324 134.319 179.343 134.427 176.053C134.535 172.764 157.07 147.387 157.07 147.387C157.408 147.192 157.783 147.071 158.169 147.033C158.556 146.995 158.946 147.04 159.314 147.165" stroke="#263238" stroke-linecap="round" stroke-linejoin="round"/>
<path d="M147.402 176.548C147.402 176.548 142.204 172.644 140.146 172.644" stroke="#263238" stroke-linecap="round" stroke-linejoin="round"/>
<path d="M211.834 224.033C211.834 224.033 209.6 228.624 209.6 231.833C209.6 235.041 209.6 237.493 210.948 236.413C212.297 235.334 211.391 232.287 212.061 231.833C212.73 231.378 213.409 235.041 212.514 237.332C211.618 239.622 213.183 240.359 214.483 237.564C215.782 234.769 216.944 229.31 216.451 223.347L211.834 224.033Z" fill="white" stroke="#263238" stroke-linecap="round" stroke-linejoin="round"/>
<path d="M156.766 203.792C156.766 203.792 159.128 199.524 160.467 199.988C161.806 200.453 165.527 204.024 165.527 204.983C165.527 205.942 160.467 202.743 160.467 202.743C160.467 202.743 165.527 205.669 164.188 206.587C162.85 207.506 158.892 204.438 158.892 204.438C158.892 204.438 163.293 208.646 161.944 208.424C160.595 208.202 157.701 206.123 157.701 206.123C157.701 206.123 161.048 209.342 159.483 209.15C158.336 208.867 157.304 208.225 156.529 207.314C156.529 207.314 155.053 209.736 153.842 206.396L156.766 203.792Z" fill="white" stroke="#263238" stroke-linecap="round" stroke-linejoin="round"/>
<path d="M121.117 107.251L118.164 109.43C117.636 108.694 116.873 108.172 116.007 107.954C115.142 107.736 114.229 107.837 113.429 108.24C110.475 109.622 103.673 116.756 101.615 123.284C99.5579 129.812 106.252 137.249 104.992 140.024C103.732 142.799 100.168 143.586 100.454 148.237C100.739 152.889 116.874 159.125 124.602 155.462C132.33 151.799 124.898 143.283 126.63 140.518C128.363 137.753 133.394 138.5 133.394 130.317C133.394 122.134 131.858 117.936 128.954 112.891C126.483 108.532 123.923 106.262 121.117 107.251Z" fill="#263238" stroke="#263238" stroke-linecap="round" stroke-linejoin="round"/>
<path d="M129.889 332.857C129.405 335.459 128.747 338.025 127.92 340.535C126.936 342.987 123.303 343.966 125.056 345.439C126.808 346.912 130.47 346.751 132.705 344.43C134.94 342.11 134.615 338.871 136.367 337.246C138.119 335.622 137.962 333.815 136.849 331.848C136.365 330.803 135.509 329.987 134.457 329.567C134.457 329.567 133.867 332.372 129.889 332.857Z" fill="white" stroke="#263238" stroke-linecap="round" stroke-linejoin="round"/>
<path d="M96.6819 191.745C96.6819 191.745 93.8959 205.216 94.8902 215.639C95.5581 223.54 96.7554 231.385 98.4736 239.119C99.4581 242.791 106.842 277.512 107.442 277.915C108.043 278.319 120.24 307.328 122.78 314.472C125.32 321.616 129.76 332.635 129.76 332.635C129.76 332.635 132.477 333.977 134.268 332.342C136.06 330.707 135.41 330.263 135.41 330.263C135.41 330.263 131.354 294.252 128.165 284.04C124.975 273.829 119.994 262.387 119.994 262.387C119.994 262.387 129.563 224.407 127.367 209.494C125.172 194.58 122.386 192.754 122.386 192.754C122.386 192.754 106.044 198.808 96.6819 191.745Z" fill="#263238" stroke="#263238" stroke-linecap="round" stroke-linejoin="round"/>
<path d="M123.647 194.773C129.685 203.175 133.506 213.031 134.741 223.389C136.533 240.129 126.964 251.158 124.976 261.783C122.987 272.408 127.565 281.378 124.582 292.406C121.599 303.435 118.606 314.221 116.637 320.346C114.668 326.471 112.335 334.361 112.335 334.361C111.26 335.22 109.915 335.643 108.555 335.552C105.966 335.552 105.602 335.552 105.602 335.552C105.602 335.552 110.022 290.378 110.219 280.167C110.416 269.956 111.617 258.927 111.617 258.927C111.617 258.927 110.219 221.149 113.211 214.005C116.204 206.862 118.193 204.813 118.193 204.813" fill="#263238"/>
<path d="M123.647 194.773C129.685 203.175 133.506 213.031 134.741 223.389C136.533 240.129 126.964 251.158 124.976 261.783C122.987 272.408 127.565 281.378 124.582 292.406C121.599 303.435 118.606 314.221 116.637 320.346C114.668 326.471 112.335 334.361 112.335 334.361C111.26 335.22 109.915 335.643 108.555 335.552C105.966 335.552 105.602 335.552 105.602 335.552C105.602 335.552 110.022 290.378 110.219 280.167C110.416 269.956 111.617 258.927 111.617 258.927C111.617 258.927 110.219 221.149 113.211 214.005C116.204 206.862 118.193 204.813 118.193 204.813" stroke="#263238" stroke-linecap="round" stroke-linejoin="round"/>
<path d="M110.22 272.972C110.22 266.969 110.289 258.362 110.525 251.924C110.938 240.956 111.765 214.812 117.524 207.648" stroke="white" stroke-linecap="round" stroke-linejoin="round"/>
<path d="M110.229 280.116C110.229 280.116 110.229 278.986 110.229 277.089" stroke="white" stroke-linecap="round" stroke-linejoin="round"/>
<path d="M101.064 209.333C101.064 209.333 105.357 220.735 112.307 223.51" stroke="white" stroke-linecap="round" stroke-linejoin="round"/>
<path d="M98.4742 146.561C97.0369 146.373 95.579 146.67 94.3214 147.407C93.0637 148.145 92.0747 149.282 91.5042 150.647C89.3089 155.541 80.0156 174.864 80.0156 177.275C80.0156 179.687 82.6244 186.417 86.9068 182.704C89.4369 180.524 96.6726 164.935 96.6726 164.935" fill="white"/>
<path d="M98.4742 146.561C97.0369 146.373 95.579 146.67 94.3214 147.407C93.0637 148.145 92.0747 149.282 91.5042 150.647C89.3089 155.541 80.0156 174.864 80.0156 177.275C80.0156 179.687 82.6244 186.417 86.9068 182.704C89.4369 180.524 96.6726 164.935 96.6726 164.935" stroke="#263238" stroke-linecap="round" stroke-linejoin="round"/>
<path d="M131.553 152.102C129.712 146.259 118.509 145.957 117.643 145.765C117.643 145.765 117.259 146.36 117.259 145.069C117.259 143.777 117.928 138.934 117.928 138.934C117.928 138.934 110.299 138.934 109.068 136.159C109.068 136.159 108.871 142.889 108.005 145.462C106.73 146.165 105.283 146.47 103.841 146.34C100.947 146.34 96.1621 145.15 94.7149 149.206C94.621 149.483 94.5454 149.766 94.4885 150.053C93.7797 152.747 91.6237 161.153 91.3678 164.785C91.2004 167.217 92.5393 171.969 93.76 175.703C93.8486 178.397 93.9766 180.687 94.1242 182.181C94.8035 188.81 94.4097 197.376 96.5361 198.769C98.6626 200.161 114.63 202.502 119.651 200.323C124.672 198.143 124.367 192.079 124.367 189.224C124.367 186.368 133.374 157.944 131.553 152.102Z" fill="white" stroke="#263238" stroke-linecap="round" stroke-linejoin="round"/>
<path d="M103.949 165.896C103.949 165.896 105.18 171.385 111.766 174.331" stroke="#263238" stroke-linecap="round" stroke-linejoin="round"/>
<path d="M124.278 146.825C122.092 146.326 119.875 145.989 117.643 145.816C117.643 145.816 117.259 146.411 117.259 145.12C117.259 143.828 117.928 138.985 117.928 138.985C117.928 138.985 110.299 138.985 109.068 136.21C109.068 136.21 108.871 142.94 108.005 145.513C108.005 145.513 105.199 146.078 102.541 146.391C103.004 149.206 104.736 155.109 111.194 155.825C116.816 156.431 121.649 150.73 124.278 146.825Z" fill="white" stroke="#263238" stroke-linecap="round" stroke-linejoin="round"/>
<path d="M118.892 115.363C118.892 115.363 114.068 120.408 108.368 121.014C108.368 121.014 106.045 129.823 108.073 135.766C110.101 141.709 113.684 142.597 116.48 141.82C121.245 140.478 124.986 130.539 126.039 126.775C126.039 126.755 120.575 120.913 118.892 115.363Z" fill="white" stroke="#263238" stroke-linecap="round" stroke-linejoin="round"/>
<path d="M105.612 335.501C105.612 335.501 102.265 343.674 101.153 346.116C100.04 348.558 96.0531 349.718 97.6479 351.161C99.2428 352.604 106.095 350.677 108.959 348.386C111.824 346.096 113.104 345.45 113.586 343.16C114.069 340.869 112.306 334.341 112.306 334.341C110.178 335.201 107.898 335.596 105.612 335.501Z" fill="white" stroke="#263238" stroke-linecap="round" stroke-linejoin="round"/>
<path d="M100.01 176.742C100.01 176.742 95.0092 170.87 94.6942 170.315C94.3791 169.76 86.3558 167.116 86.3558 167.116C86.1786 167.629 86.1786 168.188 86.3558 168.7C86.6708 169.255 91.8196 170.648 91.8196 170.648L92.2823 171.344L85.1942 170.335C85.1942 170.335 83.9439 170.557 84.2786 171.394C84.6133 172.232 92.1543 173.342 92.1543 173.342L84.446 173.695C84.5476 174.079 84.7579 174.424 85.0505 174.687C85.343 174.949 85.7047 175.116 86.09 175.168C87.3501 175.229 90.4315 175.037 90.4315 175.037C90.4315 175.037 86.8087 175.552 87.5766 176.51C88.3444 177.469 92.2035 176.359 92.2035 176.359L95.275 178.316L98.3662 180.566L100.01 176.742Z" fill="white" stroke="#263238" stroke-linecap="round" stroke-linejoin="round"/>
<path d="M125.498 158.66L120.34 180.566C120.34 180.566 106.705 178.931 103.762 178.043C102.625 177.769 101.515 177.391 100.444 176.913L98.2881 180.647C98.2881 180.647 107.778 186.529 115.398 189.173C123.018 191.817 125.705 193.956 127.674 190.555C129.643 187.155 133.079 166.52 134.063 159.599C135.048 152.677 133.935 150.406 131.73 149.508C130.092 148.9 128.405 148.438 126.69 148.126" fill="white"/>
<path d="M125.498 158.66L120.34 180.566C120.34 180.566 106.705 178.931 103.762 178.043C102.625 177.769 101.515 177.391 100.444 176.913L98.2881 180.647C98.2881 180.647 107.778 186.529 115.398 189.173C123.018 191.817 125.705 193.956 127.674 190.555C129.643 187.155 133.079 166.52 134.063 159.599C135.048 152.677 133.935 150.406 131.73 149.508C130.092 148.9 128.405 148.438 126.69 148.126" stroke="#263238" stroke-linecap="round" stroke-linejoin="round"/>
<path d="M83.5013 174.351L112.425 178.388L111.44 182.212C104.348 183.904 97.1351 185.018 89.8708 185.542C77.378 186.107 79.0417 177.469 81.2174 173.595" fill="white"/>
<path d="M83.5013 174.351L112.425 178.388L111.44 182.212C104.348 183.904 97.1351 185.018 89.8708 185.542C77.378 186.107 79.0417 177.469 81.2174 173.595" stroke="#263238" stroke-linecap="round" stroke-linejoin="round"/>
<path d="M112.425 178.417C112.425 178.417 119.907 176.651 120.488 176.399C121.069 176.147 128.984 179.153 128.984 179.153C128.984 179.153 128.649 180.162 128.058 180.425C127.468 180.687 122.595 178.518 122.595 178.518L121.807 178.77L127.98 182.473C127.98 182.473 128.826 183.482 128.058 183.886C127.29 184.289 120.714 180.455 120.714 180.455L126.621 185.611C126.309 185.851 125.935 185.99 125.546 186.012C125.157 186.033 124.771 185.936 124.436 185.732C123.402 184.986 121.098 182.887 121.098 182.887C121.098 182.887 123.638 185.581 122.457 185.853C121.275 186.126 118.913 182.826 118.913 182.826L115.31 182.433L111.529 182.251L112.425 178.417Z" fill="white" stroke="#263238" stroke-linecap="round" stroke-linejoin="round"/>
</svg>
