<svg width="32" height="32" viewBox="0 0 32 32" fill="none" xmlns="http://www.w3.org/2000/svg">
<g clip-path="url(#clip0_246_210)">
<path fill-rule="evenodd" clip-rule="evenodd" d="M16.0802 7.92022C16.4547 8.29522 16.6651 8.80356 16.6651 9.33356C16.6651 9.86356 16.4547 10.3719 16.0802 10.7469L10.8295 16.0002L16.0829 21.2536C16.447 21.6309 16.6484 22.1362 16.6436 22.6606C16.6388 23.185 16.4282 23.6866 16.0572 24.0572C15.6862 24.4278 15.1845 24.6379 14.6601 24.6422C14.1357 24.6466 13.6306 24.4447 13.2535 24.0802L6.58686 17.4136C6.21233 17.0386 6.00195 16.5302 6.00195 16.0002C6.00195 15.4702 6.21233 14.9619 6.58686 14.5869L13.2535 7.92022C13.4393 7.73437 13.6598 7.58694 13.9025 7.48635C14.1453 7.38576 14.4054 7.33398 14.6682 7.33398C14.9309 7.33398 15.1911 7.38576 15.4339 7.48635C15.6766 7.58694 15.8971 7.73437 16.0829 7.92022H16.0802ZM24.0802 7.92022C24.4547 8.29522 24.6651 8.80356 24.6651 9.33356C24.6651 9.86356 24.4547 10.3719 24.0802 10.7469L18.8295 16.0002L24.0829 21.2536C24.447 21.6309 24.6484 22.1362 24.6436 22.6606C24.6388 23.185 24.4282 23.6866 24.0572 24.0572C23.6862 24.4278 23.1845 24.6379 22.6601 24.6422C22.1357 24.6466 21.6306 24.4447 21.2535 24.0802L14.5869 17.4136C14.2123 17.0386 14.002 16.5302 14.002 16.0002C14.002 15.4702 14.2123 14.9619 14.5869 14.5869L21.2535 7.92022C21.4393 7.73437 21.6598 7.58694 21.9025 7.48635C22.1453 7.38576 22.4054 7.33398 22.6682 7.33398C22.9309 7.33398 23.1911 7.38576 23.4339 7.48635C23.6766 7.58694 23.8971 7.73437 24.0829 7.92022H24.0802Z" fill="#5F2EEA"/>
</g>
<defs>
<clipPath id="clip0_246_210">
<rect width="32" height="32" fill="white"/>
</clipPath>
</defs>
</svg>
