<svg width="32" height="32" viewBox="0 0 32 32" fill="none" xmlns="http://www.w3.org/2000/svg">
<path fill-rule="evenodd" clip-rule="evenodd" d="M11.76 2C11.2296 2 10.7209 2.21071 10.3458 2.58579C9.97071 2.96086 9.76 3.46957 9.76 4V12.5C9.76 13.0304 9.97071 13.5391 10.3458 13.9142C10.7209 14.2893 11.2296 14.5 11.76 14.5H20.26C20.7904 14.5 21.2991 14.2893 21.6742 13.9142C22.0493 13.5391 22.26 13.0304 22.26 12.5V4C22.26 3.46957 22.0493 2.96086 21.6742 2.58579C21.2991 2.21071 20.7904 2 20.26 2H11.76ZM4 17.5C3.46957 17.5 2.96086 17.7107 2.58579 18.0858C2.21071 18.4609 2 18.9696 2 19.5L2 28C2 28.5304 2.21071 29.0391 2.58579 29.4142C2.96086 29.7893 3.46957 30 4 30H12.5C13.0304 30 13.5391 29.7893 13.9142 29.4142C14.2893 29.0391 14.5 28.5304 14.5 28V19.5C14.5 18.9696 14.2893 18.4609 13.9142 18.0858C13.5391 17.7107 13.0304 17.5 12.5 17.5H4ZM17.5 19.5C17.5 18.9696 17.7107 18.4609 18.0858 18.0858C18.4609 17.7107 18.9696 17.5 19.5 17.5H28C28.5304 17.5 29.0391 17.7107 29.4142 18.0858C29.7893 18.4609 30 18.9696 30 19.5V28C30 28.5304 29.7893 29.0391 29.4142 29.4142C29.0391 29.7893 28.5304 30 28 30H19.5C18.9696 30 18.4609 29.7893 18.0858 29.4142C17.7107 29.0391 17.5 28.5304 17.5 28V19.5Z" fill="#4E4B66"/>
</svg>
