<svg width="32" height="32" viewBox="0 0 32 32" fill="none" xmlns="http://www.w3.org/2000/svg">
<path d="M15.9997 2.66699C16.7069 2.66699 17.3852 2.94794 17.8853 3.44804C18.3854 3.94814 18.6663 4.62641 18.6663 5.33366C18.6663 6.32033 18.133 7.18699 17.333 7.64033V9.33366H18.6663C21.1417 9.33366 23.5157 10.317 25.266 12.0673C27.0163 13.8177 27.9997 16.1916 27.9997 18.667H29.333C29.6866 18.667 30.0258 18.8075 30.2758 19.0575C30.5259 19.3076 30.6663 19.6467 30.6663 20.0003V24.0003C30.6663 24.3539 30.5259 24.6931 30.2758 24.9431C30.0258 25.1932 29.6866 25.3337 29.333 25.3337H27.9997V26.667C27.9997 27.3742 27.7187 28.0525 27.2186 28.5526C26.7185 29.0527 26.0403 29.3337 25.333 29.3337H6.66634C5.9591 29.3337 5.28082 29.0527 4.78072 28.5526C4.28063 28.0525 3.99967 27.3742 3.99967 26.667V25.3337H2.66634C2.31272 25.3337 1.97358 25.1932 1.72353 24.9431C1.47348 24.6931 1.33301 24.3539 1.33301 24.0003V20.0003C1.33301 19.6467 1.47348 19.3076 1.72353 19.0575C1.97358 18.8075 2.31272 18.667 2.66634 18.667H3.99967C3.99967 16.1916 4.98301 13.8177 6.73334 12.0673C8.48368 10.317 10.8577 9.33366 13.333 9.33366H14.6663V7.64033C13.8663 7.18699 13.333 6.32033 13.333 5.33366C13.333 4.62641 13.614 3.94814 14.1141 3.44804C14.6142 2.94794 15.2924 2.66699 15.9997 2.66699ZM9.99967 17.3337C9.11562 17.3337 8.26777 17.6848 7.64265 18.31C7.01753 18.9351 6.66634 19.7829 6.66634 20.667C6.66634 21.551 7.01753 22.3989 7.64265 23.024C8.26777 23.6491 9.11562 24.0003 9.99967 24.0003C10.8837 24.0003 11.7316 23.6491 12.3567 23.024C12.9818 22.3989 13.333 21.551 13.333 20.667C13.333 19.7829 12.9818 18.9351 12.3567 18.31C11.7316 17.6848 10.8837 17.3337 9.99967 17.3337ZM21.9997 17.3337C21.1156 17.3337 20.2678 17.6848 19.6427 18.31C19.0175 18.9351 18.6663 19.7829 18.6663 20.667C18.6663 21.551 19.0175 22.3989 19.6427 23.024C20.2678 23.6491 21.1156 24.0003 21.9997 24.0003C22.8837 24.0003 23.7316 23.6491 24.3567 23.024C24.9818 22.3989 25.333 21.551 25.333 20.667C25.333 19.7829 24.9818 18.9351 24.3567 18.31C23.7316 17.6848 22.8837 17.3337 21.9997 17.3337Z" fill="#4E4B66"/>
</svg>
