<svg width="36" height="36" viewBox="0 0 36 36" fill="none" xmlns="http://www.w3.org/2000/svg">
<path d="M11.5095 3C11.788 3 12.055 3.11062 12.252 3.30754C12.4489 3.50445 12.5595 3.77152 12.5595 4.05V6.0135H23.835V4.0635C23.835 3.78502 23.9456 3.51795 24.1425 3.32104C24.3395 3.12412 24.6065 3.0135 24.885 3.0135C25.1635 3.0135 25.4305 3.12412 25.6275 3.32104C25.8244 3.51795 25.935 3.78502 25.935 4.0635V6.0135H30C30.7954 6.0135 31.5582 6.32936 32.1208 6.89165C32.6834 7.45393 32.9996 8.21661 33 9.012V30.0015C32.9996 30.7969 32.6834 31.5596 32.1208 32.1219C31.5582 32.6841 30.7954 33 30 33H6C5.20461 33 4.44178 32.6841 3.87921 32.1219C3.31664 31.5596 3.0004 30.7969 3 30.0015V9.012C3.0004 8.21661 3.31664 7.45393 3.87921 6.89165C4.44178 6.32936 5.20461 6.0135 6 6.0135H10.4595V4.0485C10.4599 3.77028 10.5707 3.5036 10.7676 3.30701C10.9644 3.11042 11.2313 3 11.5095 3ZM5.1 14.613V30.0015C5.1 30.1197 5.12328 30.2367 5.16851 30.3459C5.21374 30.4551 5.28003 30.5543 5.3636 30.6379C5.44718 30.7215 5.54639 30.7878 5.65558 30.833C5.76478 30.8782 5.88181 30.9015 6 30.9015H30C30.1182 30.9015 30.2352 30.8782 30.3444 30.833C30.4536 30.7878 30.5528 30.7215 30.6364 30.6379C30.72 30.5543 30.7863 30.4551 30.8315 30.3459C30.8767 30.2367 30.9 30.1197 30.9 30.0015V14.634L5.1 14.613ZM13.0005 24.9285V27.4275H10.5V24.9285H13.0005ZM19.2495 24.9285V27.4275H16.7505V24.9285H19.2495ZM25.5 24.9285V27.4275H22.9995V24.9285H25.5ZM13.0005 18.963V21.462H10.5V18.963H13.0005ZM19.2495 18.963V21.462H16.7505V18.963H19.2495ZM25.5 18.963V21.462H22.9995V18.963H25.5ZM10.4595 8.112H6C5.88181 8.112 5.76478 8.13528 5.65558 8.18051C5.54639 8.22574 5.44718 8.29203 5.3636 8.3756C5.28003 8.45918 5.21374 8.55839 5.16851 8.66758C5.12328 8.77678 5.1 8.89381 5.1 9.012V12.5145L30.9 12.5355V9.012C30.9 8.89381 30.8767 8.77678 30.8315 8.66758C30.7863 8.55839 30.72 8.45918 30.6364 8.3756C30.5528 8.29203 30.4536 8.22574 30.3444 8.18051C30.2352 8.13528 30.1182 8.112 30 8.112H25.935V9.5055C25.935 9.78398 25.8244 10.051 25.6275 10.248C25.4305 10.4449 25.1635 10.5555 24.885 10.5555C24.6065 10.5555 24.3395 10.4449 24.1425 10.248C23.9456 10.051 23.835 9.78398 23.835 9.5055V8.112H12.5595V9.492C12.5595 9.77048 12.4489 10.0375 12.252 10.2345C12.055 10.4314 11.788 10.542 11.5095 10.542C11.231 10.542 10.964 10.4314 10.767 10.2345C10.5701 10.0375 10.4595 9.77048 10.4595 9.492V8.112Z" fill="#5F2EEA"/>
</svg>
