<svg width="32" height="32" viewBox="0 0 32 32" fill="none" xmlns="http://www.w3.org/2000/svg">
<path d="M13.375 12.5C13.1429 12.5 12.9204 12.5922 12.7563 12.7563C12.5922 12.9204 12.5 13.1429 12.5 13.375V18.625C12.5 18.8571 12.5922 19.0796 12.7563 19.2437C12.9204 19.4078 13.1429 19.5 13.375 19.5H18.625C18.8571 19.5 19.0796 19.4078 19.2437 19.2437C19.4078 19.0796 19.5 18.8571 19.5 18.625V13.375C19.5 13.1429 19.4078 12.9204 19.2437 12.7563C19.0796 12.5922 18.8571 12.5 18.625 12.5H13.375Z" fill="#5F2EEA"/>
<path d="M11.625 2.875C11.625 2.64294 11.5328 2.42038 11.3687 2.25628C11.2046 2.09219 10.9821 2 10.75 2C10.5179 2 10.2954 2.09219 10.1313 2.25628C9.96719 2.42038 9.875 2.64294 9.875 2.875V5.5C8.71468 5.5 7.60188 5.96094 6.78141 6.78141C5.96094 7.60188 5.5 8.71468 5.5 9.875H2.875C2.64294 9.875 2.42038 9.96719 2.25628 10.1313C2.09219 10.2954 2 10.5179 2 10.75C2 10.9821 2.09219 11.2046 2.25628 11.3687C2.42038 11.5328 2.64294 11.625 2.875 11.625H5.5V13.375H2.875C2.64294 13.375 2.42038 13.4672 2.25628 13.6313C2.09219 13.7954 2 14.0179 2 14.25C2 14.4821 2.09219 14.7046 2.25628 14.8687C2.42038 15.0328 2.64294 15.125 2.875 15.125H5.5V16.875H2.875C2.64294 16.875 2.42038 16.9672 2.25628 17.1313C2.09219 17.2954 2 17.5179 2 17.75C2 17.9821 2.09219 18.2046 2.25628 18.3687C2.42038 18.5328 2.64294 18.625 2.875 18.625H5.5V20.375H2.875C2.64294 20.375 2.42038 20.4672 2.25628 20.6313C2.09219 20.7954 2 21.0179 2 21.25C2 21.4821 2.09219 21.7046 2.25628 21.8687C2.42038 22.0328 2.64294 22.125 2.875 22.125H5.5C5.5 23.2853 5.96094 24.3981 6.78141 25.2186C7.60188 26.0391 8.71468 26.5 9.875 26.5V29.125C9.875 29.3571 9.96719 29.5796 10.1313 29.7437C10.2954 29.9078 10.5179 30 10.75 30C10.9821 30 11.2046 29.9078 11.3687 29.7437C11.5328 29.5796 11.625 29.3571 11.625 29.125V26.5H13.375V29.125C13.375 29.3571 13.4672 29.5796 13.6313 29.7437C13.7954 29.9078 14.0179 30 14.25 30C14.4821 30 14.7046 29.9078 14.8687 29.7437C15.0328 29.5796 15.125 29.3571 15.125 29.125V26.5H16.875V29.125C16.875 29.3571 16.9672 29.5796 17.1313 29.7437C17.2954 29.9078 17.5179 30 17.75 30C17.9821 30 18.2046 29.9078 18.3687 29.7437C18.5328 29.5796 18.625 29.3571 18.625 29.125V26.5H20.375V29.125C20.375 29.3571 20.4672 29.5796 20.6313 29.7437C20.7954 29.9078 21.0179 30 21.25 30C21.4821 30 21.7046 29.9078 21.8687 29.7437C22.0328 29.5796 22.125 29.3571 22.125 29.125V26.5C23.2853 26.5 24.3981 26.0391 25.2186 25.2186C26.0391 24.3981 26.5 23.2853 26.5 22.125H29.125C29.3571 22.125 29.5796 22.0328 29.7437 21.8687C29.9078 21.7046 30 21.4821 30 21.25C30 21.0179 29.9078 20.7954 29.7437 20.6313C29.5796 20.4672 29.3571 20.375 29.125 20.375H26.5V18.625H29.125C29.3571 18.625 29.5796 18.5328 29.7437 18.3687C29.9078 18.2046 30 17.9821 30 17.75C30 17.5179 29.9078 17.2954 29.7437 17.1313C29.5796 16.9672 29.3571 16.875 29.125 16.875H26.5V15.125H29.125C29.3571 15.125 29.5796 15.0328 29.7437 14.8687C29.9078 14.7046 30 14.4821 30 14.25C30 14.0179 29.9078 13.7954 29.7437 13.6313C29.5796 13.4672 29.3571 13.375 29.125 13.375H26.5V11.625H29.125C29.3571 11.625 29.5796 11.5328 29.7437 11.3687C29.9078 11.2046 30 10.9821 30 10.75C30 10.5179 29.9078 10.2954 29.7437 10.1313C29.5796 9.96719 29.3571 9.875 29.125 9.875H26.5C26.5 8.71468 26.0391 7.60188 25.2186 6.78141C24.3981 5.96094 23.2853 5.5 22.125 5.5V2.875C22.125 2.64294 22.0328 2.42038 21.8687 2.25628C21.7046 2.09219 21.4821 2 21.25 2C21.0179 2 20.7954 2.09219 20.6313 2.25628C20.4672 2.42038 20.375 2.64294 20.375 2.875V5.5H18.625V2.875C18.625 2.64294 18.5328 2.42038 18.3687 2.25628C18.2046 2.09219 17.9821 2 17.75 2C17.5179 2 17.2954 2.09219 17.1313 2.25628C16.9672 2.42038 16.875 2.64294 16.875 2.875V5.5H15.125V2.875C15.125 2.64294 15.0328 2.42038 14.8687 2.25628C14.7046 2.09219 14.4821 2 14.25 2C14.0179 2 13.7954 2.09219 13.6313 2.25628C13.4672 2.42038 13.375 2.64294 13.375 2.875V5.5H11.625V2.875ZM13.375 10.75H18.625C19.3212 10.75 19.9889 11.0266 20.4812 11.5188C20.9734 12.0111 21.25 12.6788 21.25 13.375V18.625C21.25 19.3212 20.9734 19.9889 20.4812 20.4812C19.9889 20.9734 19.3212 21.25 18.625 21.25H13.375C12.6788 21.25 12.0111 20.9734 11.5188 20.4812C11.0266 19.9889 10.75 19.3212 10.75 18.625V13.375C10.75 12.6788 11.0266 12.0111 11.5188 11.5188C12.0111 11.0266 12.6788 10.75 13.375 10.75Z" fill="#5F2EEA"/>
</svg>
