<svg width="32" height="32" viewBox="0 0 32 32" fill="none" xmlns="http://www.w3.org/2000/svg">
<path d="M11.1111 13.5556V27H6.22222C5.89807 27 5.58719 26.8712 5.35798 26.642C5.12877 26.4128 5 26.1019 5 25.7778V13.5556H11.1111ZM27 13.5556V25.7778C27 26.1019 26.8712 26.4128 26.642 26.642C26.4128 26.8712 26.1019 27 25.7778 27H13.5556V13.5556H27ZM25.7778 5C26.1019 5 26.4128 5.12877 26.642 5.35798C26.8712 5.58719 27 5.89807 27 6.22222V11.1111H5V6.22222C5 5.89807 5.12877 5.58719 5.35798 5.35798C5.58719 5.12877 5.89807 5 6.22222 5H25.7778Z" fill="#5F2EEA"/>
</svg>
