<svg width="47" height="47" viewBox="0 0 47 47" fill="none" xmlns="http://www.w3.org/2000/svg">
<rect width="9.8995" height="40" transform="matrix(0.707107 0.707107 0 1 0 0)" fill="#2A00A2"/>
<rect width="40" height="9.9" transform="matrix(1 0 0.707107 0.707107 0 0)" fill="#2A00A2"/>
<rect x="7" y="7" width="40" height="40" fill="#5F2EEA"/>
<path d="M14.184 34C14.008 34 13.92 33.912 13.92 33.736V18.544C13.92 18.368 14.008 18.28 14.184 18.28H18.672C20.528 18.28 21.92 18.608 22.848 19.264C23.776 19.904 24.24 20.88 24.24 22.192C24.24 23.072 24.032 23.784 23.616 24.328C23.2 24.872 22.528 25.312 21.6 25.648V25.696C22.688 25.904 23.512 26.336 24.072 26.992C24.632 27.648 24.912 28.52 24.912 29.608C24.912 31.112 24.408 32.224 23.4 32.944C22.408 33.648 20.832 34 18.672 34H14.184ZM16.344 31.936H18.696C20.056 31.936 21.024 31.744 21.6 31.36C22.192 30.976 22.488 30.336 22.488 29.44C22.488 28.544 22.192 27.888 21.6 27.472C21.008 27.056 20.064 26.848 18.768 26.848H16.344V31.936ZM16.344 24.952H18.576C19.696 24.952 20.512 24.76 21.024 24.376C21.552 23.992 21.816 23.392 21.816 22.576C21.816 21.76 21.552 21.184 21.024 20.848C20.496 20.496 19.616 20.32 18.384 20.32H16.344V24.952ZM29.1059 34C28.9299 34 28.8419 33.912 28.8419 33.736V18.544C28.8419 18.368 28.9299 18.28 29.1059 18.28H33.5939C35.4499 18.28 36.8419 18.608 37.7699 19.264C38.6979 19.904 39.1619 20.88 39.1619 22.192C39.1619 23.072 38.9539 23.784 38.5379 24.328C38.1219 24.872 37.4499 25.312 36.5219 25.648V25.696C37.6099 25.904 38.4339 26.336 38.9939 26.992C39.5539 27.648 39.8339 28.52 39.8339 29.608C39.8339 31.112 39.3299 32.224 38.3219 32.944C37.3299 33.648 35.7539 34 33.5939 34H29.1059ZM31.2659 31.936H33.6179C34.9779 31.936 35.9459 31.744 36.5219 31.36C37.1139 30.976 37.4099 30.336 37.4099 29.44C37.4099 28.544 37.1139 27.888 36.5219 27.472C35.9299 27.056 34.9859 26.848 33.6899 26.848H31.2659V31.936ZM31.2659 24.952H33.4979C34.6179 24.952 35.4339 24.76 35.9459 24.376C36.4739 23.992 36.7379 23.392 36.7379 22.576C36.7379 21.76 36.4739 21.184 35.9459 20.848C35.4179 20.496 34.5379 20.32 33.3059 20.32H31.2659V24.952Z" fill="white"/>
</svg>
