<svg width="36" height="36" viewBox="0 0 36 36" fill="none" xmlns="http://www.w3.org/2000/svg">
<path d="M31.5 6.75H4.5C3.90326 6.75 3.33097 6.98705 2.90901 7.40901C2.48705 7.83097 2.25 8.40326 2.25 9V27C2.25 27.5967 2.48705 28.169 2.90901 28.591C3.33097 29.0129 3.90326 29.25 4.5 29.25H31.5C32.0967 29.25 32.669 29.0129 33.091 28.591C33.5129 28.169 33.75 27.5967 33.75 27V9C33.75 8.40326 33.5129 7.83097 33.091 7.40901C32.669 6.98705 32.0967 6.75 31.5 6.75ZM29.025 9L18 16.6275L6.975 9H29.025ZM4.5 27V10.0237L17.3588 18.9225C17.5471 19.0531 17.7708 19.1231 18 19.1231C18.2292 19.1231 18.4529 19.0531 18.6413 18.9225L31.5 10.0237V27H4.5Z" fill="#5F2EEA"/>
</svg>
