<svg width="36" height="36" viewBox="0 0 36 36" fill="none" xmlns="http://www.w3.org/2000/svg">
<path d="M8.25 7.11133H27.75C28.612 7.11133 29.4386 7.4391 30.0481 8.02254C30.6576 8.60598 31 9.39729 31 10.2224V28.8888C31 29.7139 30.6576 30.5052 30.0481 31.0886C29.4386 31.6721 28.612 31.9998 27.75 31.9998H8.25C7.38805 31.9998 6.5614 31.6721 5.9519 31.0886C5.34241 30.5052 5 29.7139 5 28.8888V10.2224C5 9.39729 5.34241 8.60598 5.9519 8.02254C6.5614 7.4391 7.38805 7.11133 8.25 7.11133Z" stroke="#5F2EEA" stroke-width="2" stroke-linecap="round" stroke-linejoin="round"/>
<path d="M13.125 24.2219C14.75 25.2595 16.375 25.7775 18 25.7775C19.625 25.7775 21.25 25.2595 22.875 24.2219M13.125 10.2221L11.5 4M22.875 10.2221L24.5 4M13.125 17.9998V16.4443M22.875 17.9998V16.4443" stroke="#5F2EEA" stroke-width="2" stroke-linecap="round" stroke-linejoin="round"/>
</svg>
