<svg width="32" height="32" viewBox="0 0 32 32" fill="none" xmlns="http://www.w3.org/2000/svg">
<path d="M23.7337 26.667C23.2003 28.267 21.7337 29.3337 20.0003 29.3337H6.66699C4.40033 29.3337 2.66699 27.6003 2.66699 25.3337V24.0003H18.9337C19.467 25.6003 20.9337 26.667 22.667 26.667H23.7337ZM25.3337 2.66699H10.667C8.40033 2.66699 6.66699 4.40033 6.66699 6.66699V21.3337H21.3337V22.667C21.3337 23.467 21.867 24.0003 22.667 24.0003H24.0003V6.66699C24.0003 5.86699 24.5337 5.33366 25.3337 5.33366C26.1337 5.33366 26.667 5.86699 26.667 6.66699V8.00033H29.3337V6.66699C29.3337 4.40033 27.6003 2.66699 25.3337 2.66699Z" fill="#4E4B66"/>
</svg>
