<svg width="32" height="32" viewBox="0 0 32 32" fill="none" xmlns="http://www.w3.org/2000/svg">
<path d="M23.7332 26.6667C23.1998 28.2667 21.7332 29.3333 19.9998 29.3333H6.6665C4.39984 29.3333 2.6665 27.6 2.6665 25.3333V24H18.9332C19.4665 25.6 20.9332 26.6667 22.6665 26.6667H23.7332ZM25.3332 2.66666H10.6665C8.39984 2.66666 6.6665 4.39999 6.6665 6.66666V21.3333H21.3332V22.6667C21.3332 23.4667 21.8665 24 22.6665 24H23.9998V6.66666C23.9998 5.86666 24.5332 5.33332 25.3332 5.33332C26.1332 5.33332 26.6665 5.86666 26.6665 6.66666V7.99999H29.3332V6.66666C29.3332 4.39999 27.5998 2.66666 25.3332 2.66666Z" fill="#5F2EEA"/>
</svg>
