<svg width="32" height="32" viewBox="0 0 32 32" fill="none" xmlns="http://www.w3.org/2000/svg">
<path d="M15.9998 2.66663C8.63984 2.66663 2.6665 8.63996 2.6665 16C2.6665 23.36 8.63984 29.3333 15.9998 29.3333C23.3598 29.3333 29.3332 23.36 29.3332 16C29.3332 8.63996 23.3598 2.66663 15.9998 2.66663ZM22.1865 11.7333C21.9865 13.84 21.1198 18.96 20.6798 21.32C20.4932 22.32 20.1198 22.6533 19.7732 22.6933C18.9998 22.76 18.4132 22.1866 17.6665 21.6933C16.4932 20.92 15.8265 20.44 14.6932 19.6933C13.3732 18.8266 14.2265 18.3466 14.9865 17.5733C15.1865 17.3733 18.5998 14.2666 18.6665 13.9866C18.6758 13.9442 18.6745 13.9002 18.6629 13.8584C18.6513 13.8165 18.6296 13.7782 18.5998 13.7466C18.5198 13.68 18.4132 13.7066 18.3198 13.72C18.1998 13.7466 16.3332 14.9866 12.6932 17.44C12.1598 17.8 11.6798 17.9866 11.2532 17.9733C10.7732 17.96 9.8665 17.7066 9.1865 17.48C8.3465 17.2133 7.69317 17.0666 7.7465 16.6C7.77317 16.36 8.1065 16.12 8.73317 15.8666C12.6265 14.1733 15.2132 13.0533 16.5065 12.52C20.2132 10.9733 20.9732 10.7066 21.4798 10.7066C21.5865 10.7066 21.8398 10.7333 21.9998 10.8666C22.1332 10.9733 22.1732 11.12 22.1865 11.2266C22.1732 11.3066 22.1998 11.5466 22.1865 11.7333Z" fill="#5F2EEA"/>
</svg>
