<svg width="32" height="32" viewBox="0 0 32 32" fill="none" xmlns="http://www.w3.org/2000/svg">
<path d="M16.0003 2.6665C8.64033 2.6665 2.66699 8.63984 2.66699 15.9998C2.66699 23.3598 8.64033 29.3332 16.0003 29.3332C23.3603 29.3332 29.3337 23.3598 29.3337 15.9998C29.3337 8.63984 23.3603 2.6665 16.0003 2.6665ZM22.187 11.7332C21.987 13.8398 21.1203 18.9598 20.6803 21.3198C20.4937 22.3198 20.1203 22.6532 19.7737 22.6932C19.0003 22.7598 18.4137 22.1865 17.667 21.6932C16.4937 20.9198 15.827 20.4398 14.6937 19.6932C13.3737 18.8265 14.227 18.3465 14.987 17.5732C15.187 17.3732 18.6003 14.2665 18.667 13.9865C18.6763 13.9441 18.675 13.9001 18.6634 13.8582C18.6518 13.8164 18.6301 13.7781 18.6003 13.7465C18.5203 13.6798 18.4137 13.7065 18.3203 13.7198C18.2003 13.7465 16.3337 14.9865 12.6937 17.4398C12.1603 17.7998 11.6803 17.9865 11.2537 17.9732C10.7737 17.9598 9.86699 17.7065 9.18699 17.4798C8.34699 17.2132 7.69366 17.0665 7.74699 16.5998C7.77366 16.3598 8.10699 16.1198 8.73366 15.8665C12.627 14.1732 15.2137 13.0532 16.507 12.5198C20.2137 10.9732 20.9737 10.7065 21.4803 10.7065C21.587 10.7065 21.8403 10.7332 22.0003 10.8665C22.1337 10.9732 22.1737 11.1198 22.187 11.2265C22.1737 11.3065 22.2003 11.5465 22.187 11.7332Z" fill="#5F2EEA"/>
</svg>
