<svg width="32" height="32" viewBox="0 0 32 32" fill="none" xmlns="http://www.w3.org/2000/svg">
<path d="M5.68 5.68C4 7.376 4 10.088 4 15.52V16.48C4 21.904 4 24.616 5.68 26.32C7.376 28 10.088 28 15.52 28H16.48C21.904 28 24.616 28 26.32 26.32C28 24.624 28 21.912 28 16.48V15.52C28 10.096 28 7.384 26.32 5.68C24.624 4 21.912 4 16.48 4H15.52C10.096 4 7.384 4 5.68 5.68ZM8.048 11.304H10.8C10.888 15.88 12.904 17.816 14.504 18.216V11.304H17.088V15.248C18.664 15.08 20.328 13.28 20.888 11.296H23.464C23.254 12.323 22.8345 13.2957 22.2316 14.1533C21.6287 15.0109 20.8554 15.7348 19.96 16.28C20.9592 16.7772 21.8417 17.4806 22.5491 18.3438C23.2566 19.2071 23.7729 20.2105 24.064 21.288H21.224C20.616 19.392 19.096 17.92 17.088 17.72V21.288H16.768C11.296 21.288 8.176 17.544 8.048 11.304Z" fill="#5F2EEA"/>
</svg>
