<svg width="214" height="50" viewBox="0 0 214 50" fill="none" xmlns="http://www.w3.org/2000/svg">
<path d="M72.9375 28.0156H67.0938L67.0625 24.7969H71.9688C72.8333 24.7969 73.5417 24.6875 74.0938 24.4688C74.6458 24.2396 75.0573 23.9115 75.3281 23.4844C75.6094 23.0469 75.75 22.5156 75.75 21.8906C75.75 21.1823 75.6146 20.6094 75.3438 20.1719C75.0833 19.7344 74.6719 19.4167 74.1094 19.2188C73.5573 19.0208 72.8438 18.9219 71.9688 18.9219H68.7188V38H64.0312V15.25H71.9688C73.2917 15.25 74.474 15.375 75.5156 15.625C76.5677 15.875 77.4583 16.2552 78.1875 16.7656C78.9167 17.276 79.474 17.9219 79.8594 18.7031C80.2448 19.474 80.4375 20.3906 80.4375 21.4531C80.4375 22.3906 80.224 23.2552 79.7969 24.0469C79.3802 24.8385 78.7188 25.4844 77.8125 25.9844C76.9167 26.4844 75.7448 26.7604 74.2969 26.8125L72.9375 28.0156ZM72.7344 38H65.8125L67.6406 34.3438H72.7344C73.5573 34.3438 74.2292 34.2135 74.75 33.9531C75.2708 33.6823 75.6562 33.3177 75.9062 32.8594C76.1562 32.401 76.2812 31.875 76.2812 31.2812C76.2812 30.6146 76.1667 30.0365 75.9375 29.5469C75.7188 29.0573 75.3646 28.6823 74.875 28.4219C74.3854 28.151 73.7396 28.0156 72.9375 28.0156H68.4219L68.4531 24.7969H74.0781L75.1562 26.0625C76.5417 26.0417 77.6562 26.2865 78.5 26.7969C79.3542 27.2969 79.974 27.9479 80.3594 28.75C80.7552 29.5521 80.9531 30.4115 80.9531 31.3281C80.9531 32.7865 80.6354 34.0156 80 35.0156C79.3646 36.0052 78.4323 36.75 77.2031 37.25C75.9844 37.75 74.4948 38 72.7344 38ZM83.4688 29.7188V29.3906C83.4688 28.151 83.6458 27.0104 84 25.9688C84.3542 24.9167 84.8698 24.0052 85.5469 23.2344C86.224 22.4635 87.0573 21.8646 88.0469 21.4375C89.0365 21 90.1719 20.7812 91.4531 20.7812C92.7344 20.7812 93.875 21 94.875 21.4375C95.875 21.8646 96.7135 22.4635 97.3906 23.2344C98.0781 24.0052 98.599 24.9167 98.9531 25.9688C99.3073 27.0104 99.4844 28.151 99.4844 29.3906V29.7188C99.4844 30.9479 99.3073 32.0885 98.9531 33.1406C98.599 34.1823 98.0781 35.0938 97.3906 35.875C96.7135 36.6458 95.8802 37.2448 94.8906 37.6719C93.901 38.099 92.7656 38.3125 91.4844 38.3125C90.2031 38.3125 89.0625 38.099 88.0625 37.6719C87.0729 37.2448 86.2344 36.6458 85.5469 35.875C84.8698 35.0938 84.3542 34.1823 84 33.1406C83.6458 32.0885 83.4688 30.9479 83.4688 29.7188ZM87.9688 29.3906V29.7188C87.9688 30.4271 88.0312 31.0885 88.1562 31.7031C88.2812 32.3177 88.4792 32.8594 88.75 33.3281C89.0312 33.7865 89.3958 34.1458 89.8438 34.4062C90.2917 34.6667 90.8385 34.7969 91.4844 34.7969C92.1094 34.7969 92.6458 34.6667 93.0938 34.4062C93.5417 34.1458 93.901 33.7865 94.1719 33.3281C94.4427 32.8594 94.6406 32.3177 94.7656 31.7031C94.901 31.0885 94.9688 30.4271 94.9688 29.7188V29.3906C94.9688 28.7031 94.901 28.0573 94.7656 27.4531C94.6406 26.8385 94.4375 26.2969 94.1562 25.8281C93.8854 25.349 93.526 24.974 93.0781 24.7031C92.6302 24.4323 92.0885 24.2969 91.4531 24.2969C90.8177 24.2969 90.276 24.4323 89.8281 24.7031C89.3906 24.974 89.0312 25.349 88.75 25.8281C88.4792 26.2969 88.2812 26.8385 88.1562 27.4531C88.0312 28.0573 87.9688 28.7031 87.9688 29.3906ZM110.531 21.0938V24.2812H100.688V21.0938H110.531ZM103.125 16.9219H107.625V32.9062C107.625 33.3958 107.688 33.7708 107.812 34.0312C107.948 34.2917 108.146 34.474 108.406 34.5781C108.667 34.6719 108.995 34.7188 109.391 34.7188C109.672 34.7188 109.922 34.7083 110.141 34.6875C110.37 34.6562 110.562 34.625 110.719 34.5938L110.734 37.9062C110.349 38.0312 109.932 38.1302 109.484 38.2031C109.036 38.276 108.542 38.3125 108 38.3125C107.01 38.3125 106.146 38.151 105.406 37.8281C104.677 37.4948 104.115 36.9635 103.719 36.2344C103.323 35.5052 103.125 34.5469 103.125 33.3594V16.9219Z" fill="#2A00A2"/>
<path d="M122.281 28.0156H116.438L116.406 24.7969H121.312C122.177 24.7969 122.885 24.6875 123.438 24.4688C123.99 24.2396 124.401 23.9115 124.672 23.4844C124.953 23.0469 125.094 22.5156 125.094 21.8906C125.094 21.1823 124.958 20.6094 124.688 20.1719C124.427 19.7344 124.016 19.4167 123.453 19.2188C122.901 19.0208 122.188 18.9219 121.312 18.9219H118.062V38H113.375V15.25H121.312C122.635 15.25 123.818 15.375 124.859 15.625C125.911 15.875 126.802 16.2552 127.531 16.7656C128.26 17.276 128.818 17.9219 129.203 18.7031C129.589 19.474 129.781 20.3906 129.781 21.4531C129.781 22.3906 129.568 23.2552 129.141 24.0469C128.724 24.8385 128.062 25.4844 127.156 25.9844C126.26 26.4844 125.089 26.7604 123.641 26.8125L122.281 28.0156ZM122.078 38H115.156L116.984 34.3438H122.078C122.901 34.3438 123.573 34.2135 124.094 33.9531C124.615 33.6823 125 33.3177 125.25 32.8594C125.5 32.401 125.625 31.875 125.625 31.2812C125.625 30.6146 125.51 30.0365 125.281 29.5469C125.062 29.0573 124.708 28.6823 124.219 28.4219C123.729 28.151 123.083 28.0156 122.281 28.0156H117.766L117.797 24.7969H123.422L124.5 26.0625C125.885 26.0417 127 26.2865 127.844 26.7969C128.698 27.2969 129.318 27.9479 129.703 28.75C130.099 29.5521 130.297 30.4115 130.297 31.3281C130.297 32.7865 129.979 34.0156 129.344 35.0156C128.708 36.0052 127.776 36.75 126.547 37.25C125.328 37.75 123.839 38 122.078 38ZM143.531 33.9531V21.0938H148.031V38H143.797L143.531 33.9531ZM144.031 30.4844L145.359 30.4531C145.359 31.5781 145.229 32.625 144.969 33.5938C144.708 34.5521 144.318 35.3854 143.797 36.0938C143.276 36.7917 142.62 37.3385 141.828 37.7344C141.036 38.1198 140.104 38.3125 139.031 38.3125C138.208 38.3125 137.448 38.1979 136.75 37.9688C136.062 37.7292 135.469 37.3594 134.969 36.8594C134.479 36.349 134.094 35.6979 133.812 34.9062C133.542 34.1042 133.406 33.1406 133.406 32.0156V21.0938H137.906V32.0469C137.906 32.5469 137.964 32.9688 138.078 33.3125C138.203 33.6562 138.375 33.9375 138.594 34.1562C138.812 34.375 139.068 34.5312 139.359 34.625C139.661 34.7188 139.995 34.7656 140.359 34.7656C141.286 34.7656 142.016 34.5781 142.547 34.2031C143.089 33.8281 143.469 33.3177 143.688 32.6719C143.917 32.0156 144.031 31.2865 144.031 30.4844ZM156.219 21.0938V38H151.703V21.0938H156.219ZM151.422 16.6875C151.422 16.0312 151.651 15.4896 152.109 15.0625C152.568 14.6354 153.182 14.4219 153.953 14.4219C154.714 14.4219 155.323 14.6354 155.781 15.0625C156.25 15.4896 156.484 16.0312 156.484 16.6875C156.484 17.3438 156.25 17.8854 155.781 18.3125C155.323 18.7396 154.714 18.9531 153.953 18.9531C153.182 18.9531 152.568 18.7396 152.109 18.3125C151.651 17.8854 151.422 17.3438 151.422 16.6875ZM164.688 14V38H160.172V14H164.688ZM178.391 34.3125V14H182.922V38H178.844L178.391 34.3125ZM167.703 29.75V29.4219C167.703 28.1302 167.849 26.9583 168.141 25.9062C168.432 24.8438 168.859 23.9323 169.422 23.1719C169.984 22.4115 170.677 21.8229 171.5 21.4062C172.323 20.9896 173.26 20.7812 174.312 20.7812C175.302 20.7812 176.167 20.9896 176.906 21.4062C177.656 21.8229 178.292 22.4167 178.812 23.1875C179.344 23.9479 179.771 24.849 180.094 25.8906C180.417 26.9219 180.651 28.0521 180.797 29.2812V30C180.651 31.1771 180.417 32.2708 180.094 33.2812C179.771 34.2917 179.344 35.1771 178.812 35.9375C178.292 36.6875 177.656 37.2708 176.906 37.6875C176.156 38.1042 175.281 38.3125 174.281 38.3125C173.229 38.3125 172.292 38.099 171.469 37.6719C170.656 37.2448 169.969 36.6458 169.406 35.875C168.854 35.1042 168.432 34.1979 168.141 33.1562C167.849 32.1146 167.703 30.9792 167.703 29.75ZM172.203 29.4219V29.75C172.203 30.4479 172.255 31.099 172.359 31.7031C172.474 32.3073 172.656 32.8438 172.906 33.3125C173.167 33.7708 173.5 34.1302 173.906 34.3906C174.323 34.6406 174.828 34.7656 175.422 34.7656C176.193 34.7656 176.828 34.5938 177.328 34.25C177.828 33.8958 178.208 33.4115 178.469 32.7969C178.74 32.1823 178.896 31.474 178.938 30.6719V28.625C178.906 27.9688 178.812 27.3802 178.656 26.8594C178.51 26.3281 178.292 25.875 178 25.5C177.719 25.125 177.365 24.8333 176.938 24.625C176.521 24.4167 176.026 24.3125 175.453 24.3125C174.87 24.3125 174.37 24.4479 173.953 24.7188C173.536 24.9792 173.198 25.3385 172.938 25.7969C172.688 26.2552 172.5 26.7969 172.375 27.4219C172.26 28.0365 172.203 28.7031 172.203 29.4219ZM194.219 38.3125C192.906 38.3125 191.729 38.1042 190.688 37.6875C189.646 37.2604 188.76 36.6719 188.031 35.9219C187.312 35.1719 186.76 34.3021 186.375 33.3125C185.99 32.3125 185.797 31.25 185.797 30.125V29.5C185.797 28.2188 185.979 27.0469 186.344 25.9844C186.708 24.9219 187.229 24 187.906 23.2188C188.594 22.4375 189.427 21.8385 190.406 21.4219C191.385 20.9948 192.49 20.7812 193.719 20.7812C194.917 20.7812 195.979 20.9792 196.906 21.375C197.833 21.7708 198.609 22.3333 199.234 23.0625C199.87 23.7917 200.349 24.6667 200.672 25.6875C200.995 26.6979 201.156 27.8229 201.156 29.0625V30.9375H187.719V27.9375H196.734V27.5938C196.734 26.9688 196.62 26.4115 196.391 25.9219C196.172 25.4219 195.839 25.026 195.391 24.7344C194.943 24.4427 194.37 24.2969 193.672 24.2969C193.078 24.2969 192.568 24.4271 192.141 24.6875C191.714 24.9479 191.365 25.3125 191.094 25.7812C190.833 26.25 190.635 26.8021 190.5 27.4375C190.375 28.0625 190.312 28.75 190.312 29.5V30.125C190.312 30.8021 190.406 31.4271 190.594 32C190.792 32.5729 191.068 33.0677 191.422 33.4844C191.786 33.901 192.224 34.224 192.734 34.4531C193.255 34.6823 193.844 34.7969 194.5 34.7969C195.312 34.7969 196.068 34.6406 196.766 34.3281C197.474 34.0052 198.083 33.5208 198.594 32.875L200.781 35.25C200.427 35.7604 199.943 36.25 199.328 36.7188C198.724 37.1875 197.995 37.5729 197.141 37.875C196.286 38.1667 195.312 38.3125 194.219 38.3125ZM208.219 24.7812V38H203.719V21.0938H207.953L208.219 24.7812ZM213.312 20.9844L213.234 25.1562C213.016 25.125 212.75 25.099 212.438 25.0781C212.135 25.0469 211.859 25.0312 211.609 25.0312C210.974 25.0312 210.422 25.1146 209.953 25.2812C209.495 25.4375 209.109 25.6719 208.797 25.9844C208.495 26.2969 208.266 26.6771 208.109 27.125C207.964 27.5729 207.88 28.0833 207.859 28.6562L206.953 28.375C206.953 27.2812 207.062 26.276 207.281 25.3594C207.5 24.4323 207.818 23.625 208.234 22.9375C208.661 22.25 209.182 21.7188 209.797 21.3438C210.411 20.9688 211.115 20.7812 211.906 20.7812C212.156 20.7812 212.411 20.8021 212.672 20.8438C212.932 20.875 213.146 20.9219 213.312 20.9844Z" fill="#5F2EEA"/>
<rect width="10.5313" height="42.5532" transform="matrix(0.707104 0.70711 0 1 0 0)" fill="#2A00A2"/>
<rect width="42.5529" height="10.5319" transform="matrix(1 0 0.707104 0.70711 0 0)" fill="#2A00A2"/>
<rect x="7.44629" y="7.44678" width="42.5529" height="42.5532" fill="#5F2EEA"/>
<path d="M16.184 36C16.008 36 15.92 35.912 15.92 35.736V20.544C15.92 20.368 16.008 20.28 16.184 20.28H20.672C22.528 20.28 23.92 20.608 24.848 21.264C25.776 21.904 26.24 22.88 26.24 24.192C26.24 25.072 26.032 25.784 25.616 26.328C25.2 26.872 24.528 27.312 23.6 27.648V27.696C24.688 27.904 25.512 28.336 26.072 28.992C26.632 29.648 26.912 30.52 26.912 31.608C26.912 33.112 26.408 34.224 25.4 34.944C24.408 35.648 22.832 36 20.672 36H16.184ZM18.344 33.936H20.696C22.056 33.936 23.024 33.744 23.6 33.36C24.192 32.976 24.488 32.336 24.488 31.44C24.488 30.544 24.192 29.888 23.6 29.472C23.008 29.056 22.064 28.848 20.768 28.848H18.344V33.936ZM18.344 26.952H20.576C21.696 26.952 22.512 26.76 23.024 26.376C23.552 25.992 23.816 25.392 23.816 24.576C23.816 23.76 23.552 23.184 23.024 22.848C22.496 22.496 21.616 22.32 20.384 22.32H18.344V26.952ZM31.1059 36C30.9299 36 30.8419 35.912 30.8419 35.736V20.544C30.8419 20.368 30.9299 20.28 31.1059 20.28H35.5939C37.4499 20.28 38.8419 20.608 39.7699 21.264C40.6979 21.904 41.1619 22.88 41.1619 24.192C41.1619 25.072 40.9539 25.784 40.5379 26.328C40.1219 26.872 39.4499 27.312 38.5219 27.648V27.696C39.6099 27.904 40.4339 28.336 40.9939 28.992C41.5539 29.648 41.8339 30.52 41.8339 31.608C41.8339 33.112 41.3299 34.224 40.3219 34.944C39.3299 35.648 37.7539 36 35.5939 36H31.1059ZM33.2659 33.936H35.6179C36.9779 33.936 37.9459 33.744 38.5219 33.36C39.1139 32.976 39.4099 32.336 39.4099 31.44C39.4099 30.544 39.1139 29.888 38.5219 29.472C37.9299 29.056 36.9859 28.848 35.6899 28.848H33.2659V33.936ZM33.2659 26.952H35.4979C36.6179 26.952 37.4339 26.76 37.9459 26.376C38.4739 25.992 38.7379 25.392 38.7379 24.576C38.7379 23.76 38.4739 23.184 37.9459 22.848C37.4179 22.496 36.5379 22.32 35.3059 22.32H33.2659V26.952Z" fill="white"/>
</svg>
