<svg width="50" height="50" viewBox="0 0 50 50" fill="none" xmlns="http://www.w3.org/2000/svg">
<path d="M7.44672 7.44679L0 0V42.5532L7.44672 50V7.44679Z" fill="#2A00A2"/>
<path d="M42.5529 0H0L7.44715 7.44721H50L42.5529 0Z" fill="#2A00A2"/>
<path d="M49.9992 7.44678H7.44629V50H49.9992V7.44678Z" fill="#5F2EEA"/>
<path d="M16.1839 35.9998C16.0079 35.9998 15.9199 35.9118 15.9199 35.7358V20.5438C15.9199 20.3678 16.0079 20.2798 16.1839 20.2798H20.6719C22.5279 20.2798 23.9199 20.6078 24.8479 21.2638C25.7759 21.9038 26.2399 22.8798 26.2399 24.1918C26.2399 25.0718 26.0319 25.7838 25.6159 26.3278C25.1999 26.8718 24.5279 27.3118 23.5999 27.6478V27.6958C24.6879 27.9038 25.5119 28.3358 26.0719 28.9918C26.6319 29.6478 26.9119 30.5198 26.9119 31.6078C26.9119 33.1118 26.4079 34.2238 25.3999 34.9438C24.4079 35.6478 22.8319 35.9998 20.6719 35.9998H16.1839ZM18.3439 33.9358H20.6959C22.0559 33.9358 23.0239 33.7438 23.5999 33.3598C24.1919 32.9758 24.4879 32.3358 24.4879 31.4398C24.4879 30.5438 24.1919 29.8878 23.5999 29.4718C23.0079 29.0558 22.0639 28.8478 20.7679 28.8478H18.3439V33.9358ZM18.3439 26.9518H20.5759C21.6959 26.9518 22.5119 26.7598 23.0239 26.3758C23.5519 25.9918 23.8159 25.3918 23.8159 24.5758C23.8159 23.7598 23.5519 23.1838 23.0239 22.8478C22.4959 22.4958 21.6159 22.3198 20.3839 22.3198H18.3439V26.9518ZM31.1058 35.9998C30.9298 35.9998 30.8418 35.9118 30.8418 35.7358V20.5438C30.8418 20.3678 30.9298 20.2798 31.1058 20.2798H35.5938C37.4498 20.2798 38.8418 20.6078 39.7698 21.2638C40.6978 21.9038 41.1618 22.8798 41.1618 24.1918C41.1618 25.0718 40.9538 25.7838 40.5378 26.3278C40.1218 26.8718 39.4498 27.3118 38.5218 27.6478V27.6958C39.6098 27.9038 40.4338 28.3358 40.9938 28.9918C41.5538 29.6478 41.8338 30.5198 41.8338 31.6078C41.8338 33.1118 41.3298 34.2238 40.3218 34.9438C39.3298 35.6478 37.7538 35.9998 35.5938 35.9998H31.1058ZM33.2658 33.9358H35.6178C36.9778 33.9358 37.9458 33.7438 38.5218 33.3598C39.1138 32.9758 39.4098 32.3358 39.4098 31.4398C39.4098 30.5438 39.1138 29.8878 38.5218 29.4718C37.9298 29.0558 36.9858 28.8478 35.6898 28.8478H33.2658V33.9358ZM33.2658 26.9518H35.4978C36.6178 26.9518 37.4338 26.7598 37.9458 26.3758C38.4738 25.9918 38.7378 25.3918 38.7378 24.5758C38.7378 23.7598 38.4738 23.1838 37.9458 22.8478C37.4178 22.4958 36.5378 22.3198 35.3058 22.3198H33.2658V26.9518Z" fill="white"/>
</svg>
