<svg width="32" height="32" viewBox="0 0 32 32" fill="none" xmlns="http://www.w3.org/2000/svg">
<path d="M6 22.4951C6 23.8701 6.8975 24.9951 8 24.9951C8.24131 24.9897 8.47899 24.9353 8.69861 24.8351C8.91822 24.735 9.11518 24.5913 9.2775 24.4126C9.46174 24.225 9.71248 24.1174 9.97543 24.1133C10.2384 24.1092 10.4924 24.2089 10.6824 24.3906C10.8724 24.5724 10.9831 24.8218 10.9907 25.0846C10.9982 25.3475 10.9018 25.6028 10.7225 25.7951C10.3743 26.1699 9.95323 26.4697 9.48508 26.6761C9.01694 26.8824 8.51159 26.991 8 26.9951C5.79375 26.9951 4 24.9764 4 22.4951C4 20.0139 5.79375 17.9951 8 17.9951C8.51159 17.9993 9.01694 18.1078 9.48508 18.3142C9.95323 18.5205 10.3743 18.8203 10.7225 19.1951C10.9018 19.3875 10.9982 19.6427 10.9907 19.9056C10.9831 20.1685 10.8724 20.4178 10.6824 20.5996C10.4924 20.7814 10.2384 20.881 9.97543 20.8769C9.71248 20.8728 9.46174 20.7653 9.2775 20.5776C9.11518 20.399 8.91822 20.2552 8.69861 20.1551C8.47899 20.0549 8.24131 20.0005 8 19.9951C6.8975 19.9951 6 21.1201 6 22.4951ZM15.95 21.4089C15.45 21.2639 14.9325 21.1151 14.6438 20.9289C14.4875 20.8276 14.49 20.8039 14.5037 20.6914C14.5059 20.6005 14.5298 20.5115 14.5732 20.4317C14.6167 20.352 14.6786 20.2837 14.7537 20.2326C15.3287 19.8426 16.6713 20.0164 17.2313 20.1626C17.4878 20.2314 17.7613 20.1954 17.9913 20.0626C18.2214 19.9298 18.3893 19.7111 18.4581 19.4545C18.5269 19.1979 18.491 18.9245 18.3582 18.6944C18.2254 18.4643 18.0066 18.2964 17.75 18.2276C17.485 18.1589 15.125 17.5751 13.645 18.5726C13.332 18.7827 13.069 19.0589 12.8746 19.3819C12.6802 19.7048 12.5592 20.0665 12.52 20.4414C12.27 22.4264 14.2263 22.9926 15.395 23.3301C16.9025 23.7664 17.035 23.9451 16.9925 24.2789C16.9538 24.5801 16.835 24.6964 16.725 24.7701C16.15 25.1526 14.8287 24.9651 14.2812 24.8151C14.0253 24.7437 13.7515 24.7768 13.52 24.9073C13.2885 25.0377 13.1183 25.2548 13.0469 25.5107C12.9754 25.7667 13.0086 26.0405 13.139 26.272C13.2695 26.5035 13.4866 26.6737 13.7425 26.7451C14.3625 26.9075 15.0004 26.9915 15.6412 26.9951C16.3687 26.9951 17.1787 26.8701 17.8275 26.4376C18.1477 26.2248 18.4168 25.9438 18.6154 25.6146C18.814 25.2854 18.9373 24.9163 18.9762 24.5339C19.25 22.3701 17.1862 21.7664 15.95 21.4089ZM26.3363 18.0539C26.2126 18.0096 26.0814 17.9901 25.9501 17.9966C25.8189 18.003 25.6903 18.0352 25.5715 18.0914C25.4528 18.1476 25.3462 18.2266 25.2581 18.324C25.1699 18.4214 25.1017 18.5352 25.0575 18.6589L23.5 23.0214L21.9412 18.6589C21.8521 18.4091 21.6673 18.2049 21.4276 18.0913C21.1879 17.9778 20.9129 17.9641 20.6631 18.0532C20.4133 18.1424 20.2092 18.3272 20.0956 18.5669C19.982 18.8066 19.9683 19.0816 20.0575 19.3314L22.5575 26.3314C22.6268 26.5257 22.7545 26.6938 22.9232 26.8127C23.0918 26.9316 23.2931 26.9954 23.4994 26.9954C23.7057 26.9954 23.907 26.9316 24.0756 26.8127C24.2442 26.6938 24.3719 26.5257 24.4412 26.3314L26.9412 19.3314C27.0303 19.0817 27.0166 18.8069 26.9031 18.5674C26.7897 18.3279 26.5858 18.1432 26.3363 18.0539ZM27 10.9951V13.9951C27 14.2603 26.8946 14.5147 26.7071 14.7022C26.5196 14.8898 26.2652 14.9951 26 14.9951C25.7348 14.9951 25.4804 14.8898 25.2929 14.7022C25.1054 14.5147 25 14.2603 25 13.9951V11.9951H19C18.7348 11.9951 18.4804 11.8898 18.2929 11.7022C18.1054 11.5147 18 11.2603 18 10.9951V4.99512H7V13.9951C7 14.2603 6.89464 14.5147 6.70711 14.7022C6.51957 14.8898 6.26522 14.9951 6 14.9951C5.73478 14.9951 5.48043 14.8898 5.29289 14.7022C5.10536 14.5147 5 14.2603 5 13.9951V4.99512C5 4.46468 5.21071 3.95598 5.58579 3.5809C5.96086 3.20583 6.46957 2.99512 7 2.99512H19C19.1314 2.99501 19.2615 3.02079 19.3829 3.07098C19.5042 3.12117 19.6146 3.19478 19.7075 3.28762L26.7075 10.2876C26.8003 10.3806 26.8739 10.4909 26.9241 10.6123C26.9743 10.7337 27.0001 10.8638 27 10.9951ZM23.5863 9.99512L20 6.40887V9.99512H23.5863Z" fill="#5F2EEA"/>
</svg>
