<svg width="32" height="32" viewBox="0 0 32 32" fill="none" xmlns="http://www.w3.org/2000/svg">
<path d="M24.0002 5.66699H8.00016C7.0277 5.66699 6.09507 6.0533 5.40744 6.74093C4.7198 7.42857 4.3335 8.3612 4.3335 9.33366V22.667C4.3335 23.6395 4.7198 24.5721 5.40744 25.2597C6.09507 25.9473 7.0277 26.3337 8.00016 26.3337H24.0002C24.9726 26.3337 25.9053 25.9473 26.5929 25.2597C27.2805 24.5721 27.6668 23.6395 27.6668 22.667V9.33366C27.6668 8.3612 27.2805 7.42857 26.5929 6.74093C25.9053 6.0533 24.9726 5.66699 24.0002 5.66699ZM8.00016 7.66699H24.0002C24.4422 7.66699 24.8661 7.84259 25.1787 8.15515C25.4912 8.46771 25.6668 8.89163 25.6668 9.33366V20.2537L22.0402 16.627C21.9453 16.5257 21.8291 16.4468 21.7 16.396C21.5708 16.3453 21.4319 16.324 21.2935 16.3337C21.1534 16.3418 21.0164 16.3778 20.8905 16.4397C20.7646 16.5015 20.6523 16.5878 20.5602 16.6937L18.8402 18.7603L12.7068 12.627C12.6165 12.5309 12.5067 12.4551 12.3849 12.4046C12.2631 12.354 12.132 12.3298 12.0002 12.3337C11.8601 12.3418 11.7231 12.3779 11.5972 12.4397C11.4712 12.5015 11.3589 12.5878 11.2668 12.6937L6.3335 18.5737V9.33366C6.3335 9.11479 6.37661 8.89806 6.46036 8.69585C6.54412 8.49364 6.66689 8.30991 6.82165 8.15515C6.97642 8.00038 7.16015 7.87762 7.36236 7.79386C7.56457 7.7101 7.78129 7.66699 8.00016 7.66699ZM6.3335 22.667V21.6937L12.0668 14.8137L17.5602 20.307L14.2002 24.307H8.00016C7.56272 24.307 7.14279 24.1351 6.83098 23.8283C6.51918 23.5215 6.3405 23.1044 6.3335 22.667ZM24.0002 24.3337H16.8002L21.4002 18.8137L25.6002 23.0137C25.5264 23.3844 25.3269 23.7182 25.0354 23.9587C24.7438 24.1993 24.3781 24.3317 24.0002 24.3337Z" fill="#5F2EEA"/>
</svg>
