<svg width="32" height="32" viewBox="0 0 32 32" fill="none" xmlns="http://www.w3.org/2000/svg">
<path d="M9.00055 10.1123C8.99702 10.1986 9.01057 10.2848 9.04039 10.3656C9.0702 10.4463 9.11564 10.5198 9.17391 10.5817C9.23218 10.6435 9.30206 10.6924 9.37923 10.7253C9.45641 10.7581 9.53926 10.7743 9.62269 10.7727H11.7524C12.1087 10.7727 12.3926 10.4706 12.4391 10.1043C12.6714 8.35027 13.8331 7.07219 15.9035 7.07219C17.6744 7.07219 19.2956 7.9893 19.2956 10.1952C19.2956 11.893 18.3301 12.6738 16.8044 13.861C15.0671 15.1685 13.6911 16.6952 13.7892 19.1738L13.797 19.754C13.7997 19.9294 13.8689 20.0967 13.9896 20.2198C14.1103 20.3428 14.273 20.4118 14.4423 20.4118H16.5359C16.7071 20.4118 16.8713 20.3413 16.9923 20.216C17.1133 20.0906 17.1813 19.9206 17.1813 19.7433V19.4626C17.1813 17.5428 17.8861 16.984 19.7886 15.4893C21.3607 14.2513 23 12.877 23 9.99198C23 5.95187 19.706 4 16.0997 4C12.8289 4 9.24579 5.57754 9.00055 10.1123ZM13.0199 25.5214C13.0199 26.9465 14.1171 28 15.6272 28C17.1994 28 18.281 26.9465 18.281 25.5214C18.281 24.0455 17.1968 23.008 15.6247 23.008C14.1171 23.008 13.0199 24.0455 13.0199 25.5214Z" fill="#5F2EEA"/>
</svg>
