<svg width="32" height="32" viewBox="0 0 32 32" fill="none" xmlns="http://www.w3.org/2000/svg">
<path d="M7.99985 22.9123V11.755C8.88946 11.4405 9.63925 10.8216 10.1167 10.0077C10.5941 9.1938 10.7685 8.23734 10.6089 7.30735C10.4493 6.37735 9.96615 5.53371 9.24473 4.92552C8.5233 4.31733 7.61009 3.98376 6.66651 3.98376C5.72293 3.98376 4.80972 4.31733 4.0883 4.92552C3.36687 5.53371 2.88368 6.37735 2.72412 7.30735C2.56456 8.23734 2.7389 9.1938 3.21634 10.0077C3.69377 10.8216 4.44356 11.4405 5.33318 11.755V22.9123C4.44356 23.2269 3.69377 23.8458 3.21634 24.6596C2.7389 25.4735 2.56456 26.43 2.72412 27.36C2.88368 28.29 3.36687 29.1336 4.0883 29.7418C4.80972 30.35 5.72293 30.6836 6.66651 30.6836C7.61009 30.6836 8.5233 30.35 9.24473 29.7418C9.96615 29.1336 10.4493 28.29 10.6089 27.36C10.7685 26.43 10.5941 25.4735 10.1167 24.6596C9.63925 23.8458 8.88946 23.2269 7.99985 22.9123ZM26.6665 22.9123V9.33366C26.6665 8.62642 26.3856 7.94814 25.8855 7.44804C25.3854 6.94794 24.7071 6.66699 23.9998 6.66699H17.1038L19.2185 4.55233L17.3332 2.66699L13.8852 6.11499L11.9998 8.00033L13.8852 9.88566L17.3332 13.3337L19.2185 11.4483L17.1038 9.33366H23.9998V22.9123C23.1102 23.2269 22.3604 23.8458 21.883 24.6596C21.4056 25.4735 21.2312 26.43 21.3908 27.36C21.5503 28.29 22.0335 29.1336 22.755 29.7418C23.4764 30.35 24.3896 30.6836 25.3332 30.6836C26.2768 30.6836 27.19 30.35 27.9114 29.7418C28.6328 29.1336 29.116 28.29 29.2756 27.36C29.4351 26.43 29.2608 25.4735 28.7834 24.6596C28.3059 23.8458 27.5561 23.2269 26.6665 22.9123Z" fill="#5F2EEA"/>
</svg>
