<svg width="50" height="50" viewBox="0 0 50 50" fill="none" xmlns="http://www.w3.org/2000/svg">
<g clip-path="url(#clip0_544_254)">
<rect width="50" height="50" fill="#5F2EEA"/>
<path fill-rule="evenodd" clip-rule="evenodd" d="M11.426 48.1924L0 49.9998L0.0172468 12.3318L8.14049 7.08154L41.3147 15.2596L24.2749 26.7906L32.7344 33.9381L11.426 48.1924Z" fill="#2A00A2"/>
<path fill-rule="evenodd" clip-rule="evenodd" d="M18.3422 25.6622H34.3644C34.4248 25.6622 34.4679 25.7031 34.4507 25.7604L32.8467 33.8484C32.8295 33.9057 32.7777 33.9466 32.7174 33.9466H16.7899C15.2205 42.2881 13.9356 49.0595 13.7286 50H0.034668L8.14067 7.15538C8.15791 7.0736 8.24415 7.00818 8.339 7.00818H11.6418V7H42.9188C42.9706 7 43.0137 7.04907 42.9965 7.10631L41.3925 15.1944C41.3753 15.2434 41.3235 15.2925 41.2632 15.2925C35.5631 15.2925 26.9742 15.3089 20.291 15.317C19.6702 18.621 19.0062 22.1539 18.3422 25.6622Z" fill="white"/>
</g>
<defs>
<clipPath id="clip0_544_254">
<rect width="50" height="50" fill="white"/>
</clipPath>
</defs>
</svg>
